%TF.GenerationSoftware,KiCad,Pcbnew,8.0.2*%
%TF.CreationDate,2024-06-13T12:09:12+05:30*%
%TF.ProjectId,arduino nano,61726475-696e-46f2-906e-616e6f2e6b69,rev?*%
%TF.SameCoordinates,Original*%
%TF.FileFunction,Legend,Top*%
%TF.FilePolarity,Positive*%
%FSLAX46Y46*%
G04 Gerber Fmt 4.6, Leading zero omitted, Abs format (unit mm)*
G04 Created by KiCad (PCBNEW 8.0.2) date 2024-06-13 12:09:12*
%MOMM*%
%LPD*%
G01*
G04 APERTURE LIST*
%ADD10C,0.125000*%
%ADD11C,0.254000*%
%ADD12C,0.200000*%
%ADD13C,0.100000*%
%ADD14C,0.127000*%
G04 APERTURE END LIST*
D10*
X148474809Y-92683333D02*
X148474809Y-92921428D01*
X148474809Y-92921428D02*
X147974809Y-92921428D01*
X148474809Y-92516666D02*
X147974809Y-92516666D01*
X147974809Y-92516666D02*
X147974809Y-92397618D01*
X147974809Y-92397618D02*
X147998619Y-92326190D01*
X147998619Y-92326190D02*
X148046238Y-92278571D01*
X148046238Y-92278571D02*
X148093857Y-92254761D01*
X148093857Y-92254761D02*
X148189095Y-92230952D01*
X148189095Y-92230952D02*
X148260523Y-92230952D01*
X148260523Y-92230952D02*
X148355761Y-92254761D01*
X148355761Y-92254761D02*
X148403380Y-92278571D01*
X148403380Y-92278571D02*
X148451000Y-92326190D01*
X148451000Y-92326190D02*
X148474809Y-92397618D01*
X148474809Y-92397618D02*
X148474809Y-92516666D01*
X148022428Y-92040475D02*
X147998619Y-92016666D01*
X147998619Y-92016666D02*
X147974809Y-91969047D01*
X147974809Y-91969047D02*
X147974809Y-91849999D01*
X147974809Y-91849999D02*
X147998619Y-91802380D01*
X147998619Y-91802380D02*
X148022428Y-91778571D01*
X148022428Y-91778571D02*
X148070047Y-91754761D01*
X148070047Y-91754761D02*
X148117666Y-91754761D01*
X148117666Y-91754761D02*
X148189095Y-91778571D01*
X148189095Y-91778571D02*
X148474809Y-92064285D01*
X148474809Y-92064285D02*
X148474809Y-91754761D01*
D11*
X144171032Y-102126293D02*
X144598663Y-102553925D01*
X143401295Y-101955241D02*
X144171032Y-102126293D01*
X144171032Y-102126293D02*
X143999979Y-101356557D01*
X145667741Y-101484847D02*
X145154583Y-101998004D01*
X145411162Y-101741426D02*
X144513136Y-100843400D01*
X144513136Y-100843400D02*
X144555900Y-101057216D01*
X144555900Y-101057216D02*
X144555900Y-101228268D01*
X144555900Y-101228268D02*
X144513136Y-101356557D01*
D10*
X144574809Y-93992856D02*
X144574809Y-94230951D01*
X144574809Y-94230951D02*
X144074809Y-94230951D01*
X144574809Y-93826189D02*
X144074809Y-93826189D01*
X144074809Y-93826189D02*
X144074809Y-93707141D01*
X144074809Y-93707141D02*
X144098619Y-93635713D01*
X144098619Y-93635713D02*
X144146238Y-93588094D01*
X144146238Y-93588094D02*
X144193857Y-93564284D01*
X144193857Y-93564284D02*
X144289095Y-93540475D01*
X144289095Y-93540475D02*
X144360523Y-93540475D01*
X144360523Y-93540475D02*
X144455761Y-93564284D01*
X144455761Y-93564284D02*
X144503380Y-93588094D01*
X144503380Y-93588094D02*
X144551000Y-93635713D01*
X144551000Y-93635713D02*
X144574809Y-93707141D01*
X144574809Y-93707141D02*
X144574809Y-93826189D01*
X144074809Y-93373808D02*
X144074809Y-93064284D01*
X144074809Y-93064284D02*
X144265285Y-93230951D01*
X144265285Y-93230951D02*
X144265285Y-93159522D01*
X144265285Y-93159522D02*
X144289095Y-93111903D01*
X144289095Y-93111903D02*
X144312904Y-93088094D01*
X144312904Y-93088094D02*
X144360523Y-93064284D01*
X144360523Y-93064284D02*
X144479571Y-93064284D01*
X144479571Y-93064284D02*
X144527190Y-93088094D01*
X144527190Y-93088094D02*
X144551000Y-93111903D01*
X144551000Y-93111903D02*
X144574809Y-93159522D01*
X144574809Y-93159522D02*
X144574809Y-93302379D01*
X144574809Y-93302379D02*
X144551000Y-93349998D01*
X144551000Y-93349998D02*
X144527190Y-93373808D01*
X144765285Y-92707142D02*
X144741476Y-92730951D01*
X144741476Y-92730951D02*
X144670047Y-92778570D01*
X144670047Y-92778570D02*
X144622428Y-92802380D01*
X144622428Y-92802380D02*
X144551000Y-92826189D01*
X144551000Y-92826189D02*
X144431952Y-92849999D01*
X144431952Y-92849999D02*
X144336714Y-92849999D01*
X144336714Y-92849999D02*
X144217666Y-92826189D01*
X144217666Y-92826189D02*
X144146238Y-92802380D01*
X144146238Y-92802380D02*
X144098619Y-92778570D01*
X144098619Y-92778570D02*
X144027190Y-92730951D01*
X144027190Y-92730951D02*
X144003380Y-92707142D01*
X144574809Y-92230952D02*
X144336714Y-92397618D01*
X144574809Y-92516666D02*
X144074809Y-92516666D01*
X144074809Y-92516666D02*
X144074809Y-92326190D01*
X144074809Y-92326190D02*
X144098619Y-92278571D01*
X144098619Y-92278571D02*
X144122428Y-92254761D01*
X144122428Y-92254761D02*
X144170047Y-92230952D01*
X144170047Y-92230952D02*
X144241476Y-92230952D01*
X144241476Y-92230952D02*
X144289095Y-92254761D01*
X144289095Y-92254761D02*
X144312904Y-92278571D01*
X144312904Y-92278571D02*
X144336714Y-92326190D01*
X144336714Y-92326190D02*
X144336714Y-92516666D01*
X144074809Y-92064285D02*
X144574809Y-91730952D01*
X144074809Y-91730952D02*
X144574809Y-92064285D01*
X144765285Y-91588095D02*
X144741476Y-91564285D01*
X144741476Y-91564285D02*
X144670047Y-91516666D01*
X144670047Y-91516666D02*
X144622428Y-91492857D01*
X144622428Y-91492857D02*
X144551000Y-91469047D01*
X144551000Y-91469047D02*
X144431952Y-91445238D01*
X144431952Y-91445238D02*
X144336714Y-91445238D01*
X144336714Y-91445238D02*
X144217666Y-91469047D01*
X144217666Y-91469047D02*
X144146238Y-91492857D01*
X144146238Y-91492857D02*
X144098619Y-91516666D01*
X144098619Y-91516666D02*
X144027190Y-91564285D01*
X144027190Y-91564285D02*
X144003380Y-91588095D01*
X144574809Y-90945238D02*
X144574809Y-91230952D01*
X144574809Y-91088095D02*
X144074809Y-91088095D01*
X144074809Y-91088095D02*
X144146238Y-91135714D01*
X144146238Y-91135714D02*
X144193857Y-91183333D01*
X144193857Y-91183333D02*
X144217666Y-91230952D01*
X152116666Y-95124809D02*
X151878571Y-95124809D01*
X151878571Y-95124809D02*
X151878571Y-94624809D01*
X152283333Y-95124809D02*
X152283333Y-94624809D01*
X152283333Y-94624809D02*
X152402381Y-94624809D01*
X152402381Y-94624809D02*
X152473809Y-94648619D01*
X152473809Y-94648619D02*
X152521428Y-94696238D01*
X152521428Y-94696238D02*
X152545238Y-94743857D01*
X152545238Y-94743857D02*
X152569047Y-94839095D01*
X152569047Y-94839095D02*
X152569047Y-94910523D01*
X152569047Y-94910523D02*
X152545238Y-95005761D01*
X152545238Y-95005761D02*
X152521428Y-95053380D01*
X152521428Y-95053380D02*
X152473809Y-95101000D01*
X152473809Y-95101000D02*
X152402381Y-95124809D01*
X152402381Y-95124809D02*
X152283333Y-95124809D01*
X153045238Y-95124809D02*
X152759524Y-95124809D01*
X152902381Y-95124809D02*
X152902381Y-94624809D01*
X152902381Y-94624809D02*
X152854762Y-94696238D01*
X152854762Y-94696238D02*
X152807143Y-94743857D01*
X152807143Y-94743857D02*
X152759524Y-94767666D01*
X146033333Y-121007709D02*
X146033333Y-121364852D01*
X146033333Y-121364852D02*
X146009524Y-121436280D01*
X146009524Y-121436280D02*
X145961905Y-121483900D01*
X145961905Y-121483900D02*
X145890476Y-121507709D01*
X145890476Y-121507709D02*
X145842857Y-121507709D01*
X146533333Y-121507709D02*
X146247619Y-121507709D01*
X146390476Y-121507709D02*
X146390476Y-121007709D01*
X146390476Y-121007709D02*
X146342857Y-121079138D01*
X146342857Y-121079138D02*
X146295238Y-121126757D01*
X146295238Y-121126757D02*
X146247619Y-121150566D01*
X149075215Y-109136036D02*
X148789005Y-109422246D01*
X148789005Y-109422246D02*
X148772169Y-109472754D01*
X148772169Y-109472754D02*
X148772169Y-109506426D01*
X148772169Y-109506426D02*
X148789005Y-109556933D01*
X148789005Y-109556933D02*
X148856348Y-109624277D01*
X148856348Y-109624277D02*
X148906856Y-109641113D01*
X148906856Y-109641113D02*
X148940528Y-109641113D01*
X148940528Y-109641113D02*
X148991035Y-109624277D01*
X148991035Y-109624277D02*
X149277245Y-109338067D01*
X149277245Y-110045174D02*
X149075215Y-109843144D01*
X149176230Y-109944159D02*
X149529784Y-109590605D01*
X149529784Y-109590605D02*
X149445604Y-109607441D01*
X149445604Y-109607441D02*
X149378261Y-109607441D01*
X149378261Y-109607441D02*
X149327753Y-109590605D01*
X144645238Y-84374809D02*
X144978571Y-84874809D01*
X144978571Y-84374809D02*
X144645238Y-84874809D01*
X145430952Y-84874809D02*
X145145238Y-84874809D01*
X145288095Y-84874809D02*
X145288095Y-84374809D01*
X145288095Y-84374809D02*
X145240476Y-84446238D01*
X145240476Y-84446238D02*
X145192857Y-84493857D01*
X145192857Y-84493857D02*
X145145238Y-84517666D01*
X147919048Y-98051000D02*
X147990476Y-98074809D01*
X147990476Y-98074809D02*
X148109524Y-98074809D01*
X148109524Y-98074809D02*
X148157143Y-98051000D01*
X148157143Y-98051000D02*
X148180952Y-98027190D01*
X148180952Y-98027190D02*
X148204762Y-97979571D01*
X148204762Y-97979571D02*
X148204762Y-97931952D01*
X148204762Y-97931952D02*
X148180952Y-97884333D01*
X148180952Y-97884333D02*
X148157143Y-97860523D01*
X148157143Y-97860523D02*
X148109524Y-97836714D01*
X148109524Y-97836714D02*
X148014286Y-97812904D01*
X148014286Y-97812904D02*
X147966667Y-97789095D01*
X147966667Y-97789095D02*
X147942857Y-97765285D01*
X147942857Y-97765285D02*
X147919048Y-97717666D01*
X147919048Y-97717666D02*
X147919048Y-97670047D01*
X147919048Y-97670047D02*
X147942857Y-97622428D01*
X147942857Y-97622428D02*
X147966667Y-97598619D01*
X147966667Y-97598619D02*
X148014286Y-97574809D01*
X148014286Y-97574809D02*
X148133333Y-97574809D01*
X148133333Y-97574809D02*
X148204762Y-97598619D01*
X148680952Y-98074809D02*
X148395238Y-98074809D01*
X148538095Y-98074809D02*
X148538095Y-97574809D01*
X148538095Y-97574809D02*
X148490476Y-97646238D01*
X148490476Y-97646238D02*
X148442857Y-97693857D01*
X148442857Y-97693857D02*
X148395238Y-97717666D01*
X146874809Y-93783332D02*
X146874809Y-94021427D01*
X146874809Y-94021427D02*
X146374809Y-94021427D01*
X146874809Y-93616665D02*
X146374809Y-93616665D01*
X146374809Y-93616665D02*
X146374809Y-93497617D01*
X146374809Y-93497617D02*
X146398619Y-93426189D01*
X146398619Y-93426189D02*
X146446238Y-93378570D01*
X146446238Y-93378570D02*
X146493857Y-93354760D01*
X146493857Y-93354760D02*
X146589095Y-93330951D01*
X146589095Y-93330951D02*
X146660523Y-93330951D01*
X146660523Y-93330951D02*
X146755761Y-93354760D01*
X146755761Y-93354760D02*
X146803380Y-93378570D01*
X146803380Y-93378570D02*
X146851000Y-93426189D01*
X146851000Y-93426189D02*
X146874809Y-93497617D01*
X146874809Y-93497617D02*
X146874809Y-93616665D01*
X146541476Y-92902379D02*
X146874809Y-92902379D01*
X146351000Y-93021427D02*
X146708142Y-93140474D01*
X146708142Y-93140474D02*
X146708142Y-92830951D01*
X147065285Y-92497618D02*
X147041476Y-92521427D01*
X147041476Y-92521427D02*
X146970047Y-92569046D01*
X146970047Y-92569046D02*
X146922428Y-92592856D01*
X146922428Y-92592856D02*
X146851000Y-92616665D01*
X146851000Y-92616665D02*
X146731952Y-92640475D01*
X146731952Y-92640475D02*
X146636714Y-92640475D01*
X146636714Y-92640475D02*
X146517666Y-92616665D01*
X146517666Y-92616665D02*
X146446238Y-92592856D01*
X146446238Y-92592856D02*
X146398619Y-92569046D01*
X146398619Y-92569046D02*
X146327190Y-92521427D01*
X146327190Y-92521427D02*
X146303380Y-92497618D01*
X146374809Y-92378570D02*
X146374809Y-92092856D01*
X146874809Y-92235713D02*
X146374809Y-92235713D01*
X146374809Y-91973809D02*
X146874809Y-91640476D01*
X146374809Y-91640476D02*
X146874809Y-91973809D01*
X147065285Y-91497619D02*
X147041476Y-91473809D01*
X147041476Y-91473809D02*
X146970047Y-91426190D01*
X146970047Y-91426190D02*
X146922428Y-91402381D01*
X146922428Y-91402381D02*
X146851000Y-91378571D01*
X146851000Y-91378571D02*
X146731952Y-91354762D01*
X146731952Y-91354762D02*
X146636714Y-91354762D01*
X146636714Y-91354762D02*
X146517666Y-91378571D01*
X146517666Y-91378571D02*
X146446238Y-91402381D01*
X146446238Y-91402381D02*
X146398619Y-91426190D01*
X146398619Y-91426190D02*
X146327190Y-91473809D01*
X146327190Y-91473809D02*
X146303380Y-91497619D01*
X146874809Y-90854762D02*
X146874809Y-91140476D01*
X146874809Y-90997619D02*
X146374809Y-90997619D01*
X146374809Y-90997619D02*
X146446238Y-91045238D01*
X146446238Y-91045238D02*
X146493857Y-91092857D01*
X146493857Y-91092857D02*
X146517666Y-91140476D01*
D12*
%TO.C,LD2*%
X149050000Y-90700000D02*
X149050000Y-93400000D01*
X151150000Y-90700000D02*
X149050000Y-90700000D01*
X151150000Y-93400000D02*
X151150000Y-90700000D01*
%TO.C,Y1*%
X143259010Y-101702513D02*
X143259010Y-101702513D01*
D13*
X143294365Y-102657107D02*
X143294365Y-102657107D01*
X143294365Y-102657107D02*
X144178249Y-103540990D01*
D12*
X143329720Y-101773223D02*
X143329720Y-101773223D01*
X143329720Y-101773223D02*
X143329720Y-101773223D01*
D13*
X144178249Y-103540990D02*
X143294365Y-102657107D01*
X144178249Y-103540990D02*
X144178249Y-103540990D01*
X145557107Y-100394365D02*
X145557107Y-100394365D01*
X145557107Y-100394365D02*
X146440990Y-101278249D01*
X146440990Y-101278249D02*
X145557107Y-100394365D01*
X146440990Y-101278249D02*
X146440990Y-101278249D01*
D12*
X143259010Y-101702513D02*
G75*
G02*
X143329720Y-101773223I35355J-35355D01*
G01*
X143259010Y-101702513D02*
G75*
G02*
X143329720Y-101773223I35355J-35355D01*
G01*
X143329720Y-101773223D02*
G75*
G02*
X143259010Y-101702513I-35355J35355D01*
G01*
%TO.C,LD3(RX)1*%
X143300000Y-91650000D02*
X143300000Y-94350000D01*
X143300000Y-94350000D02*
X145400000Y-94350000D01*
X145400000Y-94350000D02*
X145400000Y-91650000D01*
%TO.C,LD1*%
X151400000Y-90650000D02*
X151400000Y-93350000D01*
X153500000Y-90650000D02*
X151400000Y-90650000D01*
X153500000Y-93350000D02*
X153500000Y-90650000D01*
%TO.C,J1*%
X145150000Y-120657900D02*
X147050000Y-120657900D01*
X145150000Y-122062900D02*
X145150000Y-120657900D01*
X150650000Y-120657900D02*
X152550000Y-120657900D01*
X152550000Y-122062900D02*
X152550000Y-120657900D01*
X147600800Y-119792900D02*
G75*
G02*
X147499200Y-119792900I-50800J0D01*
G01*
X147499200Y-119792900D02*
G75*
G02*
X147600800Y-119792900I50800J0D01*
G01*
D14*
%TO.C,J2*%
X140230000Y-81590000D02*
X142815000Y-81590000D01*
X140230000Y-124770000D02*
X140230000Y-81590000D01*
X140230000Y-124770000D02*
X142815000Y-124770000D01*
X142815000Y-81590000D02*
X142815000Y-124770000D01*
D12*
X139020000Y-85380000D02*
G75*
G02*
X138820000Y-85380000I-100000J0D01*
G01*
X138820000Y-85380000D02*
G75*
G02*
X139020000Y-85380000I100000J0D01*
G01*
D14*
%TO.C,U1*%
X144200253Y-109600000D02*
X144274499Y-109525754D01*
X144200253Y-109600000D02*
X144274499Y-109674246D01*
X149150000Y-104650253D02*
X149075754Y-104724499D01*
X149150000Y-104650253D02*
X149224246Y-104724499D01*
X149150000Y-114549747D02*
X149075754Y-114475501D01*
X149150000Y-114549747D02*
X149224246Y-114475501D01*
X154099747Y-109600000D02*
X154025501Y-109525754D01*
X154099747Y-109600000D02*
X154025501Y-109674246D01*
D12*
X147100395Y-103490597D02*
G75*
G02*
X146900395Y-103490597I-100000J0D01*
G01*
X146900395Y-103490597D02*
G75*
G02*
X147100395Y-103490597I100000J0D01*
G01*
D14*
%TO.C,X1*%
X144386750Y-81393250D02*
X144386750Y-87743250D01*
X144386750Y-87743250D02*
X153276750Y-87743250D01*
X147561750Y-81393250D02*
X144386750Y-81393250D01*
X153276750Y-81393250D02*
X150101750Y-81393250D01*
X153276750Y-87743250D02*
X153276750Y-81393250D01*
%TO.C,S1*%
X146800000Y-96600000D02*
X149800000Y-96600000D01*
X146800000Y-99100000D02*
X149800000Y-99100000D01*
D12*
X145700000Y-97650000D02*
G75*
G02*
X145500000Y-97650000I-100000J0D01*
G01*
X145500000Y-97650000D02*
G75*
G02*
X145700000Y-97650000I100000J0D01*
G01*
%TO.C,LD4(TX)1*%
X145600000Y-91500000D02*
X145600000Y-94200000D01*
X145600000Y-94200000D02*
X147700000Y-94200000D01*
X147700000Y-94200000D02*
X147700000Y-91500000D01*
D14*
%TO.C,J3*%
X154930000Y-81590000D02*
X157515000Y-81590000D01*
X154930000Y-124770000D02*
X154930000Y-81590000D01*
X154930000Y-124770000D02*
X157515000Y-124770000D01*
X157515000Y-81590000D02*
X157515000Y-124770000D01*
D12*
X153720000Y-85380000D02*
G75*
G02*
X153520000Y-85380000I-100000J0D01*
G01*
X153520000Y-85380000D02*
G75*
G02*
X153720000Y-85380000I100000J0D01*
G01*
%TD*%
M02*
