M48
; DRILL file {KiCad 8.0.2} date 2024-06-13T12:10:03+0530
; FORMAT={-:-/ absolute / inch / decimal}
; #@! TF.CreationDate,2024-06-13T12:10:03+05:30
; #@! TF.GenerationSoftware,Kicad,Pcbnew,8.0.2
; #@! TF.FileFunction,Plated,1,2,PTH
FMAT,2
INCH
; #@! TA.AperFunction,Plated,PTH,ViaDrill
T1C0.0118
; #@! TA.AperFunction,Plated,PTH,ComponentDrill
T2C0.0354
; #@! TA.AperFunction,Plated,PTH,ComponentDrill
T3C0.0394
%
G90
G05
T1
X5.6575Y-3.4528
X5.6929Y-3.3819
X5.6988Y-3.7953
X5.7205Y-4.134
X5.7264Y-3.5807
X5.7303Y-3.5315
X5.7331Y-4.0495
X5.7382Y-3.7854
X5.748Y-4.1122
X5.7657Y-4.8858
X5.7687Y-4.3484
X5.7697Y-4.7067
X5.7815Y-3.7736
X5.7892Y-4.0746
X5.8051Y-3.554
X5.8209Y-3.8856
X5.8366Y-3.8499
X5.8476Y-4.5385
X5.8543Y-4.311
X5.8563Y-4.3996
X5.8648Y-3.9757
X5.8681Y-3.8939
X5.8683Y-4.6577
X5.8701Y-4.6929
X5.9102Y-3.5067
X5.9105Y-4.462
X5.9311Y-4.6319
X5.9361Y-4.5684
X5.9453Y-3.8102
X5.9766Y-3.8138
X5.9961Y-3.789
X6.0138Y-3.5433
X6.0177Y-4.0709
X6.0217Y-3.813
X6.0217Y-4.1476
X6.0728Y-4.5394
X6.0748Y-3.8661
X6.075Y-4.4254
X6.0768Y-4.7858
T2
X5.5709Y-3.3622
X5.5709Y-3.4622
X5.5709Y-3.5622
X5.5709Y-3.6622
X5.5709Y-3.7622
X5.5709Y-3.8622
X5.5709Y-3.9622
X5.5709Y-4.0622
X5.5709Y-4.1622
X5.5709Y-4.2622
X5.5709Y-4.3622
X5.5709Y-4.4622
X5.5709Y-4.5622
X5.5709Y-4.6622
X5.5709Y-4.7622
X6.1496Y-3.3622
X6.1496Y-3.4622
X6.1496Y-3.5622
X6.1496Y-3.6622
X6.1496Y-3.7622
X6.1496Y-3.8622
X6.1496Y-3.9622
X6.1496Y-4.0622
X6.1496Y-4.1622
X6.1496Y-4.2622
X6.1496Y-4.3622
X6.1496Y-4.4622
X6.1496Y-4.5622
X6.1496Y-4.6622
X6.1496Y-4.7622
T3
X5.7595Y-3.2795
X5.7595Y-3.3795
X5.8595Y-3.2795
X5.8595Y-3.3795
X5.9595Y-3.2795
X5.9595Y-3.3795
M30
