%TF.GenerationSoftware,KiCad,Pcbnew,8.0.2*%
%TF.CreationDate,2024-06-13T12:09:12+05:30*%
%TF.ProjectId,arduino nano,61726475-696e-46f2-906e-616e6f2e6b69,rev?*%
%TF.SameCoordinates,Original*%
%TF.FileFunction,Paste,Bot*%
%TF.FilePolarity,Positive*%
%FSLAX46Y46*%
G04 Gerber Fmt 4.6, Leading zero omitted, Abs format (unit mm)*
G04 Created by KiCad (PCBNEW 8.0.2) date 2024-06-13 12:09:12*
%MOMM*%
%LPD*%
G01*
G04 APERTURE LIST*
G04 Aperture macros list*
%AMRoundRect*
0 Rectangle with rounded corners*
0 $1 Rounding radius*
0 $2 $3 $4 $5 $6 $7 $8 $9 X,Y pos of 4 corners*
0 Add a 4 corners polygon primitive as box body*
4,1,4,$2,$3,$4,$5,$6,$7,$8,$9,$2,$3,0*
0 Add four circle primitives for the rounded corners*
1,1,$1+$1,$2,$3*
1,1,$1+$1,$4,$5*
1,1,$1+$1,$6,$7*
1,1,$1+$1,$8,$9*
0 Add four rect primitives between the rounded corners*
20,1,$1+$1,$2,$3,$4,$5,0*
20,1,$1+$1,$4,$5,$6,$7,0*
20,1,$1+$1,$6,$7,$8,$9,0*
20,1,$1+$1,$8,$9,$2,$3,0*%
G04 Aperture macros list end*
%ADD10C,0.001000*%
%ADD11R,1.470000X1.020000*%
%ADD12RoundRect,0.152500X0.152500X-0.297500X0.152500X0.297500X-0.152500X0.297500X-0.152500X-0.297500X0*%
%ADD13RoundRect,0.132500X0.132500X-0.317500X0.132500X0.317500X-0.132500X0.317500X-0.132500X-0.317500X0*%
%ADD14RoundRect,0.116250X-0.348750X0.803750X-0.348750X-0.803750X0.348750X-0.803750X0.348750X0.803750X0*%
%ADD15RoundRect,0.230000X-1.365000X0.690000X-1.365000X-0.690000X1.365000X-0.690000X1.365000X0.690000X0*%
%ADD16R,0.940000X0.750000*%
%ADD17R,1.450000X1.150000*%
%ADD18R,2.667000X2.540000*%
%ADD19R,0.762000X1.270000*%
%ADD20R,1.070000X0.770000*%
%ADD21R,1.750000X0.450000*%
%ADD22R,1.020000X1.470000*%
%ADD23RoundRect,0.152500X-0.152500X0.297500X-0.152500X-0.297500X0.152500X-0.297500X0.152500X0.297500X0*%
%ADD24RoundRect,0.132500X-0.132500X0.317500X-0.132500X-0.317500X0.132500X-0.317500X0.132500X0.317500X0*%
G04 APERTURE END LIST*
D10*
%TO.C,J1*%
X145302000Y-122508900D02*
X145330000Y-122510900D01*
X145357000Y-122513900D01*
X145384000Y-122518900D01*
X145411000Y-122525900D01*
X145437000Y-122533900D01*
X145463000Y-122542900D01*
X145489000Y-122552900D01*
X145513000Y-122564900D01*
X145537000Y-122577900D01*
X145561000Y-122592900D01*
X145584000Y-122607900D01*
X145605000Y-122624900D01*
X145626000Y-122642900D01*
X145646000Y-122661900D01*
X145665000Y-122681900D01*
X145683000Y-122702900D01*
X145700000Y-122723900D01*
X145715000Y-122746900D01*
X145730000Y-122770900D01*
X145743000Y-122794900D01*
X145755000Y-122818900D01*
X145765000Y-122844900D01*
X145774000Y-122870900D01*
X145782000Y-122896900D01*
X145789000Y-122923900D01*
X145794000Y-122950900D01*
X145797000Y-122977900D01*
X145799000Y-123005900D01*
X145800000Y-123032900D01*
X145800000Y-123432900D01*
X145500000Y-123432900D01*
X145500000Y-123032900D01*
X145500000Y-123020900D01*
X145499000Y-123008900D01*
X145497000Y-122997900D01*
X145495000Y-122985900D01*
X145492000Y-122974900D01*
X145489000Y-122962900D01*
X145485000Y-122951900D01*
X145481000Y-122940900D01*
X145475000Y-122930900D01*
X145470000Y-122920900D01*
X145464000Y-122909900D01*
X145457000Y-122900900D01*
X145450000Y-122890900D01*
X145442000Y-122881900D01*
X145434000Y-122873900D01*
X145426000Y-122865900D01*
X145417000Y-122857900D01*
X145407000Y-122850900D01*
X145398000Y-122843900D01*
X145387000Y-122837900D01*
X145377000Y-122832900D01*
X145367000Y-122826900D01*
X145356000Y-122822900D01*
X145345000Y-122818900D01*
X145333000Y-122815900D01*
X145322000Y-122812900D01*
X145310000Y-122810900D01*
X145299000Y-122808900D01*
X145287000Y-122807900D01*
X145275000Y-122807900D01*
X145263000Y-122807900D01*
X145251000Y-122808900D01*
X145240000Y-122810900D01*
X145228000Y-122812900D01*
X145217000Y-122815900D01*
X145205000Y-122818900D01*
X145194000Y-122822900D01*
X145183000Y-122826900D01*
X145173000Y-122832900D01*
X145162000Y-122837900D01*
X145152000Y-122843900D01*
X145143000Y-122850900D01*
X145133000Y-122857900D01*
X145124000Y-122865900D01*
X145116000Y-122873900D01*
X145108000Y-122881900D01*
X145100000Y-122890900D01*
X145093000Y-122900900D01*
X145086000Y-122909900D01*
X145080000Y-122919900D01*
X145075000Y-122930900D01*
X145069000Y-122940900D01*
X145065000Y-122951900D01*
X145061000Y-122962900D01*
X145058000Y-122974900D01*
X145055000Y-122985900D01*
X145053000Y-122997900D01*
X145051000Y-123008900D01*
X145050000Y-123020900D01*
X145050000Y-123032900D01*
X145050000Y-123432900D01*
X144750000Y-123432900D01*
X144750000Y-123032900D01*
X144751000Y-123005900D01*
X144753000Y-122977900D01*
X144756000Y-122950900D01*
X144761000Y-122923900D01*
X144768000Y-122896900D01*
X144776000Y-122870900D01*
X144785000Y-122844900D01*
X144795000Y-122818900D01*
X144807000Y-122794900D01*
X144820000Y-122769900D01*
X144835000Y-122746900D01*
X144850000Y-122723900D01*
X144867000Y-122702900D01*
X144885000Y-122681900D01*
X144904000Y-122661900D01*
X144924000Y-122642900D01*
X144945000Y-122624900D01*
X144966000Y-122607900D01*
X144989000Y-122592900D01*
X145013000Y-122577900D01*
X145037000Y-122564900D01*
X145061000Y-122552900D01*
X145087000Y-122542900D01*
X145113000Y-122533900D01*
X145139000Y-122525900D01*
X145166000Y-122518900D01*
X145193000Y-122513900D01*
X145220000Y-122510900D01*
X145248000Y-122508900D01*
X145275000Y-122507900D01*
X145302000Y-122508900D01*
G36*
X145302000Y-122508900D02*
G01*
X145330000Y-122510900D01*
X145357000Y-122513900D01*
X145384000Y-122518900D01*
X145411000Y-122525900D01*
X145437000Y-122533900D01*
X145463000Y-122542900D01*
X145489000Y-122552900D01*
X145513000Y-122564900D01*
X145537000Y-122577900D01*
X145561000Y-122592900D01*
X145584000Y-122607900D01*
X145605000Y-122624900D01*
X145626000Y-122642900D01*
X145646000Y-122661900D01*
X145665000Y-122681900D01*
X145683000Y-122702900D01*
X145700000Y-122723900D01*
X145715000Y-122746900D01*
X145730000Y-122770900D01*
X145743000Y-122794900D01*
X145755000Y-122818900D01*
X145765000Y-122844900D01*
X145774000Y-122870900D01*
X145782000Y-122896900D01*
X145789000Y-122923900D01*
X145794000Y-122950900D01*
X145797000Y-122977900D01*
X145799000Y-123005900D01*
X145800000Y-123032900D01*
X145800000Y-123432900D01*
X145500000Y-123432900D01*
X145500000Y-123032900D01*
X145500000Y-123020900D01*
X145499000Y-123008900D01*
X145497000Y-122997900D01*
X145495000Y-122985900D01*
X145492000Y-122974900D01*
X145489000Y-122962900D01*
X145485000Y-122951900D01*
X145481000Y-122940900D01*
X145475000Y-122930900D01*
X145470000Y-122920900D01*
X145464000Y-122909900D01*
X145457000Y-122900900D01*
X145450000Y-122890900D01*
X145442000Y-122881900D01*
X145434000Y-122873900D01*
X145426000Y-122865900D01*
X145417000Y-122857900D01*
X145407000Y-122850900D01*
X145398000Y-122843900D01*
X145387000Y-122837900D01*
X145377000Y-122832900D01*
X145367000Y-122826900D01*
X145356000Y-122822900D01*
X145345000Y-122818900D01*
X145333000Y-122815900D01*
X145322000Y-122812900D01*
X145310000Y-122810900D01*
X145299000Y-122808900D01*
X145287000Y-122807900D01*
X145275000Y-122807900D01*
X145263000Y-122807900D01*
X145251000Y-122808900D01*
X145240000Y-122810900D01*
X145228000Y-122812900D01*
X145217000Y-122815900D01*
X145205000Y-122818900D01*
X145194000Y-122822900D01*
X145183000Y-122826900D01*
X145173000Y-122832900D01*
X145162000Y-122837900D01*
X145152000Y-122843900D01*
X145143000Y-122850900D01*
X145133000Y-122857900D01*
X145124000Y-122865900D01*
X145116000Y-122873900D01*
X145108000Y-122881900D01*
X145100000Y-122890900D01*
X145093000Y-122900900D01*
X145086000Y-122909900D01*
X145080000Y-122919900D01*
X145075000Y-122930900D01*
X145069000Y-122940900D01*
X145065000Y-122951900D01*
X145061000Y-122962900D01*
X145058000Y-122974900D01*
X145055000Y-122985900D01*
X145053000Y-122997900D01*
X145051000Y-123008900D01*
X145050000Y-123020900D01*
X145050000Y-123032900D01*
X145050000Y-123432900D01*
X144750000Y-123432900D01*
X144750000Y-123032900D01*
X144751000Y-123005900D01*
X144753000Y-122977900D01*
X144756000Y-122950900D01*
X144761000Y-122923900D01*
X144768000Y-122896900D01*
X144776000Y-122870900D01*
X144785000Y-122844900D01*
X144795000Y-122818900D01*
X144807000Y-122794900D01*
X144820000Y-122769900D01*
X144835000Y-122746900D01*
X144850000Y-122723900D01*
X144867000Y-122702900D01*
X144885000Y-122681900D01*
X144904000Y-122661900D01*
X144924000Y-122642900D01*
X144945000Y-122624900D01*
X144966000Y-122607900D01*
X144989000Y-122592900D01*
X145013000Y-122577900D01*
X145037000Y-122564900D01*
X145061000Y-122552900D01*
X145087000Y-122542900D01*
X145113000Y-122533900D01*
X145139000Y-122525900D01*
X145166000Y-122518900D01*
X145193000Y-122513900D01*
X145220000Y-122510900D01*
X145248000Y-122508900D01*
X145275000Y-122507900D01*
X145302000Y-122508900D01*
G37*
X145050000Y-123832900D02*
X145050000Y-123844900D01*
X145051000Y-123856900D01*
X145053000Y-123867900D01*
X145055000Y-123879900D01*
X145058000Y-123890900D01*
X145061000Y-123902900D01*
X145065000Y-123913900D01*
X145069000Y-123924900D01*
X145075000Y-123934900D01*
X145080000Y-123945900D01*
X145086000Y-123955900D01*
X145093000Y-123964900D01*
X145100000Y-123974900D01*
X145108000Y-123983900D01*
X145116000Y-123991900D01*
X145124000Y-123999900D01*
X145133000Y-124007900D01*
X145143000Y-124014900D01*
X145152000Y-124021900D01*
X145162000Y-124027900D01*
X145173000Y-124032900D01*
X145183000Y-124038900D01*
X145194000Y-124042900D01*
X145205000Y-124046900D01*
X145217000Y-124049900D01*
X145228000Y-124052900D01*
X145240000Y-124054900D01*
X145251000Y-124056900D01*
X145263000Y-124057900D01*
X145275000Y-124057900D01*
X145287000Y-124057900D01*
X145299000Y-124056900D01*
X145310000Y-124054900D01*
X145322000Y-124052900D01*
X145333000Y-124049900D01*
X145345000Y-124046900D01*
X145356000Y-124042900D01*
X145367000Y-124038900D01*
X145377000Y-124032900D01*
X145387000Y-124027900D01*
X145398000Y-124021900D01*
X145407000Y-124014900D01*
X145417000Y-124007900D01*
X145426000Y-123999900D01*
X145434000Y-123991900D01*
X145442000Y-123983900D01*
X145450000Y-123974900D01*
X145457000Y-123964900D01*
X145464000Y-123955900D01*
X145470000Y-123944900D01*
X145475000Y-123934900D01*
X145481000Y-123924900D01*
X145485000Y-123913900D01*
X145489000Y-123902900D01*
X145492000Y-123890900D01*
X145495000Y-123879900D01*
X145497000Y-123867900D01*
X145499000Y-123856900D01*
X145500000Y-123844900D01*
X145500000Y-123832900D01*
X145500000Y-123432900D01*
X145800000Y-123432900D01*
X145800000Y-123832900D01*
X145799000Y-123859900D01*
X145797000Y-123887900D01*
X145794000Y-123914900D01*
X145789000Y-123941900D01*
X145782000Y-123968900D01*
X145774000Y-123994900D01*
X145765000Y-124020900D01*
X145755000Y-124046900D01*
X145743000Y-124070900D01*
X145730000Y-124094900D01*
X145715000Y-124118900D01*
X145700000Y-124141900D01*
X145683000Y-124162900D01*
X145665000Y-124183900D01*
X145646000Y-124203900D01*
X145626000Y-124222900D01*
X145605000Y-124240900D01*
X145584000Y-124257900D01*
X145561000Y-124272900D01*
X145537000Y-124287900D01*
X145513000Y-124300900D01*
X145489000Y-124312900D01*
X145463000Y-124322900D01*
X145437000Y-124331900D01*
X145411000Y-124339900D01*
X145384000Y-124346900D01*
X145357000Y-124351900D01*
X145330000Y-124354900D01*
X145302000Y-124356900D01*
X145275000Y-124357900D01*
X145248000Y-124356900D01*
X145220000Y-124354900D01*
X145193000Y-124351900D01*
X145166000Y-124346900D01*
X145139000Y-124339900D01*
X145113000Y-124331900D01*
X145087000Y-124322900D01*
X145061000Y-124312900D01*
X145037000Y-124300900D01*
X145013000Y-124287900D01*
X144989000Y-124272900D01*
X144966000Y-124257900D01*
X144945000Y-124240900D01*
X144924000Y-124222900D01*
X144904000Y-124203900D01*
X144885000Y-124183900D01*
X144867000Y-124162900D01*
X144850000Y-124141900D01*
X144835000Y-124118900D01*
X144820000Y-124095900D01*
X144807000Y-124070900D01*
X144795000Y-124046900D01*
X144785000Y-124020900D01*
X144776000Y-123994900D01*
X144768000Y-123968900D01*
X144761000Y-123941900D01*
X144756000Y-123914900D01*
X144753000Y-123887900D01*
X144751000Y-123859900D01*
X144750000Y-123832900D01*
X144750000Y-123432900D01*
X145050000Y-123432900D01*
X145050000Y-123832900D01*
G36*
X145050000Y-123832900D02*
G01*
X145050000Y-123844900D01*
X145051000Y-123856900D01*
X145053000Y-123867900D01*
X145055000Y-123879900D01*
X145058000Y-123890900D01*
X145061000Y-123902900D01*
X145065000Y-123913900D01*
X145069000Y-123924900D01*
X145075000Y-123934900D01*
X145080000Y-123945900D01*
X145086000Y-123955900D01*
X145093000Y-123964900D01*
X145100000Y-123974900D01*
X145108000Y-123983900D01*
X145116000Y-123991900D01*
X145124000Y-123999900D01*
X145133000Y-124007900D01*
X145143000Y-124014900D01*
X145152000Y-124021900D01*
X145162000Y-124027900D01*
X145173000Y-124032900D01*
X145183000Y-124038900D01*
X145194000Y-124042900D01*
X145205000Y-124046900D01*
X145217000Y-124049900D01*
X145228000Y-124052900D01*
X145240000Y-124054900D01*
X145251000Y-124056900D01*
X145263000Y-124057900D01*
X145275000Y-124057900D01*
X145287000Y-124057900D01*
X145299000Y-124056900D01*
X145310000Y-124054900D01*
X145322000Y-124052900D01*
X145333000Y-124049900D01*
X145345000Y-124046900D01*
X145356000Y-124042900D01*
X145367000Y-124038900D01*
X145377000Y-124032900D01*
X145387000Y-124027900D01*
X145398000Y-124021900D01*
X145407000Y-124014900D01*
X145417000Y-124007900D01*
X145426000Y-123999900D01*
X145434000Y-123991900D01*
X145442000Y-123983900D01*
X145450000Y-123974900D01*
X145457000Y-123964900D01*
X145464000Y-123955900D01*
X145470000Y-123944900D01*
X145475000Y-123934900D01*
X145481000Y-123924900D01*
X145485000Y-123913900D01*
X145489000Y-123902900D01*
X145492000Y-123890900D01*
X145495000Y-123879900D01*
X145497000Y-123867900D01*
X145499000Y-123856900D01*
X145500000Y-123844900D01*
X145500000Y-123832900D01*
X145500000Y-123432900D01*
X145800000Y-123432900D01*
X145800000Y-123832900D01*
X145799000Y-123859900D01*
X145797000Y-123887900D01*
X145794000Y-123914900D01*
X145789000Y-123941900D01*
X145782000Y-123968900D01*
X145774000Y-123994900D01*
X145765000Y-124020900D01*
X145755000Y-124046900D01*
X145743000Y-124070900D01*
X145730000Y-124094900D01*
X145715000Y-124118900D01*
X145700000Y-124141900D01*
X145683000Y-124162900D01*
X145665000Y-124183900D01*
X145646000Y-124203900D01*
X145626000Y-124222900D01*
X145605000Y-124240900D01*
X145584000Y-124257900D01*
X145561000Y-124272900D01*
X145537000Y-124287900D01*
X145513000Y-124300900D01*
X145489000Y-124312900D01*
X145463000Y-124322900D01*
X145437000Y-124331900D01*
X145411000Y-124339900D01*
X145384000Y-124346900D01*
X145357000Y-124351900D01*
X145330000Y-124354900D01*
X145302000Y-124356900D01*
X145275000Y-124357900D01*
X145248000Y-124356900D01*
X145220000Y-124354900D01*
X145193000Y-124351900D01*
X145166000Y-124346900D01*
X145139000Y-124339900D01*
X145113000Y-124331900D01*
X145087000Y-124322900D01*
X145061000Y-124312900D01*
X145037000Y-124300900D01*
X145013000Y-124287900D01*
X144989000Y-124272900D01*
X144966000Y-124257900D01*
X144945000Y-124240900D01*
X144924000Y-124222900D01*
X144904000Y-124203900D01*
X144885000Y-124183900D01*
X144867000Y-124162900D01*
X144850000Y-124141900D01*
X144835000Y-124118900D01*
X144820000Y-124095900D01*
X144807000Y-124070900D01*
X144795000Y-124046900D01*
X144785000Y-124020900D01*
X144776000Y-123994900D01*
X144768000Y-123968900D01*
X144761000Y-123941900D01*
X144756000Y-123914900D01*
X144753000Y-123887900D01*
X144751000Y-123859900D01*
X144750000Y-123832900D01*
X144750000Y-123432900D01*
X145050000Y-123432900D01*
X145050000Y-123832900D01*
G37*
X152452000Y-122508900D02*
X152480000Y-122510900D01*
X152507000Y-122513900D01*
X152534000Y-122518900D01*
X152561000Y-122525900D01*
X152587000Y-122533900D01*
X152613000Y-122542900D01*
X152639000Y-122552900D01*
X152663000Y-122564900D01*
X152687000Y-122577900D01*
X152711000Y-122592900D01*
X152734000Y-122607900D01*
X152755000Y-122624900D01*
X152776000Y-122642900D01*
X152796000Y-122661900D01*
X152815000Y-122681900D01*
X152833000Y-122702900D01*
X152850000Y-122723900D01*
X152865000Y-122746900D01*
X152880000Y-122769900D01*
X152893000Y-122794900D01*
X152905000Y-122818900D01*
X152915000Y-122844900D01*
X152924000Y-122870900D01*
X152932000Y-122896900D01*
X152939000Y-122923900D01*
X152944000Y-122950900D01*
X152947000Y-122977900D01*
X152949000Y-123005900D01*
X152950000Y-123032900D01*
X152950000Y-123432900D01*
X152650000Y-123432900D01*
X152650000Y-123032900D01*
X152650000Y-123020900D01*
X152649000Y-123008900D01*
X152647000Y-122997900D01*
X152645000Y-122985900D01*
X152642000Y-122974900D01*
X152639000Y-122962900D01*
X152635000Y-122951900D01*
X152631000Y-122940900D01*
X152625000Y-122930900D01*
X152620000Y-122919900D01*
X152614000Y-122909900D01*
X152607000Y-122900900D01*
X152600000Y-122890900D01*
X152592000Y-122881900D01*
X152584000Y-122873900D01*
X152576000Y-122865900D01*
X152567000Y-122857900D01*
X152557000Y-122850900D01*
X152548000Y-122843900D01*
X152538000Y-122837900D01*
X152527000Y-122832900D01*
X152517000Y-122826900D01*
X152506000Y-122822900D01*
X152495000Y-122818900D01*
X152483000Y-122815900D01*
X152472000Y-122812900D01*
X152460000Y-122810900D01*
X152449000Y-122808900D01*
X152437000Y-122807900D01*
X152425000Y-122807900D01*
X152413000Y-122807900D01*
X152401000Y-122808900D01*
X152390000Y-122810900D01*
X152378000Y-122812900D01*
X152367000Y-122815900D01*
X152355000Y-122818900D01*
X152344000Y-122822900D01*
X152333000Y-122826900D01*
X152323000Y-122832900D01*
X152313000Y-122837900D01*
X152302000Y-122843900D01*
X152293000Y-122850900D01*
X152283000Y-122857900D01*
X152274000Y-122865900D01*
X152266000Y-122873900D01*
X152258000Y-122881900D01*
X152250000Y-122890900D01*
X152243000Y-122900900D01*
X152236000Y-122909900D01*
X152230000Y-122920900D01*
X152225000Y-122930900D01*
X152219000Y-122940900D01*
X152215000Y-122951900D01*
X152211000Y-122962900D01*
X152208000Y-122974900D01*
X152205000Y-122985900D01*
X152203000Y-122997900D01*
X152201000Y-123008900D01*
X152200000Y-123020900D01*
X152200000Y-123032900D01*
X152200000Y-123432900D01*
X151900000Y-123432900D01*
X151900000Y-123032900D01*
X151901000Y-123005900D01*
X151903000Y-122977900D01*
X151906000Y-122950900D01*
X151911000Y-122923900D01*
X151918000Y-122896900D01*
X151926000Y-122870900D01*
X151935000Y-122844900D01*
X151945000Y-122818900D01*
X151957000Y-122794900D01*
X151970000Y-122770900D01*
X151985000Y-122746900D01*
X152000000Y-122723900D01*
X152017000Y-122702900D01*
X152035000Y-122681900D01*
X152054000Y-122661900D01*
X152074000Y-122642900D01*
X152095000Y-122624900D01*
X152116000Y-122607900D01*
X152139000Y-122592900D01*
X152163000Y-122577900D01*
X152187000Y-122564900D01*
X152211000Y-122552900D01*
X152237000Y-122542900D01*
X152263000Y-122533900D01*
X152289000Y-122525900D01*
X152316000Y-122518900D01*
X152343000Y-122513900D01*
X152370000Y-122510900D01*
X152398000Y-122508900D01*
X152425000Y-122507900D01*
X152452000Y-122508900D01*
G36*
X152452000Y-122508900D02*
G01*
X152480000Y-122510900D01*
X152507000Y-122513900D01*
X152534000Y-122518900D01*
X152561000Y-122525900D01*
X152587000Y-122533900D01*
X152613000Y-122542900D01*
X152639000Y-122552900D01*
X152663000Y-122564900D01*
X152687000Y-122577900D01*
X152711000Y-122592900D01*
X152734000Y-122607900D01*
X152755000Y-122624900D01*
X152776000Y-122642900D01*
X152796000Y-122661900D01*
X152815000Y-122681900D01*
X152833000Y-122702900D01*
X152850000Y-122723900D01*
X152865000Y-122746900D01*
X152880000Y-122769900D01*
X152893000Y-122794900D01*
X152905000Y-122818900D01*
X152915000Y-122844900D01*
X152924000Y-122870900D01*
X152932000Y-122896900D01*
X152939000Y-122923900D01*
X152944000Y-122950900D01*
X152947000Y-122977900D01*
X152949000Y-123005900D01*
X152950000Y-123032900D01*
X152950000Y-123432900D01*
X152650000Y-123432900D01*
X152650000Y-123032900D01*
X152650000Y-123020900D01*
X152649000Y-123008900D01*
X152647000Y-122997900D01*
X152645000Y-122985900D01*
X152642000Y-122974900D01*
X152639000Y-122962900D01*
X152635000Y-122951900D01*
X152631000Y-122940900D01*
X152625000Y-122930900D01*
X152620000Y-122919900D01*
X152614000Y-122909900D01*
X152607000Y-122900900D01*
X152600000Y-122890900D01*
X152592000Y-122881900D01*
X152584000Y-122873900D01*
X152576000Y-122865900D01*
X152567000Y-122857900D01*
X152557000Y-122850900D01*
X152548000Y-122843900D01*
X152538000Y-122837900D01*
X152527000Y-122832900D01*
X152517000Y-122826900D01*
X152506000Y-122822900D01*
X152495000Y-122818900D01*
X152483000Y-122815900D01*
X152472000Y-122812900D01*
X152460000Y-122810900D01*
X152449000Y-122808900D01*
X152437000Y-122807900D01*
X152425000Y-122807900D01*
X152413000Y-122807900D01*
X152401000Y-122808900D01*
X152390000Y-122810900D01*
X152378000Y-122812900D01*
X152367000Y-122815900D01*
X152355000Y-122818900D01*
X152344000Y-122822900D01*
X152333000Y-122826900D01*
X152323000Y-122832900D01*
X152313000Y-122837900D01*
X152302000Y-122843900D01*
X152293000Y-122850900D01*
X152283000Y-122857900D01*
X152274000Y-122865900D01*
X152266000Y-122873900D01*
X152258000Y-122881900D01*
X152250000Y-122890900D01*
X152243000Y-122900900D01*
X152236000Y-122909900D01*
X152230000Y-122920900D01*
X152225000Y-122930900D01*
X152219000Y-122940900D01*
X152215000Y-122951900D01*
X152211000Y-122962900D01*
X152208000Y-122974900D01*
X152205000Y-122985900D01*
X152203000Y-122997900D01*
X152201000Y-123008900D01*
X152200000Y-123020900D01*
X152200000Y-123032900D01*
X152200000Y-123432900D01*
X151900000Y-123432900D01*
X151900000Y-123032900D01*
X151901000Y-123005900D01*
X151903000Y-122977900D01*
X151906000Y-122950900D01*
X151911000Y-122923900D01*
X151918000Y-122896900D01*
X151926000Y-122870900D01*
X151935000Y-122844900D01*
X151945000Y-122818900D01*
X151957000Y-122794900D01*
X151970000Y-122770900D01*
X151985000Y-122746900D01*
X152000000Y-122723900D01*
X152017000Y-122702900D01*
X152035000Y-122681900D01*
X152054000Y-122661900D01*
X152074000Y-122642900D01*
X152095000Y-122624900D01*
X152116000Y-122607900D01*
X152139000Y-122592900D01*
X152163000Y-122577900D01*
X152187000Y-122564900D01*
X152211000Y-122552900D01*
X152237000Y-122542900D01*
X152263000Y-122533900D01*
X152289000Y-122525900D01*
X152316000Y-122518900D01*
X152343000Y-122513900D01*
X152370000Y-122510900D01*
X152398000Y-122508900D01*
X152425000Y-122507900D01*
X152452000Y-122508900D01*
G37*
X152200000Y-123832900D02*
X152200000Y-123844900D01*
X152201000Y-123856900D01*
X152203000Y-123867900D01*
X152205000Y-123879900D01*
X152208000Y-123890900D01*
X152211000Y-123902900D01*
X152215000Y-123913900D01*
X152219000Y-123924900D01*
X152225000Y-123934900D01*
X152230000Y-123944900D01*
X152236000Y-123955900D01*
X152243000Y-123964900D01*
X152250000Y-123974900D01*
X152258000Y-123983900D01*
X152266000Y-123991900D01*
X152274000Y-123999900D01*
X152283000Y-124007900D01*
X152293000Y-124014900D01*
X152302000Y-124021900D01*
X152313000Y-124027900D01*
X152323000Y-124032900D01*
X152333000Y-124038900D01*
X152344000Y-124042900D01*
X152355000Y-124046900D01*
X152367000Y-124049900D01*
X152378000Y-124052900D01*
X152390000Y-124054900D01*
X152401000Y-124056900D01*
X152413000Y-124057900D01*
X152425000Y-124057900D01*
X152437000Y-124057900D01*
X152449000Y-124056900D01*
X152460000Y-124054900D01*
X152472000Y-124052900D01*
X152483000Y-124049900D01*
X152495000Y-124046900D01*
X152506000Y-124042900D01*
X152517000Y-124038900D01*
X152527000Y-124032900D01*
X152538000Y-124027900D01*
X152548000Y-124021900D01*
X152557000Y-124014900D01*
X152567000Y-124007900D01*
X152576000Y-123999900D01*
X152584000Y-123991900D01*
X152592000Y-123983900D01*
X152600000Y-123974900D01*
X152607000Y-123964900D01*
X152614000Y-123955900D01*
X152620000Y-123945900D01*
X152625000Y-123934900D01*
X152631000Y-123924900D01*
X152635000Y-123913900D01*
X152639000Y-123902900D01*
X152642000Y-123890900D01*
X152645000Y-123879900D01*
X152647000Y-123867900D01*
X152649000Y-123856900D01*
X152650000Y-123844900D01*
X152650000Y-123832900D01*
X152650000Y-123432900D01*
X152950000Y-123432900D01*
X152950000Y-123832900D01*
X152949000Y-123859900D01*
X152947000Y-123887900D01*
X152944000Y-123914900D01*
X152939000Y-123941900D01*
X152932000Y-123968900D01*
X152924000Y-123994900D01*
X152915000Y-124020900D01*
X152905000Y-124046900D01*
X152893000Y-124070900D01*
X152880000Y-124095900D01*
X152865000Y-124118900D01*
X152850000Y-124141900D01*
X152833000Y-124162900D01*
X152815000Y-124183900D01*
X152796000Y-124203900D01*
X152776000Y-124222900D01*
X152755000Y-124240900D01*
X152734000Y-124257900D01*
X152711000Y-124272900D01*
X152687000Y-124287900D01*
X152663000Y-124300900D01*
X152639000Y-124312900D01*
X152613000Y-124322900D01*
X152587000Y-124331900D01*
X152561000Y-124339900D01*
X152534000Y-124346900D01*
X152507000Y-124351900D01*
X152480000Y-124354900D01*
X152452000Y-124356900D01*
X152425000Y-124357900D01*
X152398000Y-124356900D01*
X152370000Y-124354900D01*
X152343000Y-124351900D01*
X152316000Y-124346900D01*
X152289000Y-124339900D01*
X152263000Y-124331900D01*
X152237000Y-124322900D01*
X152211000Y-124312900D01*
X152187000Y-124300900D01*
X152163000Y-124287900D01*
X152139000Y-124272900D01*
X152116000Y-124257900D01*
X152095000Y-124240900D01*
X152074000Y-124222900D01*
X152054000Y-124203900D01*
X152035000Y-124183900D01*
X152017000Y-124162900D01*
X152000000Y-124141900D01*
X151985000Y-124118900D01*
X151970000Y-124094900D01*
X151957000Y-124070900D01*
X151945000Y-124046900D01*
X151935000Y-124020900D01*
X151926000Y-123994900D01*
X151918000Y-123968900D01*
X151911000Y-123941900D01*
X151906000Y-123914900D01*
X151903000Y-123887900D01*
X151901000Y-123859900D01*
X151900000Y-123832900D01*
X151900000Y-123432900D01*
X152200000Y-123432900D01*
X152200000Y-123832900D01*
G36*
X152200000Y-123832900D02*
G01*
X152200000Y-123844900D01*
X152201000Y-123856900D01*
X152203000Y-123867900D01*
X152205000Y-123879900D01*
X152208000Y-123890900D01*
X152211000Y-123902900D01*
X152215000Y-123913900D01*
X152219000Y-123924900D01*
X152225000Y-123934900D01*
X152230000Y-123944900D01*
X152236000Y-123955900D01*
X152243000Y-123964900D01*
X152250000Y-123974900D01*
X152258000Y-123983900D01*
X152266000Y-123991900D01*
X152274000Y-123999900D01*
X152283000Y-124007900D01*
X152293000Y-124014900D01*
X152302000Y-124021900D01*
X152313000Y-124027900D01*
X152323000Y-124032900D01*
X152333000Y-124038900D01*
X152344000Y-124042900D01*
X152355000Y-124046900D01*
X152367000Y-124049900D01*
X152378000Y-124052900D01*
X152390000Y-124054900D01*
X152401000Y-124056900D01*
X152413000Y-124057900D01*
X152425000Y-124057900D01*
X152437000Y-124057900D01*
X152449000Y-124056900D01*
X152460000Y-124054900D01*
X152472000Y-124052900D01*
X152483000Y-124049900D01*
X152495000Y-124046900D01*
X152506000Y-124042900D01*
X152517000Y-124038900D01*
X152527000Y-124032900D01*
X152538000Y-124027900D01*
X152548000Y-124021900D01*
X152557000Y-124014900D01*
X152567000Y-124007900D01*
X152576000Y-123999900D01*
X152584000Y-123991900D01*
X152592000Y-123983900D01*
X152600000Y-123974900D01*
X152607000Y-123964900D01*
X152614000Y-123955900D01*
X152620000Y-123945900D01*
X152625000Y-123934900D01*
X152631000Y-123924900D01*
X152635000Y-123913900D01*
X152639000Y-123902900D01*
X152642000Y-123890900D01*
X152645000Y-123879900D01*
X152647000Y-123867900D01*
X152649000Y-123856900D01*
X152650000Y-123844900D01*
X152650000Y-123832900D01*
X152650000Y-123432900D01*
X152950000Y-123432900D01*
X152950000Y-123832900D01*
X152949000Y-123859900D01*
X152947000Y-123887900D01*
X152944000Y-123914900D01*
X152939000Y-123941900D01*
X152932000Y-123968900D01*
X152924000Y-123994900D01*
X152915000Y-124020900D01*
X152905000Y-124046900D01*
X152893000Y-124070900D01*
X152880000Y-124095900D01*
X152865000Y-124118900D01*
X152850000Y-124141900D01*
X152833000Y-124162900D01*
X152815000Y-124183900D01*
X152796000Y-124203900D01*
X152776000Y-124222900D01*
X152755000Y-124240900D01*
X152734000Y-124257900D01*
X152711000Y-124272900D01*
X152687000Y-124287900D01*
X152663000Y-124300900D01*
X152639000Y-124312900D01*
X152613000Y-124322900D01*
X152587000Y-124331900D01*
X152561000Y-124339900D01*
X152534000Y-124346900D01*
X152507000Y-124351900D01*
X152480000Y-124354900D01*
X152452000Y-124356900D01*
X152425000Y-124357900D01*
X152398000Y-124356900D01*
X152370000Y-124354900D01*
X152343000Y-124351900D01*
X152316000Y-124346900D01*
X152289000Y-124339900D01*
X152263000Y-124331900D01*
X152237000Y-124322900D01*
X152211000Y-124312900D01*
X152187000Y-124300900D01*
X152163000Y-124287900D01*
X152139000Y-124272900D01*
X152116000Y-124257900D01*
X152095000Y-124240900D01*
X152074000Y-124222900D01*
X152054000Y-124203900D01*
X152035000Y-124183900D01*
X152017000Y-124162900D01*
X152000000Y-124141900D01*
X151985000Y-124118900D01*
X151970000Y-124094900D01*
X151957000Y-124070900D01*
X151945000Y-124046900D01*
X151935000Y-124020900D01*
X151926000Y-123994900D01*
X151918000Y-123968900D01*
X151911000Y-123941900D01*
X151906000Y-123914900D01*
X151903000Y-123887900D01*
X151901000Y-123859900D01*
X151900000Y-123832900D01*
X151900000Y-123432900D01*
X152200000Y-123432900D01*
X152200000Y-123832900D01*
G37*
%TD*%
D11*
%TO.C,C3*%
X145450000Y-91560000D03*
X145450000Y-89940000D03*
%TD*%
D12*
%TO.C,RP2*%
X147340000Y-99620000D03*
D13*
X146500000Y-99620000D03*
X145700000Y-99620000D03*
D12*
X144860000Y-99620000D03*
X144860000Y-97850000D03*
D13*
X145700000Y-97850000D03*
X146500000Y-97850000D03*
D12*
X147340000Y-97850000D03*
%TD*%
D14*
%TO.C,VR1*%
X149300000Y-88650000D03*
X151600000Y-88650000D03*
X153900000Y-88650000D03*
D15*
X151600000Y-94820000D03*
%TD*%
D16*
%TO.C,C9*%
X143900000Y-91700000D03*
X143900000Y-90300000D03*
%TD*%
D11*
%TO.C,C1*%
X154400000Y-117040000D03*
X154400000Y-118660000D03*
%TD*%
D17*
%TO.C,C5*%
X146370000Y-107740000D03*
X146370000Y-105940000D03*
%TD*%
D11*
%TO.C,C10*%
X151800000Y-107760000D03*
X151800000Y-106140000D03*
%TD*%
D18*
%TO.C,U2*%
X146200000Y-93750000D03*
D19*
X143850000Y-93750000D03*
%TD*%
D20*
%TO.C,F2*%
X154400000Y-124050000D03*
X154400000Y-122250000D03*
%TD*%
D21*
%TO.C,U3*%
X152350000Y-109925000D03*
X152350000Y-110575000D03*
X152350000Y-111225000D03*
X152350000Y-111875000D03*
X152350000Y-112525000D03*
X152350000Y-113175000D03*
X152350000Y-113825000D03*
X152350000Y-114475000D03*
X152350000Y-115125000D03*
X152350000Y-115775000D03*
X152350000Y-116425000D03*
X152350000Y-117075000D03*
X152350000Y-117725000D03*
X152350000Y-118375000D03*
X145150000Y-118375000D03*
X145150000Y-117725000D03*
X145150000Y-117075000D03*
X145150000Y-116425000D03*
X145150000Y-115775000D03*
X145150000Y-115125000D03*
X145150000Y-114475000D03*
X145150000Y-113825000D03*
X145150000Y-113175000D03*
X145150000Y-112525000D03*
X145150000Y-111875000D03*
X145150000Y-111225000D03*
X145150000Y-110575000D03*
X145150000Y-109925000D03*
%TD*%
D17*
%TO.C,C6*%
X148370000Y-107740000D03*
X148370000Y-105940000D03*
%TD*%
D22*
%TO.C,C11*%
X149460000Y-120950000D03*
X147840000Y-120950000D03*
%TD*%
%TO.C,C8*%
X149310000Y-123700000D03*
X147690000Y-123700000D03*
%TD*%
D11*
%TO.C,C7*%
X148800000Y-94590000D03*
X148800000Y-96210000D03*
%TD*%
D16*
%TO.C,C4*%
X148450000Y-103400000D03*
X148450000Y-102000000D03*
%TD*%
D11*
%TO.C,C2*%
X151500000Y-104510000D03*
X151500000Y-102890000D03*
%TD*%
D23*
%TO.C,RP1*%
X150160000Y-98702500D03*
D24*
X151000000Y-98702500D03*
X151800000Y-98702500D03*
D23*
X152640000Y-98702500D03*
X152640000Y-100472500D03*
D24*
X151800000Y-100472500D03*
X151000000Y-100472500D03*
D23*
X150160000Y-100472500D03*
%TD*%
M02*
