%TF.GenerationSoftware,KiCad,Pcbnew,8.0.2*%
%TF.CreationDate,2024-06-13T12:09:12+05:30*%
%TF.ProjectId,arduino nano,61726475-696e-46f2-906e-616e6f2e6b69,rev?*%
%TF.SameCoordinates,Original*%
%TF.FileFunction,Soldermask,Top*%
%TF.FilePolarity,Negative*%
%FSLAX46Y46*%
G04 Gerber Fmt 4.6, Leading zero omitted, Abs format (unit mm)*
G04 Created by KiCad (PCBNEW 8.0.2) date 2024-06-13 12:09:12*
%MOMM*%
%LPD*%
G01*
G04 APERTURE LIST*
G04 Aperture macros list*
%AMRoundRect*
0 Rectangle with rounded corners*
0 $1 Rounding radius*
0 $2 $3 $4 $5 $6 $7 $8 $9 X,Y pos of 4 corners*
0 Add a 4 corners polygon primitive as box body*
4,1,4,$2,$3,$4,$5,$6,$7,$8,$9,$2,$3,0*
0 Add four circle primitives for the rounded corners*
1,1,$1+$1,$2,$3*
1,1,$1+$1,$4,$5*
1,1,$1+$1,$6,$7*
1,1,$1+$1,$8,$9*
0 Add four rect primitives between the rounded corners*
20,1,$1+$1,$2,$3,$4,$5,0*
20,1,$1+$1,$4,$5,$6,$7,0*
20,1,$1+$1,$6,$7,$8,$9,0*
20,1,$1+$1,$8,$9,$2,$3,0*%
%AMRotRect*
0 Rectangle, with rotation*
0 The origin of the aperture is its center*
0 $1 length*
0 $2 width*
0 $3 Rotation angle, in degrees counterclockwise*
0 Add horizontal line*
21,1,$1,$2,0,0,$3*%
G04 Aperture macros list end*
%ADD10C,0.010000*%
%ADD11R,1.400000X0.900000*%
%ADD12RotRect,0.300000X1.600000X225.000000*%
%ADD13C,0.450000*%
%ADD14RoundRect,0.102000X-0.200000X-0.700000X0.200000X-0.700000X0.200000X0.700000X-0.200000X0.700000X0*%
%ADD15RoundRect,0.102000X-0.950000X-1.000000X0.950000X-1.000000X0.950000X1.000000X-0.950000X1.000000X0*%
%ADD16RoundRect,0.102000X-0.900000X-0.900000X0.900000X-0.900000X0.900000X0.900000X-0.900000X0.900000X0*%
%ADD17C,2.004000*%
%ADD18RoundRect,0.094250X-0.725138X0.325269X0.325269X-0.725138X0.725138X-0.325269X-0.325269X0.725138X0*%
%ADD19RoundRect,0.094250X-0.725138X-0.325269X-0.325269X-0.725138X0.725138X0.325269X0.325269X0.725138X0*%
%ADD20RoundRect,0.102000X-0.889000X0.889000X-0.889000X-0.889000X0.889000X-0.889000X0.889000X0.889000X0*%
%ADD21C,1.982000*%
%ADD22RoundRect,0.102000X0.400000X-0.850000X0.400000X0.850000X-0.400000X0.850000X-0.400000X-0.850000X0*%
G04 APERTURE END LIST*
D10*
%TO.C,J1*%
X146000000Y-124584500D02*
X144544020Y-124584500D01*
X144544020Y-122282900D01*
X146000000Y-122282900D01*
X146000000Y-124584500D01*
G36*
X146000000Y-124584500D02*
G01*
X144544020Y-124584500D01*
X144544020Y-122282900D01*
X146000000Y-122282900D01*
X146000000Y-124584500D01*
G37*
X153150000Y-124584940D02*
X151705050Y-124584940D01*
X151705050Y-122282900D01*
X153150000Y-122282900D01*
X153150000Y-124584940D01*
G36*
X153150000Y-124584940D02*
G01*
X151705050Y-124584940D01*
X151705050Y-122282900D01*
X153150000Y-122282900D01*
X153150000Y-124584940D01*
G37*
%TD*%
D11*
%TO.C,LD2*%
X150100000Y-91500000D03*
X150100000Y-93400000D03*
%TD*%
D12*
%TO.C,Y1*%
X144178249Y-102621751D03*
X144850000Y-101950000D03*
X145521751Y-101278249D03*
%TD*%
D11*
%TO.C,LD3(RX)1*%
X144350000Y-93550000D03*
X144350000Y-91650000D03*
%TD*%
%TO.C,LD1*%
X152450000Y-91450000D03*
X152450000Y-93350000D03*
%TD*%
D13*
%TO.C,J1*%
X145275000Y-123432900D03*
X152425000Y-123432900D03*
D14*
X147550000Y-120882900D03*
X148200000Y-120882900D03*
X148850000Y-120882900D03*
X149500000Y-120882900D03*
X150150000Y-120882900D03*
D15*
X147650000Y-123432900D03*
X150050000Y-123432900D03*
%TD*%
D16*
%TO.C,J2*%
X141500000Y-85400000D03*
D17*
X141500000Y-87940000D03*
X141500000Y-90480000D03*
X141500000Y-93020000D03*
X141500000Y-95560000D03*
X141500000Y-98100000D03*
X141500000Y-100640000D03*
X141500000Y-103180000D03*
X141500000Y-105720000D03*
X141500000Y-108260000D03*
X141500000Y-110800000D03*
X141500000Y-113340000D03*
X141500000Y-115880000D03*
X141500000Y-118420000D03*
X141500000Y-120960000D03*
%TD*%
D18*
%TO.C,U1*%
X148181264Y-104671466D03*
X147615578Y-105237151D03*
X147049893Y-105802837D03*
X146484207Y-106368522D03*
X145918522Y-106934207D03*
X145352837Y-107499893D03*
X144787151Y-108065578D03*
X144221466Y-108631264D03*
D19*
X144221466Y-110568736D03*
X144787151Y-111134422D03*
X145352837Y-111700107D03*
X145918522Y-112265793D03*
X146484207Y-112831478D03*
X147049893Y-113397163D03*
X147615578Y-113962849D03*
X148181264Y-114528534D03*
D18*
X150118736Y-114528534D03*
X150684422Y-113962849D03*
X151250107Y-113397163D03*
X151815793Y-112831478D03*
X152381478Y-112265793D03*
X152947163Y-111700107D03*
X153512849Y-111134422D03*
X154078534Y-110568736D03*
D19*
X154078534Y-108631264D03*
X153512849Y-108065578D03*
X152947163Y-107499893D03*
X152381478Y-106934207D03*
X151815793Y-106368522D03*
X151250107Y-105802837D03*
X150684422Y-105237151D03*
X150118736Y-104671466D03*
%TD*%
D20*
%TO.C,X1*%
X151371750Y-83298250D03*
D21*
X151371750Y-85838250D03*
X148831750Y-83298250D03*
X148831750Y-85838250D03*
X146291750Y-83298250D03*
X146291750Y-85838250D03*
%TD*%
D22*
%TO.C,S1*%
X146600000Y-97850000D03*
X150000000Y-97850000D03*
%TD*%
D11*
%TO.C,LD4(TX)1*%
X146650000Y-93400000D03*
X146650000Y-91500000D03*
%TD*%
D16*
%TO.C,J3*%
X156200000Y-85400000D03*
D17*
X156200000Y-87940000D03*
X156200000Y-90480000D03*
X156200000Y-93020000D03*
X156200000Y-95560000D03*
X156200000Y-98100000D03*
X156200000Y-100640000D03*
X156200000Y-103180000D03*
X156200000Y-105720000D03*
X156200000Y-108260000D03*
X156200000Y-110800000D03*
X156200000Y-113340000D03*
X156200000Y-115880000D03*
X156200000Y-118420000D03*
X156200000Y-120960000D03*
%TD*%
M02*
