%TF.GenerationSoftware,KiCad,Pcbnew,8.0.2*%
%TF.CreationDate,2024-06-13T12:09:12+05:30*%
%TF.ProjectId,arduino nano,61726475-696e-46f2-906e-616e6f2e6b69,rev?*%
%TF.SameCoordinates,Original*%
%TF.FileFunction,Copper,L2,Bot*%
%TF.FilePolarity,Positive*%
%FSLAX46Y46*%
G04 Gerber Fmt 4.6, Leading zero omitted, Abs format (unit mm)*
G04 Created by KiCad (PCBNEW 8.0.2) date 2024-06-13 12:09:12*
%MOMM*%
%LPD*%
G01*
G04 APERTURE LIST*
G04 Aperture macros list*
%AMRoundRect*
0 Rectangle with rounded corners*
0 $1 Rounding radius*
0 $2 $3 $4 $5 $6 $7 $8 $9 X,Y pos of 4 corners*
0 Add a 4 corners polygon primitive as box body*
4,1,4,$2,$3,$4,$5,$6,$7,$8,$9,$2,$3,0*
0 Add four circle primitives for the rounded corners*
1,1,$1+$1,$2,$3*
1,1,$1+$1,$4,$5*
1,1,$1+$1,$6,$7*
1,1,$1+$1,$8,$9*
0 Add four rect primitives between the rounded corners*
20,1,$1+$1,$2,$3,$4,$5,0*
20,1,$1+$1,$4,$5,$6,$7,0*
20,1,$1+$1,$6,$7,$8,$9,0*
20,1,$1+$1,$8,$9,$2,$3,0*%
G04 Aperture macros list end*
%TA.AperFunction,EtchedComponent*%
%ADD10C,0.001000*%
%TD*%
%TA.AperFunction,ComponentPad*%
%ADD11R,1.800000X1.800000*%
%TD*%
%TA.AperFunction,ComponentPad*%
%ADD12C,1.800000*%
%TD*%
%TA.AperFunction,ComponentPad*%
%ADD13R,1.778000X1.778000*%
%TD*%
%TA.AperFunction,ComponentPad*%
%ADD14C,1.778000*%
%TD*%
%TA.AperFunction,SMDPad,CuDef*%
%ADD15R,1.470000X1.020000*%
%TD*%
%TA.AperFunction,SMDPad,CuDef*%
%ADD16RoundRect,0.152500X0.152500X-0.297500X0.152500X0.297500X-0.152500X0.297500X-0.152500X-0.297500X0*%
%TD*%
%TA.AperFunction,SMDPad,CuDef*%
%ADD17RoundRect,0.132500X0.132500X-0.317500X0.132500X0.317500X-0.132500X0.317500X-0.132500X-0.317500X0*%
%TD*%
%TA.AperFunction,SMDPad,CuDef*%
%ADD18RoundRect,0.116250X-0.348750X0.803750X-0.348750X-0.803750X0.348750X-0.803750X0.348750X0.803750X0*%
%TD*%
%TA.AperFunction,SMDPad,CuDef*%
%ADD19RoundRect,0.230000X-1.365000X0.690000X-1.365000X-0.690000X1.365000X-0.690000X1.365000X0.690000X0*%
%TD*%
%TA.AperFunction,SMDPad,CuDef*%
%ADD20R,0.940000X0.750000*%
%TD*%
%TA.AperFunction,SMDPad,CuDef*%
%ADD21R,1.450000X1.150000*%
%TD*%
%TA.AperFunction,SMDPad,CuDef*%
%ADD22R,2.667000X2.540000*%
%TD*%
%TA.AperFunction,SMDPad,CuDef*%
%ADD23R,0.762000X1.270000*%
%TD*%
%TA.AperFunction,SMDPad,CuDef*%
%ADD24R,1.070000X0.770000*%
%TD*%
%TA.AperFunction,SMDPad,CuDef*%
%ADD25R,1.750000X0.450000*%
%TD*%
%TA.AperFunction,SMDPad,CuDef*%
%ADD26R,1.020000X1.470000*%
%TD*%
%TA.AperFunction,SMDPad,CuDef*%
%ADD27RoundRect,0.152500X-0.152500X0.297500X-0.152500X-0.297500X0.152500X-0.297500X0.152500X0.297500X0*%
%TD*%
%TA.AperFunction,SMDPad,CuDef*%
%ADD28RoundRect,0.132500X-0.132500X0.317500X-0.132500X-0.317500X0.132500X-0.317500X0.132500X0.317500X0*%
%TD*%
%TA.AperFunction,ViaPad*%
%ADD29C,0.600000*%
%TD*%
%TA.AperFunction,Conductor*%
%ADD30C,0.200000*%
%TD*%
%TA.AperFunction,Conductor*%
%ADD31C,0.500000*%
%TD*%
%TA.AperFunction,Conductor*%
%ADD32C,0.300000*%
%TD*%
%TA.AperFunction,Conductor*%
%ADD33C,0.400000*%
%TD*%
G04 APERTURE END LIST*
D10*
%TO.C,J1*%
X145302000Y-122508900D02*
X145330000Y-122510900D01*
X145357000Y-122513900D01*
X145384000Y-122518900D01*
X145411000Y-122525900D01*
X145437000Y-122533900D01*
X145463000Y-122542900D01*
X145489000Y-122552900D01*
X145513000Y-122564900D01*
X145537000Y-122577900D01*
X145561000Y-122592900D01*
X145584000Y-122607900D01*
X145605000Y-122624900D01*
X145626000Y-122642900D01*
X145646000Y-122661900D01*
X145665000Y-122681900D01*
X145683000Y-122702900D01*
X145700000Y-122723900D01*
X145715000Y-122746900D01*
X145730000Y-122770900D01*
X145743000Y-122794900D01*
X145755000Y-122818900D01*
X145765000Y-122844900D01*
X145774000Y-122870900D01*
X145782000Y-122896900D01*
X145789000Y-122923900D01*
X145794000Y-122950900D01*
X145797000Y-122977900D01*
X145799000Y-123005900D01*
X145800000Y-123032900D01*
X145800000Y-123432900D01*
X145500000Y-123432900D01*
X145500000Y-123032900D01*
X145500000Y-123020900D01*
X145499000Y-123008900D01*
X145497000Y-122997900D01*
X145495000Y-122985900D01*
X145492000Y-122974900D01*
X145489000Y-122962900D01*
X145485000Y-122951900D01*
X145481000Y-122940900D01*
X145475000Y-122930900D01*
X145470000Y-122920900D01*
X145464000Y-122909900D01*
X145457000Y-122900900D01*
X145450000Y-122890900D01*
X145442000Y-122881900D01*
X145434000Y-122873900D01*
X145426000Y-122865900D01*
X145417000Y-122857900D01*
X145407000Y-122850900D01*
X145398000Y-122843900D01*
X145387000Y-122837900D01*
X145377000Y-122832900D01*
X145367000Y-122826900D01*
X145356000Y-122822900D01*
X145345000Y-122818900D01*
X145333000Y-122815900D01*
X145322000Y-122812900D01*
X145310000Y-122810900D01*
X145299000Y-122808900D01*
X145287000Y-122807900D01*
X145275000Y-122807900D01*
X145263000Y-122807900D01*
X145251000Y-122808900D01*
X145240000Y-122810900D01*
X145228000Y-122812900D01*
X145217000Y-122815900D01*
X145205000Y-122818900D01*
X145194000Y-122822900D01*
X145183000Y-122826900D01*
X145173000Y-122832900D01*
X145162000Y-122837900D01*
X145152000Y-122843900D01*
X145143000Y-122850900D01*
X145133000Y-122857900D01*
X145124000Y-122865900D01*
X145116000Y-122873900D01*
X145108000Y-122881900D01*
X145100000Y-122890900D01*
X145093000Y-122900900D01*
X145086000Y-122909900D01*
X145080000Y-122919900D01*
X145075000Y-122930900D01*
X145069000Y-122940900D01*
X145065000Y-122951900D01*
X145061000Y-122962900D01*
X145058000Y-122974900D01*
X145055000Y-122985900D01*
X145053000Y-122997900D01*
X145051000Y-123008900D01*
X145050000Y-123020900D01*
X145050000Y-123032900D01*
X145050000Y-123432900D01*
X144750000Y-123432900D01*
X144750000Y-123032900D01*
X144751000Y-123005900D01*
X144753000Y-122977900D01*
X144756000Y-122950900D01*
X144761000Y-122923900D01*
X144768000Y-122896900D01*
X144776000Y-122870900D01*
X144785000Y-122844900D01*
X144795000Y-122818900D01*
X144807000Y-122794900D01*
X144820000Y-122769900D01*
X144835000Y-122746900D01*
X144850000Y-122723900D01*
X144867000Y-122702900D01*
X144885000Y-122681900D01*
X144904000Y-122661900D01*
X144924000Y-122642900D01*
X144945000Y-122624900D01*
X144966000Y-122607900D01*
X144989000Y-122592900D01*
X145013000Y-122577900D01*
X145037000Y-122564900D01*
X145061000Y-122552900D01*
X145087000Y-122542900D01*
X145113000Y-122533900D01*
X145139000Y-122525900D01*
X145166000Y-122518900D01*
X145193000Y-122513900D01*
X145220000Y-122510900D01*
X145248000Y-122508900D01*
X145275000Y-122507900D01*
X145302000Y-122508900D01*
%TA.AperFunction,EtchedComponent*%
G36*
X145302000Y-122508900D02*
G01*
X145330000Y-122510900D01*
X145357000Y-122513900D01*
X145384000Y-122518900D01*
X145411000Y-122525900D01*
X145437000Y-122533900D01*
X145463000Y-122542900D01*
X145489000Y-122552900D01*
X145513000Y-122564900D01*
X145537000Y-122577900D01*
X145561000Y-122592900D01*
X145584000Y-122607900D01*
X145605000Y-122624900D01*
X145626000Y-122642900D01*
X145646000Y-122661900D01*
X145665000Y-122681900D01*
X145683000Y-122702900D01*
X145700000Y-122723900D01*
X145715000Y-122746900D01*
X145730000Y-122770900D01*
X145743000Y-122794900D01*
X145755000Y-122818900D01*
X145765000Y-122844900D01*
X145774000Y-122870900D01*
X145782000Y-122896900D01*
X145789000Y-122923900D01*
X145794000Y-122950900D01*
X145797000Y-122977900D01*
X145799000Y-123005900D01*
X145800000Y-123032900D01*
X145800000Y-123432900D01*
X145500000Y-123432900D01*
X145500000Y-123032900D01*
X145500000Y-123020900D01*
X145499000Y-123008900D01*
X145497000Y-122997900D01*
X145495000Y-122985900D01*
X145492000Y-122974900D01*
X145489000Y-122962900D01*
X145485000Y-122951900D01*
X145481000Y-122940900D01*
X145475000Y-122930900D01*
X145470000Y-122920900D01*
X145464000Y-122909900D01*
X145457000Y-122900900D01*
X145450000Y-122890900D01*
X145442000Y-122881900D01*
X145434000Y-122873900D01*
X145426000Y-122865900D01*
X145417000Y-122857900D01*
X145407000Y-122850900D01*
X145398000Y-122843900D01*
X145387000Y-122837900D01*
X145377000Y-122832900D01*
X145367000Y-122826900D01*
X145356000Y-122822900D01*
X145345000Y-122818900D01*
X145333000Y-122815900D01*
X145322000Y-122812900D01*
X145310000Y-122810900D01*
X145299000Y-122808900D01*
X145287000Y-122807900D01*
X145275000Y-122807900D01*
X145263000Y-122807900D01*
X145251000Y-122808900D01*
X145240000Y-122810900D01*
X145228000Y-122812900D01*
X145217000Y-122815900D01*
X145205000Y-122818900D01*
X145194000Y-122822900D01*
X145183000Y-122826900D01*
X145173000Y-122832900D01*
X145162000Y-122837900D01*
X145152000Y-122843900D01*
X145143000Y-122850900D01*
X145133000Y-122857900D01*
X145124000Y-122865900D01*
X145116000Y-122873900D01*
X145108000Y-122881900D01*
X145100000Y-122890900D01*
X145093000Y-122900900D01*
X145086000Y-122909900D01*
X145080000Y-122919900D01*
X145075000Y-122930900D01*
X145069000Y-122940900D01*
X145065000Y-122951900D01*
X145061000Y-122962900D01*
X145058000Y-122974900D01*
X145055000Y-122985900D01*
X145053000Y-122997900D01*
X145051000Y-123008900D01*
X145050000Y-123020900D01*
X145050000Y-123032900D01*
X145050000Y-123432900D01*
X144750000Y-123432900D01*
X144750000Y-123032900D01*
X144751000Y-123005900D01*
X144753000Y-122977900D01*
X144756000Y-122950900D01*
X144761000Y-122923900D01*
X144768000Y-122896900D01*
X144776000Y-122870900D01*
X144785000Y-122844900D01*
X144795000Y-122818900D01*
X144807000Y-122794900D01*
X144820000Y-122769900D01*
X144835000Y-122746900D01*
X144850000Y-122723900D01*
X144867000Y-122702900D01*
X144885000Y-122681900D01*
X144904000Y-122661900D01*
X144924000Y-122642900D01*
X144945000Y-122624900D01*
X144966000Y-122607900D01*
X144989000Y-122592900D01*
X145013000Y-122577900D01*
X145037000Y-122564900D01*
X145061000Y-122552900D01*
X145087000Y-122542900D01*
X145113000Y-122533900D01*
X145139000Y-122525900D01*
X145166000Y-122518900D01*
X145193000Y-122513900D01*
X145220000Y-122510900D01*
X145248000Y-122508900D01*
X145275000Y-122507900D01*
X145302000Y-122508900D01*
G37*
%TD.AperFunction*%
X145050000Y-123832900D02*
X145050000Y-123844900D01*
X145051000Y-123856900D01*
X145053000Y-123867900D01*
X145055000Y-123879900D01*
X145058000Y-123890900D01*
X145061000Y-123902900D01*
X145065000Y-123913900D01*
X145069000Y-123924900D01*
X145075000Y-123934900D01*
X145080000Y-123945900D01*
X145086000Y-123955900D01*
X145093000Y-123964900D01*
X145100000Y-123974900D01*
X145108000Y-123983900D01*
X145116000Y-123991900D01*
X145124000Y-123999900D01*
X145133000Y-124007900D01*
X145143000Y-124014900D01*
X145152000Y-124021900D01*
X145162000Y-124027900D01*
X145173000Y-124032900D01*
X145183000Y-124038900D01*
X145194000Y-124042900D01*
X145205000Y-124046900D01*
X145217000Y-124049900D01*
X145228000Y-124052900D01*
X145240000Y-124054900D01*
X145251000Y-124056900D01*
X145263000Y-124057900D01*
X145275000Y-124057900D01*
X145287000Y-124057900D01*
X145299000Y-124056900D01*
X145310000Y-124054900D01*
X145322000Y-124052900D01*
X145333000Y-124049900D01*
X145345000Y-124046900D01*
X145356000Y-124042900D01*
X145367000Y-124038900D01*
X145377000Y-124032900D01*
X145387000Y-124027900D01*
X145398000Y-124021900D01*
X145407000Y-124014900D01*
X145417000Y-124007900D01*
X145426000Y-123999900D01*
X145434000Y-123991900D01*
X145442000Y-123983900D01*
X145450000Y-123974900D01*
X145457000Y-123964900D01*
X145464000Y-123955900D01*
X145470000Y-123944900D01*
X145475000Y-123934900D01*
X145481000Y-123924900D01*
X145485000Y-123913900D01*
X145489000Y-123902900D01*
X145492000Y-123890900D01*
X145495000Y-123879900D01*
X145497000Y-123867900D01*
X145499000Y-123856900D01*
X145500000Y-123844900D01*
X145500000Y-123832900D01*
X145500000Y-123432900D01*
X145800000Y-123432900D01*
X145800000Y-123832900D01*
X145799000Y-123859900D01*
X145797000Y-123887900D01*
X145794000Y-123914900D01*
X145789000Y-123941900D01*
X145782000Y-123968900D01*
X145774000Y-123994900D01*
X145765000Y-124020900D01*
X145755000Y-124046900D01*
X145743000Y-124070900D01*
X145730000Y-124094900D01*
X145715000Y-124118900D01*
X145700000Y-124141900D01*
X145683000Y-124162900D01*
X145665000Y-124183900D01*
X145646000Y-124203900D01*
X145626000Y-124222900D01*
X145605000Y-124240900D01*
X145584000Y-124257900D01*
X145561000Y-124272900D01*
X145537000Y-124287900D01*
X145513000Y-124300900D01*
X145489000Y-124312900D01*
X145463000Y-124322900D01*
X145437000Y-124331900D01*
X145411000Y-124339900D01*
X145384000Y-124346900D01*
X145357000Y-124351900D01*
X145330000Y-124354900D01*
X145302000Y-124356900D01*
X145275000Y-124357900D01*
X145248000Y-124356900D01*
X145220000Y-124354900D01*
X145193000Y-124351900D01*
X145166000Y-124346900D01*
X145139000Y-124339900D01*
X145113000Y-124331900D01*
X145087000Y-124322900D01*
X145061000Y-124312900D01*
X145037000Y-124300900D01*
X145013000Y-124287900D01*
X144989000Y-124272900D01*
X144966000Y-124257900D01*
X144945000Y-124240900D01*
X144924000Y-124222900D01*
X144904000Y-124203900D01*
X144885000Y-124183900D01*
X144867000Y-124162900D01*
X144850000Y-124141900D01*
X144835000Y-124118900D01*
X144820000Y-124095900D01*
X144807000Y-124070900D01*
X144795000Y-124046900D01*
X144785000Y-124020900D01*
X144776000Y-123994900D01*
X144768000Y-123968900D01*
X144761000Y-123941900D01*
X144756000Y-123914900D01*
X144753000Y-123887900D01*
X144751000Y-123859900D01*
X144750000Y-123832900D01*
X144750000Y-123432900D01*
X145050000Y-123432900D01*
X145050000Y-123832900D01*
%TA.AperFunction,EtchedComponent*%
G36*
X145050000Y-123832900D02*
G01*
X145050000Y-123844900D01*
X145051000Y-123856900D01*
X145053000Y-123867900D01*
X145055000Y-123879900D01*
X145058000Y-123890900D01*
X145061000Y-123902900D01*
X145065000Y-123913900D01*
X145069000Y-123924900D01*
X145075000Y-123934900D01*
X145080000Y-123945900D01*
X145086000Y-123955900D01*
X145093000Y-123964900D01*
X145100000Y-123974900D01*
X145108000Y-123983900D01*
X145116000Y-123991900D01*
X145124000Y-123999900D01*
X145133000Y-124007900D01*
X145143000Y-124014900D01*
X145152000Y-124021900D01*
X145162000Y-124027900D01*
X145173000Y-124032900D01*
X145183000Y-124038900D01*
X145194000Y-124042900D01*
X145205000Y-124046900D01*
X145217000Y-124049900D01*
X145228000Y-124052900D01*
X145240000Y-124054900D01*
X145251000Y-124056900D01*
X145263000Y-124057900D01*
X145275000Y-124057900D01*
X145287000Y-124057900D01*
X145299000Y-124056900D01*
X145310000Y-124054900D01*
X145322000Y-124052900D01*
X145333000Y-124049900D01*
X145345000Y-124046900D01*
X145356000Y-124042900D01*
X145367000Y-124038900D01*
X145377000Y-124032900D01*
X145387000Y-124027900D01*
X145398000Y-124021900D01*
X145407000Y-124014900D01*
X145417000Y-124007900D01*
X145426000Y-123999900D01*
X145434000Y-123991900D01*
X145442000Y-123983900D01*
X145450000Y-123974900D01*
X145457000Y-123964900D01*
X145464000Y-123955900D01*
X145470000Y-123944900D01*
X145475000Y-123934900D01*
X145481000Y-123924900D01*
X145485000Y-123913900D01*
X145489000Y-123902900D01*
X145492000Y-123890900D01*
X145495000Y-123879900D01*
X145497000Y-123867900D01*
X145499000Y-123856900D01*
X145500000Y-123844900D01*
X145500000Y-123832900D01*
X145500000Y-123432900D01*
X145800000Y-123432900D01*
X145800000Y-123832900D01*
X145799000Y-123859900D01*
X145797000Y-123887900D01*
X145794000Y-123914900D01*
X145789000Y-123941900D01*
X145782000Y-123968900D01*
X145774000Y-123994900D01*
X145765000Y-124020900D01*
X145755000Y-124046900D01*
X145743000Y-124070900D01*
X145730000Y-124094900D01*
X145715000Y-124118900D01*
X145700000Y-124141900D01*
X145683000Y-124162900D01*
X145665000Y-124183900D01*
X145646000Y-124203900D01*
X145626000Y-124222900D01*
X145605000Y-124240900D01*
X145584000Y-124257900D01*
X145561000Y-124272900D01*
X145537000Y-124287900D01*
X145513000Y-124300900D01*
X145489000Y-124312900D01*
X145463000Y-124322900D01*
X145437000Y-124331900D01*
X145411000Y-124339900D01*
X145384000Y-124346900D01*
X145357000Y-124351900D01*
X145330000Y-124354900D01*
X145302000Y-124356900D01*
X145275000Y-124357900D01*
X145248000Y-124356900D01*
X145220000Y-124354900D01*
X145193000Y-124351900D01*
X145166000Y-124346900D01*
X145139000Y-124339900D01*
X145113000Y-124331900D01*
X145087000Y-124322900D01*
X145061000Y-124312900D01*
X145037000Y-124300900D01*
X145013000Y-124287900D01*
X144989000Y-124272900D01*
X144966000Y-124257900D01*
X144945000Y-124240900D01*
X144924000Y-124222900D01*
X144904000Y-124203900D01*
X144885000Y-124183900D01*
X144867000Y-124162900D01*
X144850000Y-124141900D01*
X144835000Y-124118900D01*
X144820000Y-124095900D01*
X144807000Y-124070900D01*
X144795000Y-124046900D01*
X144785000Y-124020900D01*
X144776000Y-123994900D01*
X144768000Y-123968900D01*
X144761000Y-123941900D01*
X144756000Y-123914900D01*
X144753000Y-123887900D01*
X144751000Y-123859900D01*
X144750000Y-123832900D01*
X144750000Y-123432900D01*
X145050000Y-123432900D01*
X145050000Y-123832900D01*
G37*
%TD.AperFunction*%
X152452000Y-122508900D02*
X152480000Y-122510900D01*
X152507000Y-122513900D01*
X152534000Y-122518900D01*
X152561000Y-122525900D01*
X152587000Y-122533900D01*
X152613000Y-122542900D01*
X152639000Y-122552900D01*
X152663000Y-122564900D01*
X152687000Y-122577900D01*
X152711000Y-122592900D01*
X152734000Y-122607900D01*
X152755000Y-122624900D01*
X152776000Y-122642900D01*
X152796000Y-122661900D01*
X152815000Y-122681900D01*
X152833000Y-122702900D01*
X152850000Y-122723900D01*
X152865000Y-122746900D01*
X152880000Y-122769900D01*
X152893000Y-122794900D01*
X152905000Y-122818900D01*
X152915000Y-122844900D01*
X152924000Y-122870900D01*
X152932000Y-122896900D01*
X152939000Y-122923900D01*
X152944000Y-122950900D01*
X152947000Y-122977900D01*
X152949000Y-123005900D01*
X152950000Y-123032900D01*
X152950000Y-123432900D01*
X152650000Y-123432900D01*
X152650000Y-123032900D01*
X152650000Y-123020900D01*
X152649000Y-123008900D01*
X152647000Y-122997900D01*
X152645000Y-122985900D01*
X152642000Y-122974900D01*
X152639000Y-122962900D01*
X152635000Y-122951900D01*
X152631000Y-122940900D01*
X152625000Y-122930900D01*
X152620000Y-122919900D01*
X152614000Y-122909900D01*
X152607000Y-122900900D01*
X152600000Y-122890900D01*
X152592000Y-122881900D01*
X152584000Y-122873900D01*
X152576000Y-122865900D01*
X152567000Y-122857900D01*
X152557000Y-122850900D01*
X152548000Y-122843900D01*
X152538000Y-122837900D01*
X152527000Y-122832900D01*
X152517000Y-122826900D01*
X152506000Y-122822900D01*
X152495000Y-122818900D01*
X152483000Y-122815900D01*
X152472000Y-122812900D01*
X152460000Y-122810900D01*
X152449000Y-122808900D01*
X152437000Y-122807900D01*
X152425000Y-122807900D01*
X152413000Y-122807900D01*
X152401000Y-122808900D01*
X152390000Y-122810900D01*
X152378000Y-122812900D01*
X152367000Y-122815900D01*
X152355000Y-122818900D01*
X152344000Y-122822900D01*
X152333000Y-122826900D01*
X152323000Y-122832900D01*
X152313000Y-122837900D01*
X152302000Y-122843900D01*
X152293000Y-122850900D01*
X152283000Y-122857900D01*
X152274000Y-122865900D01*
X152266000Y-122873900D01*
X152258000Y-122881900D01*
X152250000Y-122890900D01*
X152243000Y-122900900D01*
X152236000Y-122909900D01*
X152230000Y-122920900D01*
X152225000Y-122930900D01*
X152219000Y-122940900D01*
X152215000Y-122951900D01*
X152211000Y-122962900D01*
X152208000Y-122974900D01*
X152205000Y-122985900D01*
X152203000Y-122997900D01*
X152201000Y-123008900D01*
X152200000Y-123020900D01*
X152200000Y-123032900D01*
X152200000Y-123432900D01*
X151900000Y-123432900D01*
X151900000Y-123032900D01*
X151901000Y-123005900D01*
X151903000Y-122977900D01*
X151906000Y-122950900D01*
X151911000Y-122923900D01*
X151918000Y-122896900D01*
X151926000Y-122870900D01*
X151935000Y-122844900D01*
X151945000Y-122818900D01*
X151957000Y-122794900D01*
X151970000Y-122770900D01*
X151985000Y-122746900D01*
X152000000Y-122723900D01*
X152017000Y-122702900D01*
X152035000Y-122681900D01*
X152054000Y-122661900D01*
X152074000Y-122642900D01*
X152095000Y-122624900D01*
X152116000Y-122607900D01*
X152139000Y-122592900D01*
X152163000Y-122577900D01*
X152187000Y-122564900D01*
X152211000Y-122552900D01*
X152237000Y-122542900D01*
X152263000Y-122533900D01*
X152289000Y-122525900D01*
X152316000Y-122518900D01*
X152343000Y-122513900D01*
X152370000Y-122510900D01*
X152398000Y-122508900D01*
X152425000Y-122507900D01*
X152452000Y-122508900D01*
%TA.AperFunction,EtchedComponent*%
G36*
X152452000Y-122508900D02*
G01*
X152480000Y-122510900D01*
X152507000Y-122513900D01*
X152534000Y-122518900D01*
X152561000Y-122525900D01*
X152587000Y-122533900D01*
X152613000Y-122542900D01*
X152639000Y-122552900D01*
X152663000Y-122564900D01*
X152687000Y-122577900D01*
X152711000Y-122592900D01*
X152734000Y-122607900D01*
X152755000Y-122624900D01*
X152776000Y-122642900D01*
X152796000Y-122661900D01*
X152815000Y-122681900D01*
X152833000Y-122702900D01*
X152850000Y-122723900D01*
X152865000Y-122746900D01*
X152880000Y-122769900D01*
X152893000Y-122794900D01*
X152905000Y-122818900D01*
X152915000Y-122844900D01*
X152924000Y-122870900D01*
X152932000Y-122896900D01*
X152939000Y-122923900D01*
X152944000Y-122950900D01*
X152947000Y-122977900D01*
X152949000Y-123005900D01*
X152950000Y-123032900D01*
X152950000Y-123432900D01*
X152650000Y-123432900D01*
X152650000Y-123032900D01*
X152650000Y-123020900D01*
X152649000Y-123008900D01*
X152647000Y-122997900D01*
X152645000Y-122985900D01*
X152642000Y-122974900D01*
X152639000Y-122962900D01*
X152635000Y-122951900D01*
X152631000Y-122940900D01*
X152625000Y-122930900D01*
X152620000Y-122919900D01*
X152614000Y-122909900D01*
X152607000Y-122900900D01*
X152600000Y-122890900D01*
X152592000Y-122881900D01*
X152584000Y-122873900D01*
X152576000Y-122865900D01*
X152567000Y-122857900D01*
X152557000Y-122850900D01*
X152548000Y-122843900D01*
X152538000Y-122837900D01*
X152527000Y-122832900D01*
X152517000Y-122826900D01*
X152506000Y-122822900D01*
X152495000Y-122818900D01*
X152483000Y-122815900D01*
X152472000Y-122812900D01*
X152460000Y-122810900D01*
X152449000Y-122808900D01*
X152437000Y-122807900D01*
X152425000Y-122807900D01*
X152413000Y-122807900D01*
X152401000Y-122808900D01*
X152390000Y-122810900D01*
X152378000Y-122812900D01*
X152367000Y-122815900D01*
X152355000Y-122818900D01*
X152344000Y-122822900D01*
X152333000Y-122826900D01*
X152323000Y-122832900D01*
X152313000Y-122837900D01*
X152302000Y-122843900D01*
X152293000Y-122850900D01*
X152283000Y-122857900D01*
X152274000Y-122865900D01*
X152266000Y-122873900D01*
X152258000Y-122881900D01*
X152250000Y-122890900D01*
X152243000Y-122900900D01*
X152236000Y-122909900D01*
X152230000Y-122920900D01*
X152225000Y-122930900D01*
X152219000Y-122940900D01*
X152215000Y-122951900D01*
X152211000Y-122962900D01*
X152208000Y-122974900D01*
X152205000Y-122985900D01*
X152203000Y-122997900D01*
X152201000Y-123008900D01*
X152200000Y-123020900D01*
X152200000Y-123032900D01*
X152200000Y-123432900D01*
X151900000Y-123432900D01*
X151900000Y-123032900D01*
X151901000Y-123005900D01*
X151903000Y-122977900D01*
X151906000Y-122950900D01*
X151911000Y-122923900D01*
X151918000Y-122896900D01*
X151926000Y-122870900D01*
X151935000Y-122844900D01*
X151945000Y-122818900D01*
X151957000Y-122794900D01*
X151970000Y-122770900D01*
X151985000Y-122746900D01*
X152000000Y-122723900D01*
X152017000Y-122702900D01*
X152035000Y-122681900D01*
X152054000Y-122661900D01*
X152074000Y-122642900D01*
X152095000Y-122624900D01*
X152116000Y-122607900D01*
X152139000Y-122592900D01*
X152163000Y-122577900D01*
X152187000Y-122564900D01*
X152211000Y-122552900D01*
X152237000Y-122542900D01*
X152263000Y-122533900D01*
X152289000Y-122525900D01*
X152316000Y-122518900D01*
X152343000Y-122513900D01*
X152370000Y-122510900D01*
X152398000Y-122508900D01*
X152425000Y-122507900D01*
X152452000Y-122508900D01*
G37*
%TD.AperFunction*%
X152200000Y-123832900D02*
X152200000Y-123844900D01*
X152201000Y-123856900D01*
X152203000Y-123867900D01*
X152205000Y-123879900D01*
X152208000Y-123890900D01*
X152211000Y-123902900D01*
X152215000Y-123913900D01*
X152219000Y-123924900D01*
X152225000Y-123934900D01*
X152230000Y-123944900D01*
X152236000Y-123955900D01*
X152243000Y-123964900D01*
X152250000Y-123974900D01*
X152258000Y-123983900D01*
X152266000Y-123991900D01*
X152274000Y-123999900D01*
X152283000Y-124007900D01*
X152293000Y-124014900D01*
X152302000Y-124021900D01*
X152313000Y-124027900D01*
X152323000Y-124032900D01*
X152333000Y-124038900D01*
X152344000Y-124042900D01*
X152355000Y-124046900D01*
X152367000Y-124049900D01*
X152378000Y-124052900D01*
X152390000Y-124054900D01*
X152401000Y-124056900D01*
X152413000Y-124057900D01*
X152425000Y-124057900D01*
X152437000Y-124057900D01*
X152449000Y-124056900D01*
X152460000Y-124054900D01*
X152472000Y-124052900D01*
X152483000Y-124049900D01*
X152495000Y-124046900D01*
X152506000Y-124042900D01*
X152517000Y-124038900D01*
X152527000Y-124032900D01*
X152538000Y-124027900D01*
X152548000Y-124021900D01*
X152557000Y-124014900D01*
X152567000Y-124007900D01*
X152576000Y-123999900D01*
X152584000Y-123991900D01*
X152592000Y-123983900D01*
X152600000Y-123974900D01*
X152607000Y-123964900D01*
X152614000Y-123955900D01*
X152620000Y-123945900D01*
X152625000Y-123934900D01*
X152631000Y-123924900D01*
X152635000Y-123913900D01*
X152639000Y-123902900D01*
X152642000Y-123890900D01*
X152645000Y-123879900D01*
X152647000Y-123867900D01*
X152649000Y-123856900D01*
X152650000Y-123844900D01*
X152650000Y-123832900D01*
X152650000Y-123432900D01*
X152950000Y-123432900D01*
X152950000Y-123832900D01*
X152949000Y-123859900D01*
X152947000Y-123887900D01*
X152944000Y-123914900D01*
X152939000Y-123941900D01*
X152932000Y-123968900D01*
X152924000Y-123994900D01*
X152915000Y-124020900D01*
X152905000Y-124046900D01*
X152893000Y-124070900D01*
X152880000Y-124095900D01*
X152865000Y-124118900D01*
X152850000Y-124141900D01*
X152833000Y-124162900D01*
X152815000Y-124183900D01*
X152796000Y-124203900D01*
X152776000Y-124222900D01*
X152755000Y-124240900D01*
X152734000Y-124257900D01*
X152711000Y-124272900D01*
X152687000Y-124287900D01*
X152663000Y-124300900D01*
X152639000Y-124312900D01*
X152613000Y-124322900D01*
X152587000Y-124331900D01*
X152561000Y-124339900D01*
X152534000Y-124346900D01*
X152507000Y-124351900D01*
X152480000Y-124354900D01*
X152452000Y-124356900D01*
X152425000Y-124357900D01*
X152398000Y-124356900D01*
X152370000Y-124354900D01*
X152343000Y-124351900D01*
X152316000Y-124346900D01*
X152289000Y-124339900D01*
X152263000Y-124331900D01*
X152237000Y-124322900D01*
X152211000Y-124312900D01*
X152187000Y-124300900D01*
X152163000Y-124287900D01*
X152139000Y-124272900D01*
X152116000Y-124257900D01*
X152095000Y-124240900D01*
X152074000Y-124222900D01*
X152054000Y-124203900D01*
X152035000Y-124183900D01*
X152017000Y-124162900D01*
X152000000Y-124141900D01*
X151985000Y-124118900D01*
X151970000Y-124094900D01*
X151957000Y-124070900D01*
X151945000Y-124046900D01*
X151935000Y-124020900D01*
X151926000Y-123994900D01*
X151918000Y-123968900D01*
X151911000Y-123941900D01*
X151906000Y-123914900D01*
X151903000Y-123887900D01*
X151901000Y-123859900D01*
X151900000Y-123832900D01*
X151900000Y-123432900D01*
X152200000Y-123432900D01*
X152200000Y-123832900D01*
%TA.AperFunction,EtchedComponent*%
G36*
X152200000Y-123832900D02*
G01*
X152200000Y-123844900D01*
X152201000Y-123856900D01*
X152203000Y-123867900D01*
X152205000Y-123879900D01*
X152208000Y-123890900D01*
X152211000Y-123902900D01*
X152215000Y-123913900D01*
X152219000Y-123924900D01*
X152225000Y-123934900D01*
X152230000Y-123944900D01*
X152236000Y-123955900D01*
X152243000Y-123964900D01*
X152250000Y-123974900D01*
X152258000Y-123983900D01*
X152266000Y-123991900D01*
X152274000Y-123999900D01*
X152283000Y-124007900D01*
X152293000Y-124014900D01*
X152302000Y-124021900D01*
X152313000Y-124027900D01*
X152323000Y-124032900D01*
X152333000Y-124038900D01*
X152344000Y-124042900D01*
X152355000Y-124046900D01*
X152367000Y-124049900D01*
X152378000Y-124052900D01*
X152390000Y-124054900D01*
X152401000Y-124056900D01*
X152413000Y-124057900D01*
X152425000Y-124057900D01*
X152437000Y-124057900D01*
X152449000Y-124056900D01*
X152460000Y-124054900D01*
X152472000Y-124052900D01*
X152483000Y-124049900D01*
X152495000Y-124046900D01*
X152506000Y-124042900D01*
X152517000Y-124038900D01*
X152527000Y-124032900D01*
X152538000Y-124027900D01*
X152548000Y-124021900D01*
X152557000Y-124014900D01*
X152567000Y-124007900D01*
X152576000Y-123999900D01*
X152584000Y-123991900D01*
X152592000Y-123983900D01*
X152600000Y-123974900D01*
X152607000Y-123964900D01*
X152614000Y-123955900D01*
X152620000Y-123945900D01*
X152625000Y-123934900D01*
X152631000Y-123924900D01*
X152635000Y-123913900D01*
X152639000Y-123902900D01*
X152642000Y-123890900D01*
X152645000Y-123879900D01*
X152647000Y-123867900D01*
X152649000Y-123856900D01*
X152650000Y-123844900D01*
X152650000Y-123832900D01*
X152650000Y-123432900D01*
X152950000Y-123432900D01*
X152950000Y-123832900D01*
X152949000Y-123859900D01*
X152947000Y-123887900D01*
X152944000Y-123914900D01*
X152939000Y-123941900D01*
X152932000Y-123968900D01*
X152924000Y-123994900D01*
X152915000Y-124020900D01*
X152905000Y-124046900D01*
X152893000Y-124070900D01*
X152880000Y-124095900D01*
X152865000Y-124118900D01*
X152850000Y-124141900D01*
X152833000Y-124162900D01*
X152815000Y-124183900D01*
X152796000Y-124203900D01*
X152776000Y-124222900D01*
X152755000Y-124240900D01*
X152734000Y-124257900D01*
X152711000Y-124272900D01*
X152687000Y-124287900D01*
X152663000Y-124300900D01*
X152639000Y-124312900D01*
X152613000Y-124322900D01*
X152587000Y-124331900D01*
X152561000Y-124339900D01*
X152534000Y-124346900D01*
X152507000Y-124351900D01*
X152480000Y-124354900D01*
X152452000Y-124356900D01*
X152425000Y-124357900D01*
X152398000Y-124356900D01*
X152370000Y-124354900D01*
X152343000Y-124351900D01*
X152316000Y-124346900D01*
X152289000Y-124339900D01*
X152263000Y-124331900D01*
X152237000Y-124322900D01*
X152211000Y-124312900D01*
X152187000Y-124300900D01*
X152163000Y-124287900D01*
X152139000Y-124272900D01*
X152116000Y-124257900D01*
X152095000Y-124240900D01*
X152074000Y-124222900D01*
X152054000Y-124203900D01*
X152035000Y-124183900D01*
X152017000Y-124162900D01*
X152000000Y-124141900D01*
X151985000Y-124118900D01*
X151970000Y-124094900D01*
X151957000Y-124070900D01*
X151945000Y-124046900D01*
X151935000Y-124020900D01*
X151926000Y-123994900D01*
X151918000Y-123968900D01*
X151911000Y-123941900D01*
X151906000Y-123914900D01*
X151903000Y-123887900D01*
X151901000Y-123859900D01*
X151900000Y-123832900D01*
X151900000Y-123432900D01*
X152200000Y-123432900D01*
X152200000Y-123832900D01*
G37*
%TD.AperFunction*%
%TD*%
D11*
%TO.P,J2,1,Pin_1*%
%TO.N,/D0{slash}RX*%
X141500000Y-85400000D03*
D12*
%TO.P,J2,2,Pin_2*%
%TO.N,/D1{slash}TX*%
X141500000Y-87940000D03*
%TO.P,J2,3,Pin_3*%
%TO.N,/RESET*%
X141500000Y-90480000D03*
%TO.P,J2,4,Pin_4*%
%TO.N,GND*%
X141500000Y-93020000D03*
%TO.P,J2,5,Pin_5*%
%TO.N,/D2*%
X141500000Y-95560000D03*
%TO.P,J2,6,Pin_6*%
%TO.N,/D3*%
X141500000Y-98100000D03*
%TO.P,J2,7,Pin_7*%
%TO.N,/D4*%
X141500000Y-100640000D03*
%TO.P,J2,8,Pin_8*%
%TO.N,/D5*%
X141500000Y-103180000D03*
%TO.P,J2,9,Pin_9*%
%TO.N,/D6*%
X141500000Y-105720000D03*
%TO.P,J2,10,Pin_10*%
%TO.N,/D7*%
X141500000Y-108260000D03*
%TO.P,J2,11,Pin_11*%
%TO.N,/D8*%
X141500000Y-110800000D03*
%TO.P,J2,12,Pin_12*%
%TO.N,/D9*%
X141500000Y-113340000D03*
%TO.P,J2,13,Pin_13*%
%TO.N,/D10*%
X141500000Y-115880000D03*
%TO.P,J2,14,Pin_14*%
%TO.N,/D11{slash}MOSI*%
X141500000Y-118420000D03*
%TO.P,J2,15,Pin_15*%
%TO.N,/D12{slash}MISO*%
X141500000Y-120960000D03*
%TD*%
D13*
%TO.P,X1,1,MISO*%
%TO.N,/D12{slash}MISO*%
X151371750Y-83298250D03*
D14*
%TO.P,X1,2,VCC*%
%TO.N,+5V*%
X151371750Y-85838250D03*
%TO.P,X1,3,SCK*%
%TO.N,/D13{slash}SCK*%
X148831750Y-83298250D03*
%TO.P,X1,4,MOSI*%
%TO.N,/D11{slash}MOSI*%
X148831750Y-85838250D03*
%TO.P,X1,5,RST*%
%TO.N,/RESET*%
X146291750Y-83298250D03*
%TO.P,X1,6,GND*%
%TO.N,GND*%
X146291750Y-85838250D03*
%TD*%
D11*
%TO.P,J3,1,Pin_1*%
%TO.N,Vin*%
X156200000Y-85400000D03*
D12*
%TO.P,J3,2,Pin_2*%
%TO.N,GND*%
X156200000Y-87940000D03*
%TO.P,J3,3,Pin_3*%
%TO.N,/RESET*%
X156200000Y-90480000D03*
%TO.P,J3,4,Pin_4*%
%TO.N,+5V*%
X156200000Y-93020000D03*
%TO.P,J3,5,Pin_5*%
%TO.N,/A7*%
X156200000Y-95560000D03*
%TO.P,J3,6,Pin_6*%
%TO.N,/A6*%
X156200000Y-98100000D03*
%TO.P,J3,7,Pin_7*%
%TO.N,/A5*%
X156200000Y-100640000D03*
%TO.P,J3,8,Pin_8*%
%TO.N,/A4*%
X156200000Y-103180000D03*
%TO.P,J3,9,Pin_9*%
%TO.N,/A3*%
X156200000Y-105720000D03*
%TO.P,J3,10,Pin_10*%
%TO.N,/A2*%
X156200000Y-108260000D03*
%TO.P,J3,11,Pin_11*%
%TO.N,/A1*%
X156200000Y-110800000D03*
%TO.P,J3,12,Pin_12*%
%TO.N,/A0*%
X156200000Y-113340000D03*
%TO.P,J3,13,Pin_13*%
%TO.N,/AREF*%
X156200000Y-115880000D03*
%TO.P,J3,14,Pin_14*%
%TO.N,3V3*%
X156200000Y-118420000D03*
%TO.P,J3,15,Pin_15*%
%TO.N,/D13{slash}SCK*%
X156200000Y-120960000D03*
%TD*%
D15*
%TO.P,C3,1*%
%TO.N,+5V*%
X145450000Y-91560000D03*
%TO.P,C3,2*%
%TO.N,GND*%
X145450000Y-89940000D03*
%TD*%
D16*
%TO.P,RP2,1,1*%
%TO.N,/D13{slash}SCK*%
X147340000Y-99620000D03*
D17*
%TO.P,RP2,2,2*%
%TO.N,Net-(U3-CBUS1)*%
X146500000Y-99620000D03*
%TO.P,RP2,3,3*%
%TO.N,unconnected-(RP2-Pad3)*%
X145700000Y-99620000D03*
D16*
%TO.P,RP2,4,4*%
%TO.N,Net-(U3-CBUS0)*%
X144860000Y-99620000D03*
%TO.P,RP2,5,5*%
%TO.N,Net-(LD3(RX)1-K)*%
X144860000Y-97850000D03*
D17*
%TO.P,RP2,6,6*%
%TO.N,unconnected-(RP2-Pad6)*%
X145700000Y-97850000D03*
%TO.P,RP2,7,7*%
%TO.N,Net-(LD4(TX)1-K)*%
X146500000Y-97850000D03*
D16*
%TO.P,RP2,8,8*%
%TO.N,Net-(LD1-A)*%
X147340000Y-97850000D03*
%TD*%
D18*
%TO.P,VR1,1,ADJ/GND*%
%TO.N,GND*%
X149300000Y-88650000D03*
%TO.P,VR1,2,VOUT*%
%TO.N,+5V*%
X151600000Y-88650000D03*
%TO.P,VR1,3,VIN*%
%TO.N,Vin*%
X153900000Y-88650000D03*
D19*
%TO.P,VR1,4,VOUT*%
%TO.N,+5V*%
X151600000Y-94820000D03*
%TD*%
D20*
%TO.P,C9,1*%
%TO.N,VUSB*%
X143900000Y-91700000D03*
%TO.P,C9,2*%
%TO.N,GND*%
X143900000Y-90300000D03*
%TD*%
D15*
%TO.P,C1,1*%
%TO.N,/AREF*%
X154400000Y-117040000D03*
%TO.P,C1,2*%
%TO.N,GND*%
X154400000Y-118660000D03*
%TD*%
D21*
%TO.P,C5,1*%
%TO.N,GND*%
X146370000Y-107740000D03*
%TO.P,C5,2*%
%TO.N,Net-(U1-PB6(XTAL1))*%
X146370000Y-105940000D03*
%TD*%
D15*
%TO.P,C10,1*%
%TO.N,Net-(U3-DTR)*%
X151800000Y-107760000D03*
%TO.P,C10,2*%
%TO.N,/RESET*%
X151800000Y-106140000D03*
%TD*%
D22*
%TO.P,U2,P$1,K*%
%TO.N,+5V*%
X146200000Y-93750000D03*
D23*
%TO.P,U2,P$2,A*%
%TO.N,VUSB*%
X143850000Y-93750000D03*
%TD*%
D24*
%TO.P,F2,1,1*%
%TO.N,VUSB*%
X154400000Y-124050000D03*
%TO.P,F2,2,2*%
%TO.N,Net-(J1-VBUS)*%
X154400000Y-122250000D03*
%TD*%
D25*
%TO.P,U3,1,TXD*%
%TO.N,/RX*%
X152350000Y-109925000D03*
%TO.P,U3,2,DTR*%
%TO.N,Net-(U3-DTR)*%
X152350000Y-110575000D03*
%TO.P,U3,3,RTS*%
%TO.N,unconnected-(U3-RTS-Pad3)*%
X152350000Y-111225000D03*
%TO.P,U3,4,VCCIO*%
%TO.N,+5V*%
X152350000Y-111875000D03*
%TO.P,U3,5,RXD*%
%TO.N,/TX*%
X152350000Y-112525000D03*
%TO.P,U3,6,RI*%
%TO.N,unconnected-(U3-RI-Pad6)*%
X152350000Y-113175000D03*
%TO.P,U3,7,GND*%
%TO.N,GND*%
X152350000Y-113825000D03*
%TO.P,U3,8,NC1*%
%TO.N,unconnected-(U3-NC1-Pad8)*%
X152350000Y-114475000D03*
%TO.P,U3,9,DCR*%
%TO.N,unconnected-(U3-DCR-Pad9)*%
X152350000Y-115125000D03*
%TO.P,U3,10,DCD*%
%TO.N,unconnected-(U3-DCD-Pad10)*%
X152350000Y-115775000D03*
%TO.P,U3,11,CTS*%
%TO.N,unconnected-(U3-CTS-Pad11)*%
X152350000Y-116425000D03*
%TO.P,U3,12,CBUS4*%
%TO.N,unconnected-(U3-CBUS4-Pad12)*%
X152350000Y-117075000D03*
%TO.P,U3,13,CBUS2*%
%TO.N,unconnected-(U3-CBUS2-Pad13)*%
X152350000Y-117725000D03*
%TO.P,U3,14,CBUS3*%
%TO.N,unconnected-(U3-CBUS3-Pad14)*%
X152350000Y-118375000D03*
%TO.P,U3,15,USBD+*%
%TO.N,Net-(J1-D+)*%
X145150000Y-118375000D03*
%TO.P,U3,16,USBD-*%
%TO.N,Net-(J1-D-)*%
X145150000Y-117725000D03*
%TO.P,U3,17,3V3OUT*%
%TO.N,3V3*%
X145150000Y-117075000D03*
%TO.P,U3,18,GND*%
%TO.N,GND*%
X145150000Y-116425000D03*
%TO.P,U3,19,~{RESET}*%
%TO.N,unconnected-(U3-~{RESET}-Pad19)*%
X145150000Y-115775000D03*
%TO.P,U3,20,VCC*%
%TO.N,+5V*%
X145150000Y-115125000D03*
%TO.P,U3,21,GND*%
%TO.N,GND*%
X145150000Y-114475000D03*
%TO.P,U3,22,CBUS1*%
%TO.N,Net-(U3-CBUS1)*%
X145150000Y-113825000D03*
%TO.P,U3,23,CBUS0*%
%TO.N,Net-(U3-CBUS0)*%
X145150000Y-113175000D03*
%TO.P,U3,24,NC2*%
%TO.N,unconnected-(U3-NC2-Pad24)*%
X145150000Y-112525000D03*
%TO.P,U3,25,AGND*%
%TO.N,GND*%
X145150000Y-111875000D03*
%TO.P,U3,26,TEST*%
X145150000Y-111225000D03*
%TO.P,U3,27,OSCI*%
%TO.N,unconnected-(U3-OSCI-Pad27)*%
X145150000Y-110575000D03*
%TO.P,U3,28,OSCO*%
%TO.N,unconnected-(U3-OSCO-Pad28)*%
X145150000Y-109925000D03*
%TD*%
D21*
%TO.P,C6,1*%
%TO.N,GND*%
X148370000Y-107740000D03*
%TO.P,C6,2*%
%TO.N,Net-(U1-PB7(XTAL2))*%
X148370000Y-105940000D03*
%TD*%
D26*
%TO.P,C11,1*%
%TO.N,3V3*%
X149460000Y-120950000D03*
%TO.P,C11,2*%
%TO.N,GND*%
X147840000Y-120950000D03*
%TD*%
%TO.P,C8,1*%
%TO.N,VUSB*%
X149310000Y-123700000D03*
%TO.P,C8,2*%
%TO.N,GND*%
X147690000Y-123700000D03*
%TD*%
D15*
%TO.P,C7,1*%
%TO.N,+5V*%
X148800000Y-94590000D03*
%TO.P,C7,2*%
%TO.N,GND*%
X148800000Y-96210000D03*
%TD*%
D20*
%TO.P,C4,1*%
%TO.N,+5V*%
X148450000Y-103400000D03*
%TO.P,C4,2*%
%TO.N,GND*%
X148450000Y-102000000D03*
%TD*%
D15*
%TO.P,C2,1*%
%TO.N,+5V*%
X151500000Y-104510000D03*
%TO.P,C2,2*%
%TO.N,GND*%
X151500000Y-102890000D03*
%TD*%
D27*
%TO.P,RP1,1,1*%
%TO.N,/D0{slash}RX*%
X150160000Y-98702500D03*
D28*
%TO.P,RP1,2,2*%
%TO.N,/D1{slash}TX*%
X151000000Y-98702500D03*
%TO.P,RP1,3,3*%
%TO.N,Net-(LD2-A)*%
X151800000Y-98702500D03*
D27*
%TO.P,RP1,4,4*%
%TO.N,/RESET*%
X152640000Y-98702500D03*
%TO.P,RP1,5,5*%
%TO.N,+5V*%
X152640000Y-100472500D03*
D28*
%TO.P,RP1,6,6*%
X151800000Y-100472500D03*
%TO.P,RP1,7,7*%
%TO.N,/TX*%
X151000000Y-100472500D03*
D27*
%TO.P,RP1,8,8*%
%TO.N,/RX*%
X150160000Y-100472500D03*
%TD*%
D29*
%TO.N,GND*%
X150650000Y-117650000D03*
X146450000Y-124100000D03*
X150777818Y-116036144D03*
X145620240Y-102857672D03*
X145550000Y-89700000D03*
X152750000Y-90000000D03*
X144600000Y-85900000D03*
X146524999Y-110448528D03*
X148966470Y-100983530D03*
X150119669Y-89069669D03*
X146850000Y-95850000D03*
X148750000Y-111750000D03*
X148700000Y-109500000D03*
X146550000Y-119550000D03*
%TO.N,+5V*%
X150127818Y-113335136D03*
X152850000Y-103400000D03*
X154300000Y-98200000D03*
X145450000Y-90950002D03*
X145300000Y-105003096D03*
%TO.N,Net-(U1-PB6(XTAL1))*%
X146000000Y-104450000D03*
%TO.N,Net-(U1-PB7(XTAL2))*%
X147045244Y-103495244D03*
%TO.N,/RESET*%
X147450000Y-90270438D03*
X152950000Y-96850000D03*
X152950000Y-105350000D03*
%TO.N,Net-(J1-VBUS)*%
X154350000Y-121560000D03*
%TO.N,Net-(J1-D+)*%
X149100000Y-119200000D03*
%TO.N,Net-(LD1-A)*%
X152300000Y-96239999D03*
%TO.N,Net-(LD3(RX)1-K)*%
X144750000Y-96400000D03*
%TO.N,Net-(LD4(TX)1-K)*%
X145750000Y-96150000D03*
%TO.N,/A7*%
X154305515Y-112405515D03*
%TO.N,/D1{slash}TX*%
X151011486Y-96778395D03*
X148250001Y-97788527D03*
%TO.N,/D13{slash}SCK*%
X147850001Y-98693382D03*
X143700000Y-87701472D03*
X148527907Y-115277907D03*
%TO.N,/D0{slash}RX*%
X149050001Y-98905860D03*
%TO.N,/A6*%
X154250000Y-115300000D03*
%TO.N,Net-(LD2-A)*%
X151806286Y-96869484D03*
%TO.N,Net-(J1-D-)*%
X149053585Y-118305055D03*
%TD*%
D30*
%TO.N,GND*%
X147136396Y-117350000D02*
X146211396Y-116425000D01*
X150650000Y-117650000D02*
X150650000Y-118375000D01*
X150650000Y-117650000D02*
X150636396Y-117663604D01*
D31*
X144661750Y-85838250D02*
X146291750Y-85838250D01*
D30*
X146825000Y-115013604D02*
X146286396Y-114475000D01*
X149350000Y-112350000D02*
X149350000Y-115650000D01*
X148750000Y-111750000D02*
X149350000Y-112350000D01*
X149850000Y-101867060D02*
X148966470Y-100983530D01*
X150636396Y-117663604D02*
X150200000Y-117663604D01*
X149741451Y-117205055D02*
X148597950Y-117205055D01*
D31*
X153313480Y-90020000D02*
X154486520Y-90020000D01*
D30*
X153525000Y-118900000D02*
X153525000Y-118710000D01*
X148700000Y-109500000D02*
X147950000Y-109500000D01*
X146850000Y-123700000D02*
X146450000Y-124100000D01*
X145550000Y-89700000D02*
X146279562Y-88970438D01*
X145150000Y-111875000D02*
X145150000Y-111225000D01*
X150650000Y-118375000D02*
X151175000Y-118900000D01*
X146825000Y-115075000D02*
X146825000Y-115013604D01*
X151275000Y-113825000D02*
X150777818Y-114322182D01*
X150777818Y-114322182D02*
X150777818Y-116036144D01*
X143950000Y-116300000D02*
X144075000Y-116425000D01*
X149850000Y-102450000D02*
X149850000Y-101867060D01*
X144075000Y-116425000D02*
X145150000Y-116425000D01*
X148453005Y-117350000D02*
X147136396Y-117350000D01*
X149700000Y-88650000D02*
X149300000Y-88650000D01*
X148700000Y-108070000D02*
X148370000Y-107740000D01*
X149350000Y-115650000D02*
X148850000Y-116150000D01*
X153525000Y-118710000D02*
X154400000Y-118710000D01*
X145150000Y-114475000D02*
X144100000Y-114475000D01*
X148850000Y-116150000D02*
X147900000Y-116150000D01*
D31*
X156200000Y-88306520D02*
X156200000Y-87940000D01*
D30*
X146211396Y-116425000D02*
X145150000Y-116425000D01*
X148597950Y-117205055D02*
X148453005Y-117350000D01*
X148700000Y-109500000D02*
X148700000Y-108070000D01*
X144600000Y-85900000D02*
X144661750Y-85838250D01*
X146524999Y-110448528D02*
X146524999Y-110925001D01*
X143900000Y-90300000D02*
X145090000Y-90300000D01*
D31*
X153293480Y-90000000D02*
X153313480Y-90020000D01*
D30*
X146524999Y-110925001D02*
X146225000Y-111225000D01*
X152350000Y-113825000D02*
X151275000Y-113825000D01*
X150200000Y-117663604D02*
X149741451Y-117205055D01*
X151175000Y-118900000D02*
X153525000Y-118900000D01*
D31*
X152750000Y-90000000D02*
X153293480Y-90000000D01*
D30*
X145090000Y-90300000D02*
X145450000Y-89940000D01*
X148450000Y-101500000D02*
X148966470Y-100983530D01*
X146286396Y-114475000D02*
X145150000Y-114475000D01*
X147690000Y-123700000D02*
X146850000Y-123700000D01*
X146279562Y-88970438D02*
X148979562Y-88970438D01*
X146225000Y-111225000D02*
X145150000Y-111225000D01*
X150119669Y-89069669D02*
X149700000Y-88650000D01*
X148979562Y-88970438D02*
X149300000Y-88650000D01*
X148800000Y-96210000D02*
X147210000Y-96210000D01*
D31*
X154486520Y-90020000D02*
X156200000Y-88306520D01*
D30*
X148450000Y-102000000D02*
X148450000Y-101500000D01*
X147950000Y-109500000D02*
X146370000Y-107920000D01*
X146370000Y-107920000D02*
X146370000Y-107740000D01*
X143950000Y-114625000D02*
X143950000Y-116300000D01*
X150290000Y-102890000D02*
X149850000Y-102450000D01*
X147900000Y-116150000D02*
X146825000Y-115075000D01*
X147210000Y-96210000D02*
X146850000Y-95850000D01*
X144100000Y-114475000D02*
X143950000Y-114625000D01*
X151500000Y-102890000D02*
X150290000Y-102890000D01*
D31*
%TO.N,/AREF*%
X156200000Y-115880000D02*
X155610000Y-115880000D01*
D30*
X155610000Y-115880000D02*
X154400000Y-117090000D01*
%TO.N,+5V*%
X152640000Y-100410000D02*
X152640000Y-100472500D01*
D32*
X148411554Y-116755055D02*
X148266609Y-116900000D01*
X146300000Y-115125000D02*
X145150000Y-115125000D01*
D31*
X148900000Y-103850000D02*
X150840000Y-103850000D01*
X156200000Y-93020000D02*
X153400000Y-93020000D01*
D32*
X147322792Y-116900000D02*
X146397792Y-115975000D01*
D31*
X148827818Y-90550000D02*
X147798256Y-89520438D01*
X149030000Y-94820000D02*
X148800000Y-94590000D01*
X146295244Y-103184583D02*
X146734583Y-102745244D01*
X145250000Y-104139339D02*
X145689339Y-103700000D01*
X150890000Y-104510000D02*
X151500000Y-104510000D01*
X147139339Y-89520438D02*
X146700000Y-89959777D01*
X151371750Y-88421750D02*
X151600000Y-88650000D01*
X147355905Y-102745244D02*
X147795244Y-103184583D01*
X148325000Y-103525000D02*
X148450000Y-103400000D01*
D32*
X150127818Y-116402943D02*
X150000000Y-116530761D01*
D31*
X147795244Y-103467426D02*
X147852818Y-103525000D01*
D32*
X150000000Y-116550000D02*
X149794945Y-116755055D01*
D31*
X151600000Y-88650000D02*
X149700000Y-90550000D01*
D32*
X152350000Y-111875000D02*
X150425000Y-111875000D01*
D31*
X153400000Y-93020000D02*
X151600000Y-94820000D01*
X150200000Y-105200000D02*
X150200000Y-111650000D01*
X151371750Y-85838250D02*
X151371750Y-88421750D01*
X145999998Y-91500000D02*
X146850000Y-91500000D01*
X148025000Y-91550000D02*
X151295000Y-94820000D01*
D32*
X150000000Y-116530761D02*
X150000000Y-116550000D01*
D31*
X146700000Y-89959777D02*
X146700000Y-90581099D01*
X150200000Y-111650000D02*
X150425000Y-111875000D01*
D32*
X150425000Y-113075000D02*
X150425000Y-111875000D01*
D31*
X147795244Y-103184583D02*
X147795244Y-103467426D01*
X146700000Y-90581099D02*
X146850000Y-90731099D01*
X149700000Y-90550000D02*
X148827818Y-90550000D01*
X146295244Y-103700000D02*
X146295244Y-103184583D01*
X147852818Y-103525000D02*
X148325000Y-103525000D01*
X150840000Y-103850000D02*
X151500000Y-104510000D01*
X145450000Y-90950002D02*
X145999998Y-91500000D01*
X146734583Y-102745244D02*
X147355905Y-102745244D01*
X145450000Y-93000000D02*
X146200000Y-93750000D01*
X145250000Y-104953096D02*
X145250000Y-104139339D01*
D32*
X150127818Y-113335136D02*
X150127818Y-116402943D01*
D31*
X151295000Y-94820000D02*
X151600000Y-94820000D01*
D32*
X150164864Y-113335136D02*
X150425000Y-113075000D01*
D31*
X146900000Y-91550000D02*
X148025000Y-91550000D01*
X152850000Y-103795000D02*
X152135000Y-104510000D01*
X146850000Y-90731099D02*
X146850000Y-91500000D01*
X150200000Y-105200000D02*
X150890000Y-104510000D01*
X146850000Y-91500000D02*
X146900000Y-91550000D01*
X145689339Y-103700000D02*
X146295244Y-103700000D01*
D32*
X146397792Y-115975000D02*
X146375000Y-115975000D01*
D31*
X152135000Y-104510000D02*
X151500000Y-104510000D01*
D30*
X154300000Y-98750000D02*
X152640000Y-100410000D01*
D31*
X152850000Y-103400000D02*
X152850000Y-103795000D01*
D32*
X146375000Y-115200000D02*
X146300000Y-115125000D01*
X146375000Y-115975000D02*
X146375000Y-115200000D01*
X150127818Y-113335136D02*
X150164864Y-113335136D01*
D31*
X148450000Y-103400000D02*
X148900000Y-103850000D01*
X151800000Y-100472500D02*
X152640000Y-100472500D01*
X145300000Y-105003096D02*
X145250000Y-104953096D01*
X151600000Y-94820000D02*
X149030000Y-94820000D01*
D32*
X148266609Y-116900000D02*
X147322792Y-116900000D01*
D30*
X154300000Y-98200000D02*
X154300000Y-98750000D01*
D32*
X149794945Y-116755055D02*
X148411554Y-116755055D01*
D31*
X147798256Y-89520438D02*
X147139339Y-89520438D01*
X145450000Y-90950002D02*
X145450000Y-93000000D01*
D30*
%TO.N,Net-(U1-PB6(XTAL1))*%
X146370000Y-104820000D02*
X146370000Y-105940000D01*
X146000000Y-104450000D02*
X146370000Y-104820000D01*
%TO.N,Net-(U1-PB7(XTAL2))*%
X148002182Y-104075000D02*
X148550000Y-104622818D01*
X148550000Y-104622818D02*
X148550000Y-105760000D01*
X147045244Y-103495244D02*
X147625000Y-104075000D01*
X148550000Y-105760000D02*
X148370000Y-105940000D01*
X147625000Y-104075000D02*
X148002182Y-104075000D01*
D31*
%TO.N,VUSB*%
X153415000Y-121715000D02*
X152800000Y-121100000D01*
D30*
X143500000Y-119950000D02*
X143500000Y-94100000D01*
D31*
X151350000Y-121100000D02*
X149310000Y-123140000D01*
D30*
X143550000Y-120000000D02*
X143500000Y-119950000D01*
D31*
X153415000Y-123065000D02*
X153415000Y-121715000D01*
D30*
X143850000Y-93750000D02*
X143850000Y-91750000D01*
D32*
X143550000Y-120000000D02*
X144050000Y-120000000D01*
D31*
X152800000Y-121100000D02*
X151350000Y-121100000D01*
D30*
X143850000Y-91750000D02*
X143900000Y-91700000D01*
D32*
X149310000Y-122860000D02*
X149310000Y-123700000D01*
X144050000Y-120000000D02*
X146665000Y-122615000D01*
D30*
X143500000Y-94100000D02*
X143600000Y-94000000D01*
D32*
X143850000Y-93750000D02*
X143600000Y-94000000D01*
D31*
X154400000Y-124050000D02*
X153415000Y-123065000D01*
D32*
X149065000Y-122615000D02*
X149310000Y-122860000D01*
X146665000Y-122615000D02*
X149065000Y-122615000D01*
D31*
X149310000Y-123140000D02*
X149310000Y-123700000D01*
D30*
%TO.N,Net-(U3-DTR)*%
X150750000Y-108810000D02*
X150750000Y-110025000D01*
X151800000Y-107760000D02*
X150750000Y-108810000D01*
X151300000Y-110575000D02*
X152350000Y-110575000D01*
X150750000Y-110025000D02*
X151300000Y-110575000D01*
%TO.N,/RESET*%
X155480000Y-91200000D02*
X156200000Y-90480000D01*
X152950000Y-105350000D02*
X152590000Y-105350000D01*
X152590000Y-105350000D02*
X151800000Y-106140000D01*
X152640000Y-98702500D02*
X152640000Y-97160000D01*
D33*
X144101750Y-83298250D02*
X143000000Y-84400000D01*
X143000000Y-84400000D02*
X143000000Y-88300000D01*
D30*
X147770438Y-90270438D02*
X148700000Y-91200000D01*
D33*
X143000000Y-88300000D02*
X141500000Y-89800000D01*
D30*
X152640000Y-97160000D02*
X152950000Y-96850000D01*
X147450000Y-90270438D02*
X147770438Y-90270438D01*
D33*
X141500000Y-89800000D02*
X141500000Y-90480000D01*
D30*
X148700000Y-91200000D02*
X155480000Y-91200000D01*
D33*
X146291750Y-83298250D02*
X144101750Y-83298250D01*
D32*
%TO.N,3V3*%
X149750000Y-117850000D02*
X149555055Y-117655055D01*
X146225000Y-117075000D02*
X145150000Y-117075000D01*
D31*
X156200000Y-118420000D02*
X156200000Y-119055000D01*
D32*
X146950000Y-117800000D02*
X146225000Y-117075000D01*
X156200000Y-119055000D02*
X155405000Y-119850000D01*
X149460000Y-120950000D02*
X149750000Y-120660000D01*
X148639401Y-117800000D02*
X146950000Y-117800000D01*
X149555055Y-117655055D02*
X148784346Y-117655055D01*
X148784346Y-117655055D02*
X148639401Y-117800000D01*
X150560000Y-119850000D02*
X149460000Y-120950000D01*
X149750000Y-120660000D02*
X149750000Y-117850000D01*
X155405000Y-119850000D02*
X150560000Y-119850000D01*
D30*
%TO.N,Net-(J1-VBUS)*%
X154400000Y-122250000D02*
X154400000Y-121610000D01*
X154400000Y-121610000D02*
X154350000Y-121560000D01*
%TO.N,Net-(J1-D+)*%
X145425000Y-118650000D02*
X145100000Y-118325000D01*
X149100000Y-119200000D02*
X148550000Y-118650000D01*
X148550000Y-118650000D02*
X145425000Y-118650000D01*
%TO.N,Net-(LD1-A)*%
X152100001Y-96040000D02*
X152300000Y-96239999D01*
X148170000Y-97020000D02*
X149680000Y-97020000D01*
X147340000Y-97850000D02*
X148170000Y-97020000D01*
X150660000Y-96040000D02*
X152100001Y-96040000D01*
X149680000Y-97020000D02*
X150660000Y-96040000D01*
%TO.N,Net-(LD3(RX)1-K)*%
X144800000Y-97790000D02*
X144860000Y-97850000D01*
X144860000Y-97850000D02*
X144860000Y-96510000D01*
X144860000Y-96510000D02*
X144750000Y-96400000D01*
%TO.N,Net-(LD4(TX)1-K)*%
X146400000Y-97750000D02*
X146500000Y-97850000D01*
X146500000Y-96900000D02*
X145750000Y-96150000D01*
X146500000Y-97850000D02*
X146500000Y-96900000D01*
%TO.N,/A7*%
X155000000Y-98650000D02*
X155000000Y-96760000D01*
X154500000Y-112211030D02*
X154500000Y-99150000D01*
X155000000Y-96760000D02*
X156200000Y-95560000D01*
X154500000Y-99150000D02*
X155000000Y-98650000D01*
X154305515Y-112405515D02*
X154500000Y-112211030D01*
%TO.N,/D12{slash}MISO*%
X143100000Y-89715686D02*
X144465686Y-88350000D01*
X149600000Y-87150000D02*
X150050000Y-86700000D01*
X150050000Y-86700000D02*
X150050000Y-84620000D01*
X143100000Y-119360000D02*
X143100000Y-89715686D01*
X147615686Y-88350000D02*
X148815686Y-87150000D01*
X148815686Y-87150000D02*
X149600000Y-87150000D01*
X141500000Y-120960000D02*
X143100000Y-119360000D01*
X144465686Y-88350000D02*
X147615686Y-88350000D01*
D32*
X150050000Y-84620000D02*
X151371750Y-83298250D01*
D30*
%TO.N,/D1{slash}TX*%
X151011486Y-96778395D02*
X151000000Y-96789881D01*
X149845686Y-97420000D02*
X148618528Y-97420000D01*
X148618528Y-97420000D02*
X148250001Y-97788527D01*
X150487291Y-96778395D02*
X149845686Y-97420000D01*
X151000000Y-96789881D02*
X151000000Y-98702500D01*
X151011486Y-96778395D02*
X150487291Y-96778395D01*
%TO.N,/D11{slash}MOSI*%
X146720000Y-87950000D02*
X148831750Y-85838250D01*
D32*
X148831750Y-86418250D02*
X148831750Y-85838250D01*
D30*
X142700000Y-89550000D02*
X144300000Y-87950000D01*
X142700000Y-117220000D02*
X142700000Y-89550000D01*
X141500000Y-118420000D02*
X142700000Y-117220000D01*
X144300000Y-87950000D02*
X146720000Y-87950000D01*
%TO.N,/D13{slash}SCK*%
X147340000Y-99203383D02*
X147850001Y-98693382D01*
X145100000Y-108950000D02*
X144700000Y-108550000D01*
X146415320Y-100770000D02*
X147340000Y-99845320D01*
X147355000Y-99635000D02*
X147340000Y-99620000D01*
X144700000Y-101265686D02*
X145195686Y-100770000D01*
X143700000Y-87701472D02*
X143500000Y-87501472D01*
X143500000Y-87501472D02*
X143500000Y-85250000D01*
X147340000Y-99845320D02*
X147340000Y-99620000D01*
X146440686Y-108950000D02*
X145100000Y-108950000D01*
X144200000Y-84550000D02*
X147150000Y-84550000D01*
X148527907Y-115277907D02*
X147525002Y-114275002D01*
X143500000Y-85250000D02*
X144200000Y-84550000D01*
D32*
X147150000Y-84550000D02*
X148401750Y-83298250D01*
D30*
X145195686Y-100770000D02*
X146415320Y-100770000D01*
X147525002Y-110034316D02*
X146440686Y-108950000D01*
D31*
X148401750Y-83298250D02*
X148831750Y-83298250D01*
D30*
X147340000Y-99620000D02*
X147340000Y-99203383D01*
X144700000Y-108550000D02*
X144700000Y-101265686D01*
X147525002Y-114275002D02*
X147525002Y-110034316D01*
%TO.N,/D0{slash}RX*%
X149253361Y-98702500D02*
X150160000Y-98702500D01*
X149050001Y-98905860D02*
X149253361Y-98702500D01*
%TO.N,/A6*%
X156200000Y-98100000D02*
X155150000Y-99150000D01*
X154905515Y-112156986D02*
X154905515Y-114644485D01*
X155150000Y-99992942D02*
X154900000Y-100242942D01*
X154900000Y-112151471D02*
X154905515Y-112156986D01*
X154900000Y-100242942D02*
X154900000Y-112151471D01*
X155150000Y-99150000D02*
X155150000Y-99992942D01*
X154905515Y-114644485D02*
X154250000Y-115300000D01*
%TO.N,/RX*%
X150160000Y-100697820D02*
X151412180Y-101950000D01*
X152634314Y-101950000D02*
X153550000Y-102865686D01*
X151412180Y-101950000D02*
X152634314Y-101950000D01*
X150160000Y-100472500D02*
X150160000Y-100697820D01*
X153550000Y-108725000D02*
X152350000Y-109925000D01*
X153550000Y-102865686D02*
X153550000Y-108725000D01*
%TO.N,Net-(U3-CBUS1)*%
X146500000Y-99620000D02*
X146500000Y-99885320D01*
X144300000Y-101100000D02*
X144300000Y-108900000D01*
X146225000Y-113825000D02*
X145150000Y-113825000D01*
X144750000Y-109350000D02*
X146275000Y-109350000D01*
X146275000Y-109350000D02*
X147125002Y-110200002D01*
X147125002Y-110200002D02*
X147125002Y-112924998D01*
X146500000Y-99885320D02*
X146015320Y-100370000D01*
X147125002Y-112924998D02*
X146225000Y-113825000D01*
X144300000Y-108900000D02*
X144750000Y-109350000D01*
X146015320Y-100370000D02*
X145030000Y-100370000D01*
X145030000Y-100370000D02*
X144300000Y-101100000D01*
%TO.N,/TX*%
X153950000Y-111912500D02*
X153337500Y-112525000D01*
X152800000Y-101550000D02*
X153950000Y-102700000D01*
X153337500Y-112525000D02*
X152350000Y-112525000D01*
X151812180Y-101550000D02*
X152800000Y-101550000D01*
X153950000Y-102700000D02*
X153950000Y-111912500D01*
X151000000Y-100737820D02*
X151812180Y-101550000D01*
X151000000Y-100472500D02*
X151000000Y-100737820D01*
%TO.N,Net-(U3-CBUS0)*%
X143900000Y-112850000D02*
X144225000Y-113175000D01*
X143900000Y-100580000D02*
X143900000Y-112850000D01*
X144860000Y-99620000D02*
X143900000Y-100580000D01*
X144225000Y-113175000D02*
X145300000Y-113175000D01*
D31*
%TO.N,Vin*%
X153900000Y-87700000D02*
X153900000Y-88650000D01*
X156200000Y-85400000D02*
X153900000Y-87700000D01*
D30*
%TO.N,unconnected-(RP2-Pad3)*%
X145700000Y-99620000D02*
X145700000Y-99874158D01*
%TO.N,Net-(LD2-A)*%
X151806286Y-96869484D02*
X151800000Y-96875770D01*
X151800000Y-96875770D02*
X151800000Y-98702500D01*
%TO.N,Net-(J1-D-)*%
X146725000Y-118250000D02*
X146150000Y-117675000D01*
X148998530Y-118250000D02*
X146725000Y-118250000D01*
X149053585Y-118305055D02*
X148998530Y-118250000D01*
X146150000Y-117675000D02*
X145100000Y-117675000D01*
%TD*%
%TA.AperFunction,Conductor*%
%TO.N,GND*%
G36*
X146469295Y-123239174D02*
G01*
X146469429Y-123238733D01*
X146475251Y-123240499D01*
X146475256Y-123240501D01*
X146475260Y-123240501D01*
X146475261Y-123240502D01*
X146580192Y-123261375D01*
X146642103Y-123293760D01*
X146676677Y-123354476D01*
X146680000Y-123382992D01*
X146680000Y-123450000D01*
X147816000Y-123450000D01*
X147883039Y-123469685D01*
X147928794Y-123522489D01*
X147940000Y-123574000D01*
X147940000Y-123826000D01*
X147920315Y-123893039D01*
X147867511Y-123938794D01*
X147816000Y-123950000D01*
X146680000Y-123950000D01*
X146680000Y-124395500D01*
X146660315Y-124462539D01*
X146607511Y-124508294D01*
X146556000Y-124519500D01*
X146283661Y-124519500D01*
X146216622Y-124499815D01*
X146170867Y-124447011D01*
X146160923Y-124377853D01*
X146174629Y-124336440D01*
X146176523Y-124332944D01*
X146187922Y-124311899D01*
X146195580Y-124297190D01*
X146207580Y-124273190D01*
X146227273Y-124228543D01*
X146237273Y-124202543D01*
X146243163Y-124186418D01*
X146252163Y-124160418D01*
X146257624Y-124143707D01*
X146265624Y-124117707D01*
X146271806Y-124095887D01*
X146278806Y-124068887D01*
X146286541Y-124034037D01*
X146291541Y-124007037D01*
X146296905Y-123970778D01*
X146299905Y-123943778D01*
X146301714Y-123923951D01*
X146303714Y-123895951D01*
X146304653Y-123878628D01*
X146305653Y-123851628D01*
X146306000Y-123832900D01*
X146306000Y-123432900D01*
X146306000Y-123355971D01*
X146325685Y-123288932D01*
X146378489Y-123243177D01*
X146447647Y-123233233D01*
X146469295Y-123239174D01*
G37*
%TD.AperFunction*%
%TA.AperFunction,Conductor*%
G36*
X144227127Y-119100500D02*
G01*
X144975068Y-119100499D01*
X145042107Y-119120184D01*
X145050557Y-119126125D01*
X145056281Y-119130517D01*
X145056284Y-119130520D01*
X145056287Y-119130521D01*
X145056290Y-119130524D01*
X145141666Y-119179815D01*
X145193216Y-119209577D01*
X145305019Y-119239534D01*
X145345942Y-119250500D01*
X145345943Y-119250500D01*
X148189311Y-119250500D01*
X148256350Y-119270185D01*
X148302105Y-119322989D01*
X148312531Y-119360615D01*
X148314630Y-119379250D01*
X148314631Y-119379254D01*
X148374394Y-119550045D01*
X148377955Y-119619824D01*
X148343226Y-119680452D01*
X148281233Y-119712679D01*
X148257352Y-119715000D01*
X148090000Y-119715000D01*
X148090000Y-121076000D01*
X148070315Y-121143039D01*
X148017511Y-121188794D01*
X147966000Y-121200000D01*
X146830000Y-121200000D01*
X146830000Y-121560691D01*
X146810315Y-121627730D01*
X146757511Y-121673485D01*
X146688353Y-121683429D01*
X146624797Y-121654404D01*
X146618319Y-121648372D01*
X145137102Y-120167155D01*
X146830000Y-120167155D01*
X146830000Y-120700000D01*
X147590000Y-120700000D01*
X147590000Y-119715000D01*
X147282155Y-119715000D01*
X147222627Y-119721401D01*
X147222620Y-119721403D01*
X147087913Y-119771645D01*
X147087906Y-119771649D01*
X146972812Y-119857809D01*
X146972809Y-119857812D01*
X146886649Y-119972906D01*
X146886645Y-119972913D01*
X146836403Y-120107620D01*
X146836401Y-120107627D01*
X146830000Y-120167155D01*
X145137102Y-120167155D01*
X144464673Y-119494726D01*
X144464669Y-119494723D01*
X144358127Y-119423535D01*
X144239744Y-119374499D01*
X144239738Y-119374497D01*
X144200308Y-119366654D01*
X144138397Y-119334269D01*
X144103823Y-119273553D01*
X144100500Y-119245037D01*
X144100500Y-119224499D01*
X144120185Y-119157460D01*
X144172989Y-119111705D01*
X144224500Y-119100499D01*
X144227118Y-119100499D01*
X144227127Y-119100500D01*
G37*
%TD.AperFunction*%
%TA.AperFunction,Conductor*%
G36*
X150913772Y-116575453D02*
G01*
X150961383Y-116626590D01*
X150974500Y-116682090D01*
X150974500Y-116697865D01*
X150974501Y-116697878D01*
X150978679Y-116736745D01*
X150978679Y-116763250D01*
X150974500Y-116802122D01*
X150974500Y-117347869D01*
X150974501Y-117347878D01*
X150978679Y-117386745D01*
X150978679Y-117413250D01*
X150974500Y-117452122D01*
X150974500Y-117997869D01*
X150974501Y-117997878D01*
X150978679Y-118036745D01*
X150978679Y-118063250D01*
X150974500Y-118102122D01*
X150974500Y-118647870D01*
X150974501Y-118647876D01*
X150980908Y-118707483D01*
X151031202Y-118842328D01*
X151031206Y-118842335D01*
X151117452Y-118957544D01*
X151117453Y-118957544D01*
X151117454Y-118957546D01*
X151142418Y-118976234D01*
X151184288Y-119032168D01*
X151189272Y-119101860D01*
X151155786Y-119163182D01*
X151094462Y-119196667D01*
X151068106Y-119199500D01*
X150524500Y-119199500D01*
X150457461Y-119179815D01*
X150411706Y-119127011D01*
X150400500Y-119075500D01*
X150400500Y-117785928D01*
X150375502Y-117660261D01*
X150375501Y-117660260D01*
X150375501Y-117660256D01*
X150326465Y-117541873D01*
X150311641Y-117519687D01*
X150255277Y-117435331D01*
X150255275Y-117435328D01*
X150232627Y-117412680D01*
X150199142Y-117351357D01*
X150204126Y-117281665D01*
X150232625Y-117237320D01*
X150505277Y-116964669D01*
X150537234Y-116916839D01*
X150552651Y-116898055D01*
X150633095Y-116817612D01*
X150704283Y-116711070D01*
X150735940Y-116634641D01*
X150779779Y-116580241D01*
X150846072Y-116558175D01*
X150913772Y-116575453D01*
G37*
%TD.AperFunction*%
%TA.AperFunction,Conductor*%
G36*
X147150802Y-114750038D02*
G01*
X147163351Y-114762587D01*
X147163357Y-114762592D01*
X147697205Y-115296440D01*
X147730690Y-115357763D01*
X147732744Y-115370237D01*
X147742537Y-115457156D01*
X147802117Y-115627428D01*
X147821175Y-115657758D01*
X147898091Y-115780169D01*
X148025645Y-115907723D01*
X148113453Y-115962897D01*
X148159744Y-116015231D01*
X148170392Y-116084284D01*
X148142017Y-116148133D01*
X148108484Y-116175193D01*
X148108492Y-116175205D01*
X148108365Y-116175289D01*
X148105946Y-116177242D01*
X148103431Y-116178586D01*
X148028579Y-116228602D01*
X147961902Y-116249480D01*
X147959688Y-116249500D01*
X147643600Y-116249500D01*
X147576561Y-116229815D01*
X147555919Y-116213181D01*
X147061819Y-115719081D01*
X147028334Y-115657758D01*
X147025500Y-115631400D01*
X147025500Y-115135928D01*
X147000502Y-115010261D01*
X147000501Y-115010260D01*
X147000501Y-115010256D01*
X146951465Y-114891873D01*
X146949134Y-114886245D01*
X146951500Y-114885264D01*
X146939517Y-114827811D01*
X146964495Y-114762559D01*
X147020786Y-114721170D01*
X147090518Y-114716784D01*
X147150802Y-114750038D01*
G37*
%TD.AperFunction*%
%TA.AperFunction,Conductor*%
G36*
X149433561Y-115607414D02*
G01*
X149471933Y-115665803D01*
X149477318Y-115701950D01*
X149477318Y-115980555D01*
X149457633Y-116047594D01*
X149404829Y-116093349D01*
X149353318Y-116104555D01*
X149132699Y-116104555D01*
X149065660Y-116084870D01*
X149019905Y-116032066D01*
X149009961Y-115962908D01*
X149038986Y-115899352D01*
X149045018Y-115892874D01*
X149157723Y-115780169D01*
X149248324Y-115635977D01*
X149300659Y-115589687D01*
X149369712Y-115579039D01*
X149433561Y-115607414D01*
G37*
%TD.AperFunction*%
%TA.AperFunction,Conductor*%
G36*
X148563039Y-107509685D02*
G01*
X148608794Y-107562489D01*
X148620000Y-107614000D01*
X148620000Y-108815000D01*
X149142828Y-108815000D01*
X149142844Y-108814999D01*
X149202372Y-108808598D01*
X149202383Y-108808595D01*
X149282166Y-108778838D01*
X149351857Y-108773853D01*
X149413181Y-108807337D01*
X149446666Y-108868660D01*
X149449500Y-108895019D01*
X149449500Y-111723918D01*
X149449500Y-111723920D01*
X149449499Y-111723920D01*
X149478340Y-111868907D01*
X149478343Y-111868917D01*
X149534913Y-112005490D01*
X149534914Y-112005491D01*
X149534916Y-112005495D01*
X149555832Y-112036797D01*
X149555833Y-112036799D01*
X149617049Y-112128417D01*
X149738181Y-112249549D01*
X149771666Y-112310872D01*
X149774500Y-112337230D01*
X149774500Y-112543199D01*
X149754815Y-112610238D01*
X149716473Y-112648192D01*
X149625557Y-112705318D01*
X149498002Y-112832873D01*
X149402029Y-112985612D01*
X149342449Y-113155881D01*
X149342448Y-113155886D01*
X149322253Y-113335132D01*
X149322253Y-113335139D01*
X149342448Y-113514385D01*
X149342449Y-113514390D01*
X149402029Y-113684660D01*
X149458311Y-113774230D01*
X149477318Y-113840203D01*
X149477318Y-114853863D01*
X149457633Y-114920902D01*
X149404829Y-114966657D01*
X149335671Y-114976601D01*
X149272115Y-114947576D01*
X149248324Y-114919835D01*
X149190501Y-114827811D01*
X149157723Y-114775645D01*
X149030169Y-114648091D01*
X149023209Y-114643718D01*
X148877428Y-114552117D01*
X148707156Y-114492537D01*
X148620237Y-114482744D01*
X148555823Y-114455677D01*
X148546440Y-114447205D01*
X148161821Y-114062586D01*
X148128336Y-114001263D01*
X148125502Y-113974905D01*
X148125502Y-109955261D01*
X148125502Y-109955259D01*
X148084579Y-109802532D01*
X148063538Y-109766087D01*
X148005526Y-109665606D01*
X148005523Y-109665602D01*
X148005522Y-109665600D01*
X147893718Y-109553796D01*
X147893717Y-109553795D01*
X147889387Y-109549465D01*
X147889376Y-109549455D01*
X147320124Y-108980203D01*
X147286639Y-108918880D01*
X147291623Y-108849188D01*
X147333495Y-108793255D01*
X147398959Y-108768838D01*
X147451139Y-108776340D01*
X147537623Y-108808597D01*
X147537627Y-108808598D01*
X147597155Y-108814999D01*
X147597172Y-108815000D01*
X148120000Y-108815000D01*
X148120000Y-107990000D01*
X146244000Y-107990000D01*
X146176961Y-107970315D01*
X146131206Y-107917511D01*
X146120000Y-107866000D01*
X146120000Y-107614000D01*
X146139685Y-107546961D01*
X146192489Y-107501206D01*
X146244000Y-107490000D01*
X148496000Y-107490000D01*
X148563039Y-107509685D01*
G37*
%TD.AperFunction*%
%TA.AperFunction,Conductor*%
G36*
X148392638Y-99383439D02*
G01*
X148414803Y-99403655D01*
X148415261Y-99403198D01*
X148420185Y-99408122D01*
X148547739Y-99535676D01*
X148700479Y-99631649D01*
X148767007Y-99654928D01*
X148870746Y-99691228D01*
X148870751Y-99691229D01*
X149049997Y-99711425D01*
X149050001Y-99711425D01*
X149050005Y-99711425D01*
X149229250Y-99691229D01*
X149229253Y-99691228D01*
X149229256Y-99691228D01*
X149229257Y-99691227D01*
X149229260Y-99691227D01*
X149294146Y-99668522D01*
X149363925Y-99664959D01*
X149424553Y-99699688D01*
X149456780Y-99761681D01*
X149450376Y-99831257D01*
X149441835Y-99848683D01*
X149403441Y-99913604D01*
X149403441Y-99913605D01*
X149357413Y-100072031D01*
X149357412Y-100072037D01*
X149354500Y-100109043D01*
X149354500Y-100835936D01*
X149354501Y-100835961D01*
X149357413Y-100872964D01*
X149403441Y-101031394D01*
X149403444Y-101031401D01*
X149438473Y-101090633D01*
X149455656Y-101158357D01*
X149433496Y-101224619D01*
X149406159Y-101246583D01*
X149453951Y-101220487D01*
X149523643Y-101225471D01*
X149567990Y-101253972D01*
X149604085Y-101290067D01*
X149604089Y-101290070D01*
X149604091Y-101290072D01*
X149746101Y-101374057D01*
X149776559Y-101382906D01*
X149904531Y-101420086D01*
X149904534Y-101420086D01*
X149904536Y-101420087D01*
X149941551Y-101423000D01*
X149984580Y-101422999D01*
X150051619Y-101442682D01*
X150072263Y-101459318D01*
X150436980Y-101824035D01*
X150470465Y-101885358D01*
X150465481Y-101955050D01*
X150423614Y-102010979D01*
X150407814Y-102022807D01*
X150407809Y-102022812D01*
X150321649Y-102137906D01*
X150321645Y-102137913D01*
X150271403Y-102272620D01*
X150271401Y-102272627D01*
X150265000Y-102332155D01*
X150265000Y-102640000D01*
X151626000Y-102640000D01*
X151693039Y-102659685D01*
X151738794Y-102712489D01*
X151750000Y-102764000D01*
X151750000Y-103016000D01*
X151730315Y-103083039D01*
X151677511Y-103128794D01*
X151626000Y-103140000D01*
X151111723Y-103140000D01*
X151064274Y-103130562D01*
X151058913Y-103128342D01*
X151058908Y-103128341D01*
X151058907Y-103128340D01*
X150913920Y-103099500D01*
X150913918Y-103099500D01*
X149544499Y-103099500D01*
X149477460Y-103079815D01*
X149431705Y-103027011D01*
X149421562Y-102980388D01*
X149420900Y-102980423D01*
X149420854Y-102980429D01*
X149420853Y-102980426D01*
X149420676Y-102980436D01*
X149420499Y-102977141D01*
X149420499Y-102977128D01*
X149414091Y-102917517D01*
X149406714Y-102897738D01*
X149363797Y-102782670D01*
X149363796Y-102782668D01*
X149357229Y-102773897D01*
X149332809Y-102708433D01*
X149347659Y-102640160D01*
X149357229Y-102625268D01*
X149363351Y-102617089D01*
X149413597Y-102482376D01*
X149413598Y-102482372D01*
X149419999Y-102422844D01*
X149420000Y-102422827D01*
X149420000Y-102250000D01*
X148324000Y-102250000D01*
X148256961Y-102230315D01*
X148211206Y-102177511D01*
X148200000Y-102126000D01*
X148200000Y-101750000D01*
X148700000Y-101750000D01*
X149420000Y-101750000D01*
X149420000Y-101577172D01*
X149419999Y-101577155D01*
X149413598Y-101517627D01*
X149413596Y-101517620D01*
X149364127Y-101384986D01*
X149359143Y-101315295D01*
X149389238Y-101260178D01*
X149379029Y-101268382D01*
X149309549Y-101275751D01*
X149257430Y-101253019D01*
X149162093Y-101181649D01*
X149162086Y-101181645D01*
X149027379Y-101131403D01*
X149027372Y-101131401D01*
X148967844Y-101125000D01*
X148700000Y-101125000D01*
X148700000Y-101750000D01*
X148200000Y-101750000D01*
X148200000Y-101125000D01*
X147932155Y-101125000D01*
X147872627Y-101131401D01*
X147872620Y-101131403D01*
X147737913Y-101181645D01*
X147737906Y-101181649D01*
X147622812Y-101267809D01*
X147622809Y-101267812D01*
X147536649Y-101382906D01*
X147536645Y-101382913D01*
X147486403Y-101517620D01*
X147486401Y-101517627D01*
X147480000Y-101577155D01*
X147480000Y-101870744D01*
X147460315Y-101937783D01*
X147407511Y-101983538D01*
X147356000Y-101994744D01*
X146660663Y-101994744D01*
X146515675Y-102023584D01*
X146515665Y-102023587D01*
X146379094Y-102080156D01*
X146379081Y-102080163D01*
X146256167Y-102162292D01*
X146256163Y-102162295D01*
X145712296Y-102706161D01*
X145712293Y-102706164D01*
X145670004Y-102769454D01*
X145670005Y-102769455D01*
X145630158Y-102829091D01*
X145602490Y-102895884D01*
X145558648Y-102950287D01*
X145512125Y-102970046D01*
X145470427Y-102978341D01*
X145464602Y-102980109D01*
X145464130Y-102978554D01*
X145402466Y-102985175D01*
X145339991Y-102953891D01*
X145304347Y-102893797D01*
X145300500Y-102863148D01*
X145300500Y-101565783D01*
X145320185Y-101498744D01*
X145336819Y-101478102D01*
X145408102Y-101406819D01*
X145469425Y-101373334D01*
X145495783Y-101370500D01*
X146328651Y-101370500D01*
X146328667Y-101370501D01*
X146336263Y-101370501D01*
X146494374Y-101370501D01*
X146494377Y-101370501D01*
X146647105Y-101329577D01*
X146715529Y-101290072D01*
X146784036Y-101250520D01*
X146895840Y-101138716D01*
X146895840Y-101138714D01*
X146906044Y-101128511D01*
X146906048Y-101128506D01*
X147427736Y-100606818D01*
X147489059Y-100573333D01*
X147515417Y-100570499D01*
X147558436Y-100570499D01*
X147558448Y-100570499D01*
X147595464Y-100567587D01*
X147753899Y-100521557D01*
X147895909Y-100437572D01*
X148012572Y-100320909D01*
X148096557Y-100178899D01*
X148142587Y-100020464D01*
X148145500Y-99983449D01*
X148145499Y-99521647D01*
X148165183Y-99454609D01*
X148203523Y-99416657D01*
X148258568Y-99382070D01*
X148325803Y-99363071D01*
X148392638Y-99383439D01*
G37*
%TD.AperFunction*%
%TA.AperFunction,Conductor*%
G36*
X147508272Y-95540184D02*
G01*
X147554027Y-95592988D01*
X147564624Y-95648851D01*
X147565000Y-95648851D01*
X147565000Y-95650832D01*
X147565056Y-95651128D01*
X147565000Y-95652173D01*
X147565000Y-95960000D01*
X148926000Y-95960000D01*
X148993039Y-95979685D01*
X149038794Y-96032489D01*
X149050000Y-96084000D01*
X149050000Y-96295500D01*
X149030315Y-96362539D01*
X148977511Y-96408294D01*
X148926000Y-96419500D01*
X148090942Y-96419500D01*
X147955561Y-96455775D01*
X147923468Y-96460000D01*
X147565000Y-96460000D01*
X147565000Y-96724400D01*
X147545315Y-96791439D01*
X147528681Y-96812081D01*
X147477581Y-96863181D01*
X147416258Y-96896666D01*
X147389900Y-96899500D01*
X147216697Y-96899500D01*
X147149658Y-96879815D01*
X147103903Y-96827011D01*
X147096924Y-96807598D01*
X147079417Y-96742261D01*
X147059577Y-96668215D01*
X147020437Y-96600423D01*
X146980520Y-96531284D01*
X146868716Y-96419480D01*
X146868715Y-96419479D01*
X146864385Y-96415149D01*
X146864374Y-96415139D01*
X146580700Y-96131465D01*
X146547215Y-96070142D01*
X146545163Y-96057686D01*
X146535368Y-95970745D01*
X146475789Y-95800478D01*
X146419234Y-95710471D01*
X146400234Y-95643234D01*
X146420602Y-95576399D01*
X146473870Y-95531185D01*
X146524228Y-95520499D01*
X147441233Y-95520499D01*
X147508272Y-95540184D01*
G37*
%TD.AperFunction*%
%TA.AperFunction,Conductor*%
G36*
X155252208Y-81850185D02*
G01*
X155297963Y-81902989D01*
X155307907Y-81972147D01*
X155281776Y-82030593D01*
X155282279Y-82030945D01*
X155280454Y-82033551D01*
X155280165Y-82034198D01*
X155279175Y-82035377D01*
X155152466Y-82216338D01*
X155152465Y-82216340D01*
X155059107Y-82416548D01*
X155059104Y-82416554D01*
X155001930Y-82629929D01*
X155001929Y-82629937D01*
X154982677Y-82849997D01*
X154982677Y-82850002D01*
X155001929Y-83070062D01*
X155001930Y-83070070D01*
X155059104Y-83283445D01*
X155059105Y-83283447D01*
X155059106Y-83283450D01*
X155070298Y-83307451D01*
X155152466Y-83483662D01*
X155152468Y-83483666D01*
X155279170Y-83664615D01*
X155279175Y-83664621D01*
X155402373Y-83787819D01*
X155435858Y-83849142D01*
X155430874Y-83918834D01*
X155389002Y-83974767D01*
X155323538Y-83999184D01*
X155314694Y-83999500D01*
X155252130Y-83999500D01*
X155252123Y-83999501D01*
X155192516Y-84005908D01*
X155057671Y-84056202D01*
X155057664Y-84056206D01*
X154942455Y-84142452D01*
X154942452Y-84142455D01*
X154856206Y-84257664D01*
X154856202Y-84257671D01*
X154805908Y-84392517D01*
X154799501Y-84452116D01*
X154799500Y-84452135D01*
X154799500Y-85687769D01*
X154779815Y-85754808D01*
X154763181Y-85775450D01*
X153317050Y-87221580D01*
X153317045Y-87221586D01*
X153281205Y-87275224D01*
X153241227Y-87313063D01*
X153170239Y-87355046D01*
X153170234Y-87355050D01*
X153060050Y-87465233D01*
X153060046Y-87465238D01*
X152980726Y-87599361D01*
X152980724Y-87599366D01*
X152937252Y-87748997D01*
X152937251Y-87749003D01*
X152934500Y-87783962D01*
X152934500Y-89516037D01*
X152937251Y-89550996D01*
X152937252Y-89551002D01*
X152980724Y-89700633D01*
X152980726Y-89700638D01*
X153060046Y-89834761D01*
X153060053Y-89834770D01*
X153170229Y-89944946D01*
X153170233Y-89944949D01*
X153170235Y-89944951D01*
X153304362Y-90024274D01*
X153330880Y-90031978D01*
X153453997Y-90067747D01*
X153454000Y-90067747D01*
X153454002Y-90067748D01*
X153488968Y-90070500D01*
X153488974Y-90070500D01*
X154311026Y-90070500D01*
X154311032Y-90070500D01*
X154345998Y-90067748D01*
X154346000Y-90067747D01*
X154346002Y-90067747D01*
X154385458Y-90056283D01*
X154495638Y-90024274D01*
X154629765Y-89944951D01*
X154660858Y-89913858D01*
X154722180Y-89880372D01*
X154791872Y-89885356D01*
X154847806Y-89927226D01*
X154872224Y-89992690D01*
X154868746Y-90031978D01*
X154813866Y-90248691D01*
X154813866Y-90248695D01*
X154794700Y-90480000D01*
X154794700Y-90480003D01*
X154794277Y-90485112D01*
X154791934Y-90484917D01*
X154775015Y-90542539D01*
X154722211Y-90588294D01*
X154670700Y-90599500D01*
X151011230Y-90599500D01*
X150944191Y-90579815D01*
X150898436Y-90527011D01*
X150888492Y-90457853D01*
X150917517Y-90394297D01*
X150923549Y-90387819D01*
X151204549Y-90106819D01*
X151265872Y-90073334D01*
X151292230Y-90070500D01*
X152011026Y-90070500D01*
X152011032Y-90070500D01*
X152045998Y-90067748D01*
X152046000Y-90067747D01*
X152046002Y-90067747D01*
X152085458Y-90056283D01*
X152195638Y-90024274D01*
X152329765Y-89944951D01*
X152439951Y-89834765D01*
X152519274Y-89700638D01*
X152562748Y-89550998D01*
X152565500Y-89516032D01*
X152565500Y-87783968D01*
X152562748Y-87749002D01*
X152537689Y-87662749D01*
X152519275Y-87599366D01*
X152519274Y-87599362D01*
X152439951Y-87465235D01*
X152439949Y-87465233D01*
X152439946Y-87465229D01*
X152329770Y-87355053D01*
X152329761Y-87355046D01*
X152222263Y-87291472D01*
X152195638Y-87275726D01*
X152195637Y-87275725D01*
X152188923Y-87271755D01*
X152189778Y-87270307D01*
X152143288Y-87231616D01*
X152122275Y-87164981D01*
X152122250Y-87162515D01*
X152122250Y-87075508D01*
X152141935Y-87008469D01*
X152170088Y-86977655D01*
X152262038Y-86906087D01*
X152316058Y-86864042D01*
X152472019Y-86694623D01*
X152597967Y-86501845D01*
X152690467Y-86290966D01*
X152746996Y-86067738D01*
X152755571Y-85964250D01*
X152766012Y-85838255D01*
X152766012Y-85838244D01*
X152746996Y-85608765D01*
X152746996Y-85608762D01*
X152690467Y-85385534D01*
X152597967Y-85174655D01*
X152519974Y-85055277D01*
X152472021Y-84981879D01*
X152449785Y-84957725D01*
X152364467Y-84865044D01*
X152333546Y-84802391D01*
X152341406Y-84732965D01*
X152385553Y-84678810D01*
X152412365Y-84664881D01*
X152503078Y-84631047D01*
X152503077Y-84631047D01*
X152503081Y-84631046D01*
X152618296Y-84544796D01*
X152704546Y-84429581D01*
X152754841Y-84294733D01*
X152761250Y-84235123D01*
X152761249Y-82361378D01*
X152754841Y-82301767D01*
X152743912Y-82272466D01*
X152704547Y-82166921D01*
X152704543Y-82166914D01*
X152618297Y-82051705D01*
X152612025Y-82045433D01*
X152613618Y-82043839D01*
X152579179Y-81997831D01*
X152574196Y-81928140D01*
X152607682Y-81866817D01*
X152669006Y-81833333D01*
X152695362Y-81830500D01*
X155185169Y-81830500D01*
X155252208Y-81850185D01*
G37*
%TD.AperFunction*%
%TA.AperFunction,Conductor*%
G36*
X155070703Y-88779849D02*
G01*
X155087655Y-88799268D01*
X155088264Y-88798795D01*
X155091411Y-88802838D01*
X155248558Y-88973545D01*
X155248562Y-88973548D01*
X155426225Y-89111829D01*
X155467038Y-89168539D01*
X155470713Y-89238312D01*
X155436081Y-89298995D01*
X155426226Y-89307535D01*
X155248218Y-89446085D01*
X155248216Y-89446086D01*
X155248216Y-89446087D01*
X155162534Y-89539163D01*
X155091011Y-89616858D01*
X155087863Y-89620903D01*
X155086995Y-89620228D01*
X155037943Y-89662079D01*
X154968711Y-89671493D01*
X154905379Y-89641983D01*
X154868056Y-89582917D01*
X154863679Y-89539163D01*
X154865500Y-89516032D01*
X154865500Y-88873562D01*
X154885185Y-88806523D01*
X154937989Y-88760768D01*
X155007147Y-88750824D01*
X155070703Y-88779849D01*
G37*
%TD.AperFunction*%
%TA.AperFunction,Conductor*%
G36*
X150540584Y-87161166D02*
G01*
X150596517Y-87203038D01*
X150620934Y-87268502D01*
X150621250Y-87277348D01*
X150621250Y-88495670D01*
X150621847Y-88501733D01*
X150619212Y-88501992D01*
X150613936Y-88560204D01*
X150586280Y-88602350D01*
X150324950Y-88863681D01*
X150263627Y-88897166D01*
X150237269Y-88900000D01*
X149174000Y-88900000D01*
X149106961Y-88880315D01*
X149061206Y-88827511D01*
X149050000Y-88776000D01*
X149050000Y-88524000D01*
X149069685Y-88456961D01*
X149122489Y-88411206D01*
X149174000Y-88400000D01*
X150265000Y-88400000D01*
X150265000Y-87784019D01*
X150264999Y-87784004D01*
X150262251Y-87749082D01*
X150262250Y-87749076D01*
X150218813Y-87599566D01*
X150218811Y-87599563D01*
X150186335Y-87544648D01*
X150169152Y-87476924D01*
X150191312Y-87410661D01*
X150205375Y-87393858D01*
X150408506Y-87190728D01*
X150408511Y-87190724D01*
X150409569Y-87189667D01*
X150411258Y-87188744D01*
X150440728Y-87167504D01*
X150440734Y-87167501D01*
X150442756Y-87171545D01*
X150470892Y-87156182D01*
X150540584Y-87161166D01*
G37*
%TD.AperFunction*%
%TA.AperFunction,Conductor*%
G36*
X144953918Y-85170185D02*
G01*
X144999673Y-85222989D01*
X145009617Y-85292147D01*
X145000435Y-85324311D01*
X144973507Y-85385699D01*
X144922214Y-85588249D01*
X144922214Y-85588250D01*
X145858738Y-85588250D01*
X145825825Y-85645257D01*
X145791750Y-85772424D01*
X145791750Y-85904076D01*
X145825825Y-86031243D01*
X145858738Y-86088250D01*
X144922214Y-86088250D01*
X144973507Y-86290803D01*
X145065974Y-86501605D01*
X145191876Y-86694312D01*
X145347779Y-86863669D01*
X145347789Y-86863678D01*
X145529427Y-87005053D01*
X145529433Y-87005057D01*
X145735259Y-87116445D01*
X145784849Y-87165665D01*
X145799957Y-87233881D01*
X145775787Y-87299437D01*
X145720011Y-87341518D01*
X145676241Y-87349500D01*
X144492782Y-87349500D01*
X144425743Y-87329815D01*
X144387788Y-87291472D01*
X144378913Y-87277348D01*
X144329816Y-87199210D01*
X144202262Y-87071656D01*
X144202261Y-87071655D01*
X144158528Y-87044176D01*
X144112237Y-86991842D01*
X144100500Y-86939182D01*
X144100500Y-85550097D01*
X144120185Y-85483058D01*
X144136819Y-85462416D01*
X144412416Y-85186819D01*
X144473739Y-85153334D01*
X144500097Y-85150500D01*
X144886879Y-85150500D01*
X144953918Y-85170185D01*
G37*
%TD.AperFunction*%
%TD*%
M02*
