%TF.GenerationSoftware,KiCad,Pcbnew,8.0.2*%
%TF.CreationDate,2024-06-13T12:09:12+05:30*%
%TF.ProjectId,arduino nano,61726475-696e-46f2-906e-616e6f2e6b69,rev?*%
%TF.SameCoordinates,Original*%
%TF.FileFunction,Legend,Bot*%
%TF.FilePolarity,Positive*%
%FSLAX46Y46*%
G04 Gerber Fmt 4.6, Leading zero omitted, Abs format (unit mm)*
G04 Created by KiCad (PCBNEW 8.0.2) date 2024-06-13 12:09:12*
%MOMM*%
%LPD*%
G01*
G04 APERTURE LIST*
%ADD10C,0.254000*%
%ADD11C,0.120000*%
%ADD12C,0.150000*%
%ADD13C,0.125000*%
%ADD14C,0.127000*%
%ADD15C,0.200000*%
G04 APERTURE END LIST*
D10*
X145903365Y-90538333D02*
X145963842Y-90477857D01*
X145963842Y-90477857D02*
X146024318Y-90296428D01*
X146024318Y-90296428D02*
X146024318Y-90175476D01*
X146024318Y-90175476D02*
X145963842Y-89994047D01*
X145963842Y-89994047D02*
X145842889Y-89873095D01*
X145842889Y-89873095D02*
X145721937Y-89812618D01*
X145721937Y-89812618D02*
X145480032Y-89752142D01*
X145480032Y-89752142D02*
X145298603Y-89752142D01*
X145298603Y-89752142D02*
X145056699Y-89812618D01*
X145056699Y-89812618D02*
X144935746Y-89873095D01*
X144935746Y-89873095D02*
X144814794Y-89994047D01*
X144814794Y-89994047D02*
X144754318Y-90175476D01*
X144754318Y-90175476D02*
X144754318Y-90296428D01*
X144754318Y-90296428D02*
X144814794Y-90477857D01*
X144814794Y-90477857D02*
X144875270Y-90538333D01*
X144754318Y-90961666D02*
X144754318Y-91747857D01*
X144754318Y-91747857D02*
X145238127Y-91324523D01*
X145238127Y-91324523D02*
X145238127Y-91505952D01*
X145238127Y-91505952D02*
X145298603Y-91626904D01*
X145298603Y-91626904D02*
X145359080Y-91687380D01*
X145359080Y-91687380D02*
X145480032Y-91747857D01*
X145480032Y-91747857D02*
X145782413Y-91747857D01*
X145782413Y-91747857D02*
X145903365Y-91687380D01*
X145903365Y-91687380D02*
X145963842Y-91626904D01*
X145963842Y-91626904D02*
X146024318Y-91505952D01*
X146024318Y-91505952D02*
X146024318Y-91143095D01*
X146024318Y-91143095D02*
X145963842Y-91022142D01*
X145963842Y-91022142D02*
X145903365Y-90961666D01*
D11*
X148670617Y-98476000D02*
X148442045Y-98316000D01*
X148670617Y-98201714D02*
X148190617Y-98201714D01*
X148190617Y-98201714D02*
X148190617Y-98384571D01*
X148190617Y-98384571D02*
X148213474Y-98430286D01*
X148213474Y-98430286D02*
X148236331Y-98453143D01*
X148236331Y-98453143D02*
X148282045Y-98476000D01*
X148282045Y-98476000D02*
X148350617Y-98476000D01*
X148350617Y-98476000D02*
X148396331Y-98453143D01*
X148396331Y-98453143D02*
X148419188Y-98430286D01*
X148419188Y-98430286D02*
X148442045Y-98384571D01*
X148442045Y-98384571D02*
X148442045Y-98201714D01*
X148670617Y-98681714D02*
X148190617Y-98681714D01*
X148190617Y-98681714D02*
X148190617Y-98864571D01*
X148190617Y-98864571D02*
X148213474Y-98910286D01*
X148213474Y-98910286D02*
X148236331Y-98933143D01*
X148236331Y-98933143D02*
X148282045Y-98956000D01*
X148282045Y-98956000D02*
X148350617Y-98956000D01*
X148350617Y-98956000D02*
X148396331Y-98933143D01*
X148396331Y-98933143D02*
X148419188Y-98910286D01*
X148419188Y-98910286D02*
X148442045Y-98864571D01*
X148442045Y-98864571D02*
X148442045Y-98681714D01*
X148236331Y-99138857D02*
X148213474Y-99161714D01*
X148213474Y-99161714D02*
X148190617Y-99207429D01*
X148190617Y-99207429D02*
X148190617Y-99321714D01*
X148190617Y-99321714D02*
X148213474Y-99367429D01*
X148213474Y-99367429D02*
X148236331Y-99390286D01*
X148236331Y-99390286D02*
X148282045Y-99413143D01*
X148282045Y-99413143D02*
X148327760Y-99413143D01*
X148327760Y-99413143D02*
X148396331Y-99390286D01*
X148396331Y-99390286D02*
X148670617Y-99116000D01*
X148670617Y-99116000D02*
X148670617Y-99413143D01*
D12*
X152647618Y-91297295D02*
X152380951Y-92097295D01*
X152380951Y-92097295D02*
X152114285Y-91297295D01*
X151390475Y-92097295D02*
X151657142Y-91716342D01*
X151847618Y-92097295D02*
X151847618Y-91297295D01*
X151847618Y-91297295D02*
X151542856Y-91297295D01*
X151542856Y-91297295D02*
X151466666Y-91335390D01*
X151466666Y-91335390D02*
X151428571Y-91373485D01*
X151428571Y-91373485D02*
X151390475Y-91449676D01*
X151390475Y-91449676D02*
X151390475Y-91563961D01*
X151390475Y-91563961D02*
X151428571Y-91640152D01*
X151428571Y-91640152D02*
X151466666Y-91678247D01*
X151466666Y-91678247D02*
X151542856Y-91716342D01*
X151542856Y-91716342D02*
X151847618Y-91716342D01*
X150628571Y-92097295D02*
X151085714Y-92097295D01*
X150857142Y-92097295D02*
X150857142Y-91297295D01*
X150857142Y-91297295D02*
X150933333Y-91411580D01*
X150933333Y-91411580D02*
X151009523Y-91487771D01*
X151009523Y-91487771D02*
X151085714Y-91525866D01*
D13*
X145077190Y-90866666D02*
X145101000Y-90842857D01*
X145101000Y-90842857D02*
X145124809Y-90771428D01*
X145124809Y-90771428D02*
X145124809Y-90723809D01*
X145124809Y-90723809D02*
X145101000Y-90652381D01*
X145101000Y-90652381D02*
X145053380Y-90604762D01*
X145053380Y-90604762D02*
X145005761Y-90580952D01*
X145005761Y-90580952D02*
X144910523Y-90557143D01*
X144910523Y-90557143D02*
X144839095Y-90557143D01*
X144839095Y-90557143D02*
X144743857Y-90580952D01*
X144743857Y-90580952D02*
X144696238Y-90604762D01*
X144696238Y-90604762D02*
X144648619Y-90652381D01*
X144648619Y-90652381D02*
X144624809Y-90723809D01*
X144624809Y-90723809D02*
X144624809Y-90771428D01*
X144624809Y-90771428D02*
X144648619Y-90842857D01*
X144648619Y-90842857D02*
X144672428Y-90866666D01*
X145124809Y-91104762D02*
X145124809Y-91200000D01*
X145124809Y-91200000D02*
X145101000Y-91247619D01*
X145101000Y-91247619D02*
X145077190Y-91271428D01*
X145077190Y-91271428D02*
X145005761Y-91319047D01*
X145005761Y-91319047D02*
X144910523Y-91342857D01*
X144910523Y-91342857D02*
X144720047Y-91342857D01*
X144720047Y-91342857D02*
X144672428Y-91319047D01*
X144672428Y-91319047D02*
X144648619Y-91295238D01*
X144648619Y-91295238D02*
X144624809Y-91247619D01*
X144624809Y-91247619D02*
X144624809Y-91152381D01*
X144624809Y-91152381D02*
X144648619Y-91104762D01*
X144648619Y-91104762D02*
X144672428Y-91080952D01*
X144672428Y-91080952D02*
X144720047Y-91057143D01*
X144720047Y-91057143D02*
X144839095Y-91057143D01*
X144839095Y-91057143D02*
X144886714Y-91080952D01*
X144886714Y-91080952D02*
X144910523Y-91104762D01*
X144910523Y-91104762D02*
X144934333Y-91152381D01*
X144934333Y-91152381D02*
X144934333Y-91247619D01*
X144934333Y-91247619D02*
X144910523Y-91295238D01*
X144910523Y-91295238D02*
X144886714Y-91319047D01*
X144886714Y-91319047D02*
X144839095Y-91342857D01*
X154533333Y-119877190D02*
X154557142Y-119901000D01*
X154557142Y-119901000D02*
X154628571Y-119924809D01*
X154628571Y-119924809D02*
X154676190Y-119924809D01*
X154676190Y-119924809D02*
X154747618Y-119901000D01*
X154747618Y-119901000D02*
X154795237Y-119853380D01*
X154795237Y-119853380D02*
X154819047Y-119805761D01*
X154819047Y-119805761D02*
X154842856Y-119710523D01*
X154842856Y-119710523D02*
X154842856Y-119639095D01*
X154842856Y-119639095D02*
X154819047Y-119543857D01*
X154819047Y-119543857D02*
X154795237Y-119496238D01*
X154795237Y-119496238D02*
X154747618Y-119448619D01*
X154747618Y-119448619D02*
X154676190Y-119424809D01*
X154676190Y-119424809D02*
X154628571Y-119424809D01*
X154628571Y-119424809D02*
X154557142Y-119448619D01*
X154557142Y-119448619D02*
X154533333Y-119472428D01*
X154057142Y-119924809D02*
X154342856Y-119924809D01*
X154199999Y-119924809D02*
X154199999Y-119424809D01*
X154199999Y-119424809D02*
X154247618Y-119496238D01*
X154247618Y-119496238D02*
X154295237Y-119543857D01*
X154295237Y-119543857D02*
X154342856Y-119567666D01*
X146403333Y-105067190D02*
X146427142Y-105091000D01*
X146427142Y-105091000D02*
X146498571Y-105114809D01*
X146498571Y-105114809D02*
X146546190Y-105114809D01*
X146546190Y-105114809D02*
X146617618Y-105091000D01*
X146617618Y-105091000D02*
X146665237Y-105043380D01*
X146665237Y-105043380D02*
X146689047Y-104995761D01*
X146689047Y-104995761D02*
X146712856Y-104900523D01*
X146712856Y-104900523D02*
X146712856Y-104829095D01*
X146712856Y-104829095D02*
X146689047Y-104733857D01*
X146689047Y-104733857D02*
X146665237Y-104686238D01*
X146665237Y-104686238D02*
X146617618Y-104638619D01*
X146617618Y-104638619D02*
X146546190Y-104614809D01*
X146546190Y-104614809D02*
X146498571Y-104614809D01*
X146498571Y-104614809D02*
X146427142Y-104638619D01*
X146427142Y-104638619D02*
X146403333Y-104662428D01*
X145950952Y-104614809D02*
X146189047Y-104614809D01*
X146189047Y-104614809D02*
X146212856Y-104852904D01*
X146212856Y-104852904D02*
X146189047Y-104829095D01*
X146189047Y-104829095D02*
X146141428Y-104805285D01*
X146141428Y-104805285D02*
X146022380Y-104805285D01*
X146022380Y-104805285D02*
X145974761Y-104829095D01*
X145974761Y-104829095D02*
X145950952Y-104852904D01*
X145950952Y-104852904D02*
X145927142Y-104900523D01*
X145927142Y-104900523D02*
X145927142Y-105019571D01*
X145927142Y-105019571D02*
X145950952Y-105067190D01*
X145950952Y-105067190D02*
X145974761Y-105091000D01*
X145974761Y-105091000D02*
X146022380Y-105114809D01*
X146022380Y-105114809D02*
X146141428Y-105114809D01*
X146141428Y-105114809D02*
X146189047Y-105091000D01*
X146189047Y-105091000D02*
X146212856Y-105067190D01*
X151971428Y-109127190D02*
X151995237Y-109151000D01*
X151995237Y-109151000D02*
X152066666Y-109174809D01*
X152066666Y-109174809D02*
X152114285Y-109174809D01*
X152114285Y-109174809D02*
X152185713Y-109151000D01*
X152185713Y-109151000D02*
X152233332Y-109103380D01*
X152233332Y-109103380D02*
X152257142Y-109055761D01*
X152257142Y-109055761D02*
X152280951Y-108960523D01*
X152280951Y-108960523D02*
X152280951Y-108889095D01*
X152280951Y-108889095D02*
X152257142Y-108793857D01*
X152257142Y-108793857D02*
X152233332Y-108746238D01*
X152233332Y-108746238D02*
X152185713Y-108698619D01*
X152185713Y-108698619D02*
X152114285Y-108674809D01*
X152114285Y-108674809D02*
X152066666Y-108674809D01*
X152066666Y-108674809D02*
X151995237Y-108698619D01*
X151995237Y-108698619D02*
X151971428Y-108722428D01*
X151495237Y-109174809D02*
X151780951Y-109174809D01*
X151638094Y-109174809D02*
X151638094Y-108674809D01*
X151638094Y-108674809D02*
X151685713Y-108746238D01*
X151685713Y-108746238D02*
X151733332Y-108793857D01*
X151733332Y-108793857D02*
X151780951Y-108817666D01*
X151185714Y-108674809D02*
X151138095Y-108674809D01*
X151138095Y-108674809D02*
X151090476Y-108698619D01*
X151090476Y-108698619D02*
X151066666Y-108722428D01*
X151066666Y-108722428D02*
X151042857Y-108770047D01*
X151042857Y-108770047D02*
X151019047Y-108865285D01*
X151019047Y-108865285D02*
X151019047Y-108984333D01*
X151019047Y-108984333D02*
X151042857Y-109079571D01*
X151042857Y-109079571D02*
X151066666Y-109127190D01*
X151066666Y-109127190D02*
X151090476Y-109151000D01*
X151090476Y-109151000D02*
X151138095Y-109174809D01*
X151138095Y-109174809D02*
X151185714Y-109174809D01*
X151185714Y-109174809D02*
X151233333Y-109151000D01*
X151233333Y-109151000D02*
X151257142Y-109127190D01*
X151257142Y-109127190D02*
X151280952Y-109079571D01*
X151280952Y-109079571D02*
X151304761Y-108984333D01*
X151304761Y-108984333D02*
X151304761Y-108865285D01*
X151304761Y-108865285D02*
X151280952Y-108770047D01*
X151280952Y-108770047D02*
X151257142Y-108722428D01*
X151257142Y-108722428D02*
X151233333Y-108698619D01*
X151233333Y-108698619D02*
X151185714Y-108674809D01*
D12*
X146034523Y-91387295D02*
X146034523Y-92034914D01*
X146034523Y-92034914D02*
X145996428Y-92111104D01*
X145996428Y-92111104D02*
X145958333Y-92149200D01*
X145958333Y-92149200D02*
X145882142Y-92187295D01*
X145882142Y-92187295D02*
X145729761Y-92187295D01*
X145729761Y-92187295D02*
X145653571Y-92149200D01*
X145653571Y-92149200D02*
X145615476Y-92111104D01*
X145615476Y-92111104D02*
X145577380Y-92034914D01*
X145577380Y-92034914D02*
X145577380Y-91387295D01*
X145234524Y-91463485D02*
X145196428Y-91425390D01*
X145196428Y-91425390D02*
X145120238Y-91387295D01*
X145120238Y-91387295D02*
X144929762Y-91387295D01*
X144929762Y-91387295D02*
X144853571Y-91425390D01*
X144853571Y-91425390D02*
X144815476Y-91463485D01*
X144815476Y-91463485D02*
X144777381Y-91539676D01*
X144777381Y-91539676D02*
X144777381Y-91615866D01*
X144777381Y-91615866D02*
X144815476Y-91730152D01*
X144815476Y-91730152D02*
X145272619Y-92187295D01*
X145272619Y-92187295D02*
X144777381Y-92187295D01*
D13*
X154416665Y-120862904D02*
X154583332Y-120862904D01*
X154583332Y-121124809D02*
X154583332Y-120624809D01*
X154583332Y-120624809D02*
X154345237Y-120624809D01*
X154178570Y-120672428D02*
X154154761Y-120648619D01*
X154154761Y-120648619D02*
X154107142Y-120624809D01*
X154107142Y-120624809D02*
X153988094Y-120624809D01*
X153988094Y-120624809D02*
X153940475Y-120648619D01*
X153940475Y-120648619D02*
X153916666Y-120672428D01*
X153916666Y-120672428D02*
X153892856Y-120720047D01*
X153892856Y-120720047D02*
X153892856Y-120767666D01*
X153892856Y-120767666D02*
X153916666Y-120839095D01*
X153916666Y-120839095D02*
X154202380Y-121124809D01*
X154202380Y-121124809D02*
X153892856Y-121124809D01*
D12*
X149359523Y-113712295D02*
X149359523Y-114359914D01*
X149359523Y-114359914D02*
X149321428Y-114436104D01*
X149321428Y-114436104D02*
X149283333Y-114474200D01*
X149283333Y-114474200D02*
X149207142Y-114512295D01*
X149207142Y-114512295D02*
X149054761Y-114512295D01*
X149054761Y-114512295D02*
X148978571Y-114474200D01*
X148978571Y-114474200D02*
X148940476Y-114436104D01*
X148940476Y-114436104D02*
X148902380Y-114359914D01*
X148902380Y-114359914D02*
X148902380Y-113712295D01*
X148597619Y-113712295D02*
X148102381Y-113712295D01*
X148102381Y-113712295D02*
X148369047Y-114017057D01*
X148369047Y-114017057D02*
X148254762Y-114017057D01*
X148254762Y-114017057D02*
X148178571Y-114055152D01*
X148178571Y-114055152D02*
X148140476Y-114093247D01*
X148140476Y-114093247D02*
X148102381Y-114169438D01*
X148102381Y-114169438D02*
X148102381Y-114359914D01*
X148102381Y-114359914D02*
X148140476Y-114436104D01*
X148140476Y-114436104D02*
X148178571Y-114474200D01*
X148178571Y-114474200D02*
X148254762Y-114512295D01*
X148254762Y-114512295D02*
X148483333Y-114512295D01*
X148483333Y-114512295D02*
X148559524Y-114474200D01*
X148559524Y-114474200D02*
X148597619Y-114436104D01*
D13*
X149647190Y-106756666D02*
X149671000Y-106732857D01*
X149671000Y-106732857D02*
X149694809Y-106661428D01*
X149694809Y-106661428D02*
X149694809Y-106613809D01*
X149694809Y-106613809D02*
X149671000Y-106542381D01*
X149671000Y-106542381D02*
X149623380Y-106494762D01*
X149623380Y-106494762D02*
X149575761Y-106470952D01*
X149575761Y-106470952D02*
X149480523Y-106447143D01*
X149480523Y-106447143D02*
X149409095Y-106447143D01*
X149409095Y-106447143D02*
X149313857Y-106470952D01*
X149313857Y-106470952D02*
X149266238Y-106494762D01*
X149266238Y-106494762D02*
X149218619Y-106542381D01*
X149218619Y-106542381D02*
X149194809Y-106613809D01*
X149194809Y-106613809D02*
X149194809Y-106661428D01*
X149194809Y-106661428D02*
X149218619Y-106732857D01*
X149218619Y-106732857D02*
X149242428Y-106756666D01*
X149194809Y-107185238D02*
X149194809Y-107090000D01*
X149194809Y-107090000D02*
X149218619Y-107042381D01*
X149218619Y-107042381D02*
X149242428Y-107018571D01*
X149242428Y-107018571D02*
X149313857Y-106970952D01*
X149313857Y-106970952D02*
X149409095Y-106947143D01*
X149409095Y-106947143D02*
X149599571Y-106947143D01*
X149599571Y-106947143D02*
X149647190Y-106970952D01*
X149647190Y-106970952D02*
X149671000Y-106994762D01*
X149671000Y-106994762D02*
X149694809Y-107042381D01*
X149694809Y-107042381D02*
X149694809Y-107137619D01*
X149694809Y-107137619D02*
X149671000Y-107185238D01*
X149671000Y-107185238D02*
X149647190Y-107209047D01*
X149647190Y-107209047D02*
X149599571Y-107232857D01*
X149599571Y-107232857D02*
X149480523Y-107232857D01*
X149480523Y-107232857D02*
X149432904Y-107209047D01*
X149432904Y-107209047D02*
X149409095Y-107185238D01*
X149409095Y-107185238D02*
X149385285Y-107137619D01*
X149385285Y-107137619D02*
X149385285Y-107042381D01*
X149385285Y-107042381D02*
X149409095Y-106994762D01*
X149409095Y-106994762D02*
X149432904Y-106970952D01*
X149432904Y-106970952D02*
X149480523Y-106947143D01*
X146877190Y-120678571D02*
X146901000Y-120654762D01*
X146901000Y-120654762D02*
X146924809Y-120583333D01*
X146924809Y-120583333D02*
X146924809Y-120535714D01*
X146924809Y-120535714D02*
X146901000Y-120464286D01*
X146901000Y-120464286D02*
X146853380Y-120416667D01*
X146853380Y-120416667D02*
X146805761Y-120392857D01*
X146805761Y-120392857D02*
X146710523Y-120369048D01*
X146710523Y-120369048D02*
X146639095Y-120369048D01*
X146639095Y-120369048D02*
X146543857Y-120392857D01*
X146543857Y-120392857D02*
X146496238Y-120416667D01*
X146496238Y-120416667D02*
X146448619Y-120464286D01*
X146448619Y-120464286D02*
X146424809Y-120535714D01*
X146424809Y-120535714D02*
X146424809Y-120583333D01*
X146424809Y-120583333D02*
X146448619Y-120654762D01*
X146448619Y-120654762D02*
X146472428Y-120678571D01*
X146924809Y-121154762D02*
X146924809Y-120869048D01*
X146924809Y-121011905D02*
X146424809Y-121011905D01*
X146424809Y-121011905D02*
X146496238Y-120964286D01*
X146496238Y-120964286D02*
X146543857Y-120916667D01*
X146543857Y-120916667D02*
X146567666Y-120869048D01*
X146924809Y-121630952D02*
X146924809Y-121345238D01*
X146924809Y-121488095D02*
X146424809Y-121488095D01*
X146424809Y-121488095D02*
X146496238Y-121440476D01*
X146496238Y-121440476D02*
X146543857Y-121392857D01*
X146543857Y-121392857D02*
X146567666Y-121345238D01*
X148533333Y-124877190D02*
X148557142Y-124901000D01*
X148557142Y-124901000D02*
X148628571Y-124924809D01*
X148628571Y-124924809D02*
X148676190Y-124924809D01*
X148676190Y-124924809D02*
X148747618Y-124901000D01*
X148747618Y-124901000D02*
X148795237Y-124853380D01*
X148795237Y-124853380D02*
X148819047Y-124805761D01*
X148819047Y-124805761D02*
X148842856Y-124710523D01*
X148842856Y-124710523D02*
X148842856Y-124639095D01*
X148842856Y-124639095D02*
X148819047Y-124543857D01*
X148819047Y-124543857D02*
X148795237Y-124496238D01*
X148795237Y-124496238D02*
X148747618Y-124448619D01*
X148747618Y-124448619D02*
X148676190Y-124424809D01*
X148676190Y-124424809D02*
X148628571Y-124424809D01*
X148628571Y-124424809D02*
X148557142Y-124448619D01*
X148557142Y-124448619D02*
X148533333Y-124472428D01*
X148247618Y-124639095D02*
X148295237Y-124615285D01*
X148295237Y-124615285D02*
X148319047Y-124591476D01*
X148319047Y-124591476D02*
X148342856Y-124543857D01*
X148342856Y-124543857D02*
X148342856Y-124520047D01*
X148342856Y-124520047D02*
X148319047Y-124472428D01*
X148319047Y-124472428D02*
X148295237Y-124448619D01*
X148295237Y-124448619D02*
X148247618Y-124424809D01*
X148247618Y-124424809D02*
X148152380Y-124424809D01*
X148152380Y-124424809D02*
X148104761Y-124448619D01*
X148104761Y-124448619D02*
X148080952Y-124472428D01*
X148080952Y-124472428D02*
X148057142Y-124520047D01*
X148057142Y-124520047D02*
X148057142Y-124543857D01*
X148057142Y-124543857D02*
X148080952Y-124591476D01*
X148080952Y-124591476D02*
X148104761Y-124615285D01*
X148104761Y-124615285D02*
X148152380Y-124639095D01*
X148152380Y-124639095D02*
X148247618Y-124639095D01*
X148247618Y-124639095D02*
X148295237Y-124662904D01*
X148295237Y-124662904D02*
X148319047Y-124686714D01*
X148319047Y-124686714D02*
X148342856Y-124734333D01*
X148342856Y-124734333D02*
X148342856Y-124829571D01*
X148342856Y-124829571D02*
X148319047Y-124877190D01*
X148319047Y-124877190D02*
X148295237Y-124901000D01*
X148295237Y-124901000D02*
X148247618Y-124924809D01*
X148247618Y-124924809D02*
X148152380Y-124924809D01*
X148152380Y-124924809D02*
X148104761Y-124901000D01*
X148104761Y-124901000D02*
X148080952Y-124877190D01*
X148080952Y-124877190D02*
X148057142Y-124829571D01*
X148057142Y-124829571D02*
X148057142Y-124734333D01*
X148057142Y-124734333D02*
X148080952Y-124686714D01*
X148080952Y-124686714D02*
X148104761Y-124662904D01*
X148104761Y-124662904D02*
X148152380Y-124639095D01*
D10*
X149253365Y-95188333D02*
X149313842Y-95127857D01*
X149313842Y-95127857D02*
X149374318Y-94946428D01*
X149374318Y-94946428D02*
X149374318Y-94825476D01*
X149374318Y-94825476D02*
X149313842Y-94644047D01*
X149313842Y-94644047D02*
X149192889Y-94523095D01*
X149192889Y-94523095D02*
X149071937Y-94462618D01*
X149071937Y-94462618D02*
X148830032Y-94402142D01*
X148830032Y-94402142D02*
X148648603Y-94402142D01*
X148648603Y-94402142D02*
X148406699Y-94462618D01*
X148406699Y-94462618D02*
X148285746Y-94523095D01*
X148285746Y-94523095D02*
X148164794Y-94644047D01*
X148164794Y-94644047D02*
X148104318Y-94825476D01*
X148104318Y-94825476D02*
X148104318Y-94946428D01*
X148104318Y-94946428D02*
X148164794Y-95127857D01*
X148164794Y-95127857D02*
X148225270Y-95188333D01*
X148104318Y-95611666D02*
X148104318Y-96458333D01*
X148104318Y-96458333D02*
X149374318Y-95914047D01*
X148903365Y-102488333D02*
X148963842Y-102427857D01*
X148963842Y-102427857D02*
X149024318Y-102246428D01*
X149024318Y-102246428D02*
X149024318Y-102125476D01*
X149024318Y-102125476D02*
X148963842Y-101944047D01*
X148963842Y-101944047D02*
X148842889Y-101823095D01*
X148842889Y-101823095D02*
X148721937Y-101762618D01*
X148721937Y-101762618D02*
X148480032Y-101702142D01*
X148480032Y-101702142D02*
X148298603Y-101702142D01*
X148298603Y-101702142D02*
X148056699Y-101762618D01*
X148056699Y-101762618D02*
X147935746Y-101823095D01*
X147935746Y-101823095D02*
X147814794Y-101944047D01*
X147814794Y-101944047D02*
X147754318Y-102125476D01*
X147754318Y-102125476D02*
X147754318Y-102246428D01*
X147754318Y-102246428D02*
X147814794Y-102427857D01*
X147814794Y-102427857D02*
X147875270Y-102488333D01*
X148177651Y-103576904D02*
X149024318Y-103576904D01*
X147693842Y-103274523D02*
X148600984Y-102972142D01*
X148600984Y-102972142D02*
X148600984Y-103758333D01*
X151953365Y-103488333D02*
X152013842Y-103427857D01*
X152013842Y-103427857D02*
X152074318Y-103246428D01*
X152074318Y-103246428D02*
X152074318Y-103125476D01*
X152074318Y-103125476D02*
X152013842Y-102944047D01*
X152013842Y-102944047D02*
X151892889Y-102823095D01*
X151892889Y-102823095D02*
X151771937Y-102762618D01*
X151771937Y-102762618D02*
X151530032Y-102702142D01*
X151530032Y-102702142D02*
X151348603Y-102702142D01*
X151348603Y-102702142D02*
X151106699Y-102762618D01*
X151106699Y-102762618D02*
X150985746Y-102823095D01*
X150985746Y-102823095D02*
X150864794Y-102944047D01*
X150864794Y-102944047D02*
X150804318Y-103125476D01*
X150804318Y-103125476D02*
X150804318Y-103246428D01*
X150804318Y-103246428D02*
X150864794Y-103427857D01*
X150864794Y-103427857D02*
X150925270Y-103488333D01*
X150925270Y-103972142D02*
X150864794Y-104032618D01*
X150864794Y-104032618D02*
X150804318Y-104153571D01*
X150804318Y-104153571D02*
X150804318Y-104455952D01*
X150804318Y-104455952D02*
X150864794Y-104576904D01*
X150864794Y-104576904D02*
X150925270Y-104637380D01*
X150925270Y-104637380D02*
X151046222Y-104697857D01*
X151046222Y-104697857D02*
X151167175Y-104697857D01*
X151167175Y-104697857D02*
X151348603Y-104637380D01*
X151348603Y-104637380D02*
X152074318Y-103911666D01*
X152074318Y-103911666D02*
X152074318Y-104697857D01*
D11*
X149261017Y-99206500D02*
X149032445Y-99046500D01*
X149261017Y-98932214D02*
X148781017Y-98932214D01*
X148781017Y-98932214D02*
X148781017Y-99115071D01*
X148781017Y-99115071D02*
X148803874Y-99160786D01*
X148803874Y-99160786D02*
X148826731Y-99183643D01*
X148826731Y-99183643D02*
X148872445Y-99206500D01*
X148872445Y-99206500D02*
X148941017Y-99206500D01*
X148941017Y-99206500D02*
X148986731Y-99183643D01*
X148986731Y-99183643D02*
X149009588Y-99160786D01*
X149009588Y-99160786D02*
X149032445Y-99115071D01*
X149032445Y-99115071D02*
X149032445Y-98932214D01*
X149261017Y-99412214D02*
X148781017Y-99412214D01*
X148781017Y-99412214D02*
X148781017Y-99595071D01*
X148781017Y-99595071D02*
X148803874Y-99640786D01*
X148803874Y-99640786D02*
X148826731Y-99663643D01*
X148826731Y-99663643D02*
X148872445Y-99686500D01*
X148872445Y-99686500D02*
X148941017Y-99686500D01*
X148941017Y-99686500D02*
X148986731Y-99663643D01*
X148986731Y-99663643D02*
X149009588Y-99640786D01*
X149009588Y-99640786D02*
X149032445Y-99595071D01*
X149032445Y-99595071D02*
X149032445Y-99412214D01*
X149261017Y-100143643D02*
X149261017Y-99869357D01*
X149261017Y-100006500D02*
X148781017Y-100006500D01*
X148781017Y-100006500D02*
X148849588Y-99960786D01*
X148849588Y-99960786D02*
X148895302Y-99915071D01*
X148895302Y-99915071D02*
X148918160Y-99869357D01*
D14*
%TO.C,RP2*%
X144241000Y-97935000D02*
X144241000Y-99535000D01*
X147959000Y-99535000D02*
X147959000Y-97935000D01*
D15*
X147445000Y-100720000D02*
G75*
G02*
X147245000Y-100720000I-100000J0D01*
G01*
X147245000Y-100720000D02*
G75*
G02*
X147445000Y-100720000I100000J0D01*
G01*
D14*
%TO.C,VR1*%
X148350000Y-89985000D02*
X154850000Y-89985000D01*
X148350000Y-93485000D02*
X148350000Y-89985000D01*
X154850000Y-89985000D02*
X154850000Y-93485000D01*
X154850000Y-93485000D02*
X148350000Y-93485000D01*
D15*
X149450000Y-86985000D02*
G75*
G02*
X149250000Y-86985000I-100000J0D01*
G01*
X149250000Y-86985000D02*
G75*
G02*
X149450000Y-86985000I100000J0D01*
G01*
%TO.C,C5*%
X146420000Y-108590000D02*
G75*
G02*
X146320000Y-108590000I-50000J0D01*
G01*
X146320000Y-108590000D02*
G75*
G02*
X146420000Y-108590000I50000J0D01*
G01*
D14*
%TO.C,U2*%
X143500000Y-92650000D02*
X143500000Y-94850000D01*
X143500000Y-94850000D02*
X147500000Y-94850000D01*
X147500000Y-92650000D02*
X143500000Y-92650000D01*
X147500000Y-94850000D02*
X147500000Y-92650000D01*
D15*
%TO.C,F2*%
X154075000Y-123150000D02*
X154725000Y-123150000D01*
D12*
%TO.C,U3*%
X145875000Y-108825000D02*
X151625000Y-108825000D01*
X145875000Y-109400000D02*
X145875000Y-108825000D01*
X145875000Y-119475000D02*
X145875000Y-118900000D01*
X145875000Y-119475000D02*
X151625000Y-119475000D01*
X151625000Y-109400000D02*
X151625000Y-108825000D01*
X151625000Y-119475000D02*
X151625000Y-118900000D01*
D11*
X152125000Y-109400000D02*
X151885000Y-109070000D01*
X152365000Y-109070000D01*
X152125000Y-109400000D01*
G36*
X152125000Y-109400000D02*
G01*
X151885000Y-109070000D01*
X152365000Y-109070000D01*
X152125000Y-109400000D01*
G37*
D15*
%TO.C,C6*%
X148420000Y-108590000D02*
G75*
G02*
X148320000Y-108590000I-50000J0D01*
G01*
X148320000Y-108590000D02*
G75*
G02*
X148420000Y-108590000I50000J0D01*
G01*
D14*
%TO.C,RP1*%
X149541000Y-98787500D02*
X149541000Y-100387500D01*
X153259000Y-100387500D02*
X153259000Y-98787500D01*
D15*
X150255000Y-97602500D02*
G75*
G02*
X150055000Y-97602500I-100000J0D01*
G01*
X150055000Y-97602500D02*
G75*
G02*
X150255000Y-97602500I100000J0D01*
G01*
%TD*%
M02*
